<svg width="80" height="122" viewBox="0 0 80 122" fill="none" xmlns="http://www.w3.org/2000/svg">
<path d="M41.284 102.858C41.2974 99.0885 42.4441 95.4071 44.5793 92.279C46.7145 89.151 49.7425 86.7165 53.2809 85.283C56.8192 83.8495 60.7093 83.4812 64.46 84.2248C68.2106 84.9683 71.6535 86.7903 74.354 89.4606C77.0545 92.1309 78.8915 95.5298 79.6329 99.2282C80.3744 102.927 79.9871 106.758 78.52 110.24C77.0528 113.722 74.5717 116.697 71.3897 118.79C68.2078 120.883 64.4678 122 60.642 122C55.5006 121.986 50.5747 119.963 46.9454 116.374C43.3162 112.785 41.2801 107.925 41.284 102.858ZM0.000472962 102.858C-0.0260288 99.1234 1.06175 95.4632 3.12864 92.3325C5.19553 89.2017 8.15043 86.7384 11.6262 85.2486C15.1019 83.7588 18.9453 83.3081 22.6788 83.9527C26.4123 84.5972 29.8713 86.3085 32.6261 88.8739C32.7882 89.0293 32.8823 89.241 32.8881 89.4637C32.894 89.6865 32.8113 89.9027 32.6575 90.0661L26.3928 96.8067C26.316 96.8899 26.2231 96.957 26.1194 97.0041C26.0158 97.0511 25.9036 97.077 25.7895 97.0804C25.6754 97.0837 25.5619 97.0643 25.4556 97.0235C25.3493 96.9826 25.2524 96.9211 25.1708 96.8425C23.5904 95.3366 21.4713 94.5053 19.2729 94.5289C17.0746 94.5526 14.9743 95.4293 13.4277 96.9689C12.586 97.7913 11.9302 98.7797 11.5035 99.8694C11.0767 100.959 10.8886 102.125 10.9514 103.292C11.0142 104.458 11.3266 105.598 11.8681 106.637C12.4095 107.676 13.1678 108.591 14.0932 109.321C15.0185 110.051 16.09 110.58 17.2374 110.873C18.3848 111.166 19.5822 111.217 20.7509 111.022C21.9197 110.827 23.0334 110.391 24.0191 109.742C25.0047 109.094 25.84 108.247 26.4702 107.257H20.2272C20.1133 107.258 20.0003 107.237 19.8948 107.195C19.7893 107.152 19.6933 107.09 19.6126 107.011C19.5318 106.931 19.4677 106.837 19.4241 106.733C19.3805 106.63 19.3582 106.518 19.3585 106.406V100.824C19.3585 100.599 19.4492 100.383 19.6107 100.223C19.7722 100.064 19.9913 99.9738 20.22 99.9732H37.8697C37.9828 99.9735 38.0948 99.9958 38.1992 100.039C38.3036 100.082 38.3983 100.144 38.4781 100.223C38.5579 100.303 38.6211 100.396 38.6641 100.499C38.7071 100.602 38.729 100.713 38.7287 100.824V102.858C38.7287 107.919 36.6886 112.772 33.0571 116.351C29.4256 119.929 24.5003 121.939 19.3646 121.939C14.2289 121.939 9.30357 119.929 5.67209 116.351C2.04062 112.772 0.000472962 107.919 0.000472962 102.858ZM0.416671 60.9816C0.429584 57.2117 1.57588 53.5301 3.71081 50.4017C5.84573 47.2733 8.87354 44.8384 12.4119 43.4046C15.9502 41.9707 19.8404 41.6021 23.5912 42.3454C27.342 43.0886 30.7851 44.9104 33.4859 47.5806C36.1866 50.2509 38.0238 53.6498 38.7655 57.3482C39.5071 61.0466 39.12 64.8787 37.6529 68.3604C36.1859 71.8422 33.7047 74.8175 30.5227 76.9106C27.3407 79.0038 23.6006 80.1209 19.7747 80.1209C14.6339 80.1064 9.70874 78.0832 6.07971 74.4952C2.45068 70.9072 0.414087 66.0473 0.416671 60.9816ZM68.2135 80.0565C68.0124 80.0689 67.8119 80.024 67.636 79.9272C67.4601 79.8304 67.3161 79.6857 67.2214 79.5105L56.3325 67.2763V79.2339C56.3398 79.3429 56.3236 79.4522 56.2849 79.5545C56.2461 79.6569 56.1857 79.7499 56.1077 79.8275C56.0296 79.9051 55.9358 79.9654 55.8322 80.0045C55.7287 80.0435 55.618 80.0605 55.5073 80.0542H44.0667C43.956 80.0605 43.8453 80.0435 43.7418 80.0045C43.6382 79.9654 43.5444 79.9051 43.4663 79.8275C43.3883 79.7499 43.3279 79.6569 43.2891 79.5545C43.2504 79.4522 43.2342 79.3429 43.2416 79.2339V42.6815C43.2345 42.5727 43.251 42.4637 43.2899 42.3617C43.3288 42.2596 43.3893 42.1669 43.4673 42.0896C43.5453 42.0123 43.639 41.9521 43.7424 41.9132C43.8457 41.8743 43.9562 41.8574 44.0667 41.8637H53.1916C53.3897 41.8662 53.5841 41.9172 53.7573 42.0121C53.9305 42.1069 54.077 42.2428 54.1837 42.4073L65.0049 54.4985V42.6815C64.9978 42.5727 65.0143 42.4637 65.0532 42.3617C65.0921 42.2596 65.1526 42.1669 65.2306 42.0896C65.3086 42.0123 65.4024 41.9521 65.5057 41.9132C65.609 41.8743 65.7196 41.8574 65.83 41.8637H77.0722C77.1826 41.8574 77.2932 41.8743 77.3965 41.9132C77.4998 41.9521 77.5936 42.0123 77.6716 42.0896C77.7496 42.1669 77.8101 42.2596 77.849 42.3617C77.8879 42.4637 77.9044 42.5727 77.8973 42.6815V79.2339C77.9047 79.3429 77.8885 79.4522 77.8498 79.5545C77.811 79.6569 77.7506 79.7499 77.6726 79.8275C77.5945 79.9051 77.5006 79.9654 77.3971 80.0045C77.2936 80.0435 77.1829 80.0605 77.0722 80.0542L68.2135 80.0565ZM35.6726 38.33C35.562 38.336 35.4514 38.3188 35.3481 38.2796C35.2447 38.2404 35.151 38.18 35.0731 38.1025C34.9951 38.025 34.9347 37.9321 34.8958 37.83C34.8569 37.7278 34.8404 37.6187 34.8474 37.5098V0.885883C34.8408 0.777183 34.8575 0.668328 34.8966 0.566457C34.9356 0.464586 34.9961 0.372001 35.074 0.294775C35.1519 0.217549 35.2455 0.157427 35.3487 0.118352C35.4518 0.0792772 35.5622 0.0621329 35.6726 0.0680436H44.7152C44.8257 0.0617835 44.9364 0.0786686 45.0398 0.117587C45.1433 0.156506 45.2372 0.216575 45.3154 0.29384C45.3935 0.371104 45.4542 0.463811 45.4934 0.565857C45.5326 0.667903 45.5494 0.776972 45.5427 0.885883V37.5146C45.5494 37.6236 45.5326 37.7328 45.4934 37.8349C45.4542 37.9371 45.3936 38.0299 45.3154 38.1074C45.2373 38.1848 45.1434 38.2451 45.04 38.2843C44.9365 38.3235 44.8259 38.3407 44.7152 38.3348L35.6726 38.33ZM50.7234 38.2657C50.6129 38.2716 50.5023 38.2544 50.399 38.2152C50.2956 38.176 50.2019 38.1156 50.124 38.0381C50.046 37.9607 49.9856 37.8678 49.9467 37.7656C49.9078 37.6635 49.8913 37.5543 49.8983 37.4454V30.6142C49.8985 30.2594 50.0147 29.9141 50.2298 29.6295L60.6469 12.7815H51.2752C51.1644 12.7878 51.0535 12.7709 50.9499 12.7318C50.8463 12.6927 50.7523 12.6325 50.674 12.5549C50.5958 12.4774 50.5352 12.3844 50.4961 12.2821C50.4571 12.1797 50.4406 12.0704 50.4476 11.9613V0.821505C50.4406 0.712401 50.4571 0.603068 50.4961 0.500734C50.5352 0.3984 50.5958 0.305394 50.674 0.227866C50.7523 0.150337 50.8463 0.0900501 50.9499 0.0509905C51.0535 0.0119309 51.1644 -0.00501222 51.2752 0.00128118H76.535C76.6458 -0.00501222 76.7566 0.0119309 76.8603 0.0509905C76.9639 0.0900501 77.0579 0.150337 77.1361 0.227866C77.2144 0.305394 77.275 0.3984 77.314 0.500734C77.3531 0.603068 77.3696 0.712401 77.3626 0.821505V7.55974C77.3624 7.91384 77.2461 8.25841 77.0311 8.5421L67.0955 25.5641H77.0843C77.1951 25.5578 77.3059 25.5748 77.4095 25.6138C77.5132 25.6529 77.6072 25.7132 77.6854 25.7907C77.7636 25.8682 77.8243 25.9612 77.8633 26.0636C77.9023 26.1659 77.9189 26.2752 77.9119 26.3843V37.4478C77.9185 37.5568 77.9017 37.666 77.8625 37.7682C77.8233 37.8703 77.7627 37.9632 77.6845 38.0406C77.6064 38.1181 77.5125 38.1784 77.4091 38.2176C77.3056 38.2567 77.195 38.274 77.0843 38.268L50.7234 38.2657ZM3.38813 38.2704C3.27747 38.2763 3.16678 38.2591 3.06334 38.2199C2.95989 38.1807 2.86602 38.1204 2.78788 38.043C2.70974 37.9655 2.6491 37.8727 2.60993 37.7705C2.57075 37.6684 2.55394 37.5592 2.56058 37.4502V0.821505C2.55354 0.712401 2.57009 0.603068 2.60913 0.500734C2.64816 0.3984 2.70879 0.305394 2.78702 0.227866C2.86524 0.150337 2.95927 0.0900501 3.06289 0.0509905C3.16652 0.0119309 3.27737 -0.00501222 3.38813 0.00128118H17.2824C24.6723 0.00128118 28.8658 4.37183 28.8658 10.0156C28.9557 11.6097 28.5834 13.196 27.7925 14.5893C27.0015 15.9826 25.8245 17.1254 24.3989 17.8841C26.5145 18.4382 28.39 19.6547 29.7429 21.3504C31.0959 23.0461 31.853 25.1291 31.9001 27.2856C31.9001 34.5031 27.2663 38.2752 17.3405 38.2752L3.38813 38.2704Z" fill="black"/>
</svg>
