<svg width="22" height="34" viewBox="0 0 22 34" fill="none" xmlns="http://www.w3.org/2000/svg">
<path d="M11.3531 28.6654C11.3568 27.6148 11.6721 26.5889 12.2593 25.7171C12.8465 24.8454 13.6792 24.1669 14.6522 23.7674C15.6253 23.3679 16.6951 23.2653 17.7265 23.4725C18.7579 23.6797 19.7047 24.1874 20.4474 24.9316C21.19 25.6758 21.6952 26.6231 21.8991 27.6538C22.103 28.6844 21.9965 29.7524 21.593 30.7226C21.1895 31.6929 20.5072 32.5221 19.6322 33.1054C18.7571 33.6887 17.7286 34 16.6766 34C15.2627 33.9961 13.908 33.4323 12.91 32.4321C11.912 31.432 11.352 30.0773 11.3531 28.6654V28.6654ZM0.000130065 28.6654C-0.00715792 27.6246 0.29198 26.6045 0.860376 25.732C1.42877 24.8595 2.24137 24.173 3.1972 23.7578C4.15304 23.3426 5.20997 23.217 6.23668 23.3966C7.26339 23.5763 8.21462 24.0532 8.97217 24.7681C9.01676 24.8114 9.04262 24.8704 9.04424 24.9325C9.04585 24.9946 9.02309 25.0548 8.98082 25.1004L7.25801 26.9789C7.23691 27.0021 7.21134 27.0208 7.18284 27.0339C7.15433 27.047 7.12348 27.0543 7.09211 27.0552C7.06075 27.0561 7.02952 27.0507 7.00028 27.0393C6.97105 27.0279 6.94442 27.0108 6.92197 26.9889C6.48737 26.5692 5.90459 26.3375 5.30005 26.3441C4.69551 26.3507 4.11794 26.595 3.69262 27.0241C3.46115 27.2533 3.28082 27.5288 3.16345 27.8325C3.04609 28.1362 2.99436 28.4612 3.01164 28.7862C3.02892 29.1113 3.11483 29.429 3.26372 29.7186C3.41262 30.0082 3.62115 30.263 3.87562 30.4665C4.13009 30.6699 4.42476 30.8173 4.7403 30.899C5.05583 30.9807 5.3851 30.9949 5.70651 30.9406C6.02791 30.8863 6.33419 30.7648 6.60525 30.5839C6.8763 30.4031 7.10601 30.1671 7.27931 29.8914H5.56249C5.53116 29.8917 5.50008 29.8857 5.47107 29.8739C5.44205 29.8621 5.41567 29.8447 5.39345 29.8226C5.37123 29.8005 5.35362 29.7743 5.34163 29.7454C5.32964 29.7165 5.32351 29.6855 5.3236 29.6542V28.0986C5.3236 28.0358 5.34854 27.9756 5.39294 27.9311C5.43735 27.8866 5.4976 27.8616 5.56049 27.8614H10.4142C10.4453 27.8615 10.4761 27.8677 10.5048 27.8796C10.5335 27.8916 10.5595 27.9091 10.5815 27.9311C10.6034 27.9532 10.6208 27.9793 10.6326 28.008C10.6444 28.0368 10.6505 28.0675 10.6504 28.0986V28.6654C10.6504 30.0757 10.0894 31.4283 9.0907 32.4256C8.09204 33.4228 6.73758 33.9831 5.32526 33.9831C3.91295 33.9831 2.55848 33.4228 1.55983 32.4256C0.561169 31.4283 0.000130065 30.0757 0.000130065 28.6654ZM0.114585 16.9949C0.118136 15.9442 0.433367 14.9182 1.02047 14.0464C1.60758 13.1745 2.44022 12.496 3.41327 12.0964C4.38631 11.6968 5.45611 11.594 6.48758 11.8012C7.51905 12.0083 8.46592 12.516 9.20862 13.2602C9.95132 14.0043 10.4566 14.9516 10.6605 15.9823C10.8645 17.013 10.758 18.0809 10.3546 19.0513C9.95111 20.0216 9.26878 20.8508 8.39374 21.4341C7.51869 22.0174 6.49017 22.3288 5.43805 22.3288C4.02431 22.3247 2.6699 21.7609 1.67192 20.761C0.673938 19.761 0.113874 18.4066 0.114585 16.9949V16.9949ZM18.7587 22.3108C18.7034 22.3143 18.6483 22.3018 18.5999 22.2748C18.5515 22.2478 18.5119 22.2075 18.4859 22.1587L15.4914 18.7491V22.0816C15.4935 22.112 15.489 22.1424 15.4783 22.1709C15.4677 22.1995 15.4511 22.2254 15.4296 22.247C15.4082 22.2686 15.3823 22.2854 15.3539 22.2963C15.3254 22.3072 15.2949 22.3119 15.2645 22.3102H12.1183C12.0879 22.3119 12.0574 22.3072 12.029 22.2963C12.0005 22.2854 11.9747 22.2686 11.9532 22.247C11.9318 22.2254 11.9152 22.1995 11.9045 22.1709C11.8939 22.1424 11.8894 22.112 11.8914 22.0816V11.8948C11.8895 11.8645 11.894 11.8341 11.9047 11.8057C11.9154 11.7773 11.9321 11.7514 11.9535 11.7299C11.975 11.7083 12.0007 11.6916 12.0292 11.6807C12.0576 11.6699 12.088 11.6652 12.1183 11.6669H14.6277C14.6822 11.6676 14.7356 11.6818 14.7833 11.7083C14.8309 11.7347 14.8712 11.7726 14.9005 11.8184L17.8763 15.1881V11.8948C17.8744 11.8645 17.8789 11.8341 17.8896 11.8057C17.9003 11.7773 17.917 11.7514 17.9384 11.7299C17.9599 11.7083 17.9856 11.6916 18.0141 11.6807C18.0425 11.6699 18.0729 11.6652 18.1033 11.6669H21.1949C21.2252 11.6652 21.2556 11.6699 21.284 11.6807C21.3125 11.6916 21.3382 11.7083 21.3597 11.7299C21.3811 11.7514 21.3978 11.7773 21.4085 11.8057C21.4192 11.8341 21.4237 11.8645 21.4218 11.8948V22.0816C21.4238 22.112 21.4193 22.1424 21.4087 22.1709C21.398 22.1995 21.3814 22.2254 21.36 22.247C21.3385 22.2686 21.3127 22.2854 21.2842 22.2963C21.2557 22.3072 21.2253 22.3119 21.1949 22.3102L18.7587 22.3108ZM9.80995 10.6821C9.77955 10.6838 9.74913 10.679 9.72072 10.6681C9.6923 10.6571 9.66653 10.6403 9.64509 10.6187C9.62365 10.5971 9.60704 10.5713 9.59634 10.5428C9.58565 10.5143 9.58111 10.4839 9.58304 10.4536V0.246885C9.58121 0.216592 9.58582 0.186255 9.59656 0.157865C9.6073 0.129475 9.62393 0.103672 9.64535 0.0821504C9.66678 0.0606284 9.69252 0.043873 9.72089 0.0329833C9.74925 0.0220937 9.77961 0.0173157 9.80995 0.018963H12.2967C12.3271 0.0172183 12.3575 0.021924 12.3859 0.0327702C12.4144 0.0436164 12.4402 0.060357 12.4617 0.0818897C12.4832 0.103422 12.4999 0.129259 12.5107 0.157698C12.5215 0.186137 12.5261 0.216533 12.5243 0.246885V10.4549C12.5261 10.4853 12.5215 10.5157 12.5107 10.5442C12.4999 10.5726 12.4832 10.5985 12.4617 10.6201C12.4403 10.6417 12.4144 10.6585 12.386 10.6694C12.3575 10.6803 12.3271 10.6851 12.2967 10.6835L9.80995 10.6821ZM13.9489 10.6642C13.9185 10.6659 13.8881 10.6611 13.8597 10.6501C13.8313 10.6392 13.8055 10.6224 13.7841 10.6008C13.7626 10.5792 13.746 10.5533 13.7353 10.5248C13.7246 10.4964 13.7201 10.466 13.722 10.4356V8.53183C13.7221 8.43294 13.7541 8.3367 13.8132 8.25739L16.6779 3.56206H14.1007C14.0702 3.56381 14.0397 3.55909 14.0112 3.54821C13.9827 3.53732 13.9569 3.52052 13.9354 3.49891C13.9138 3.47731 13.8972 3.45139 13.8864 3.42287C13.8757 3.39435 13.8712 3.36388 13.8731 3.33347V0.228944C13.8712 0.198538 13.8757 0.168068 13.8864 0.139549C13.8972 0.111029 13.9138 0.0851099 13.9354 0.0635035C13.9569 0.0418971 13.9827 0.0250959 14.0112 0.0142105C14.0397 0.00332499 14.0702 -0.00139685 14.1007 0.00035705H21.0471C21.0776 -0.00139685 21.1081 0.00332499 21.1366 0.0142105C21.1651 0.0250959 21.1909 0.0418971 21.2124 0.0635035C21.2339 0.0851099 21.2506 0.111029 21.2614 0.139549C21.2721 0.168068 21.2766 0.198538 21.2747 0.228944V2.10681C21.2747 2.2055 21.2427 2.30152 21.1835 2.38058L18.4513 7.12443H21.1982C21.2286 7.12267 21.2591 7.12739 21.2876 7.13828C21.3161 7.14917 21.342 7.16597 21.3635 7.18757C21.385 7.20918 21.4017 7.2351 21.4124 7.26362C21.4231 7.29214 21.4277 7.32261 21.4258 7.35301V10.4363C21.4276 10.4667 21.423 10.4971 21.4122 10.5256C21.4014 10.554 21.3847 10.5799 21.3632 10.6015C21.3418 10.6231 21.3159 10.6399 21.2875 10.6508C21.2591 10.6617 21.2286 10.6665 21.1982 10.6649L13.9489 10.6642ZM0.931737 10.6655C0.901304 10.6672 0.870865 10.6624 0.842418 10.6515C0.81397 10.6405 0.788156 10.6237 0.766668 10.6021C0.745179 10.5806 0.728502 10.5547 0.71773 10.5262C0.706957 10.4977 0.702332 10.4673 0.704159 10.4369V0.228944C0.702225 0.198538 0.706776 0.168068 0.71751 0.139549C0.728244 0.111029 0.744918 0.0851099 0.766429 0.0635035C0.78794 0.0418971 0.813799 0.0250959 0.842295 0.0142105C0.870792 0.00332499 0.901277 -0.00139685 0.931737 0.00035705H4.75266C6.78489 0.00035705 7.93809 1.21838 7.93809 2.79124C7.96282 3.23548 7.86044 3.67758 7.64292 4.06588C7.42541 4.45418 7.10172 4.77265 6.7097 4.98408C7.29148 5.13851 7.80724 5.47755 8.1793 5.95012C8.55136 6.42269 8.75957 7.0032 8.77254 7.60419C8.77254 9.61563 7.49824 10.6669 4.76863 10.6669L0.931737 10.6655Z" fill="#F2F2F2"/>
</svg>
