<svg width="35" height="30" viewBox="0 0 35 30" fill="none" xmlns="http://www.w3.org/2000/svg">
<path d="M10.5498 27.982C12.1021 28.9028 13.7955 29.4592 15.6046 29.8884C15.3169 30.1002 15.1062 29.9492 14.9017 29.934C12.2265 29.7317 9.71459 28.97 7.42214 27.5647C3.89433 25.4025 1.3911 22.405 0.416439 18.298C-0.659655 13.7625 0.36414 9.65953 3.28576 6.08009C5.73035 3.08497 8.9095 1.25208 12.679 0.465535C13.6061 0.272095 14.5348 0.0970393 15.4984 0.203351C15.1109 0.316858 14.7234 0.429564 14.3359 0.543071C14.0459 0.539873 13.7923 0.653379 13.5467 0.792464C13.4167 0.823639 13.2868 0.855612 13.156 0.886786C12.4326 1.15217 11.7313 1.4711 11.0466 1.82441C10.6013 2.05462 10.6005 2.06102 10.9618 2.4391C11.9024 3.42309 13.1259 3.84754 14.3874 4.19685C14.5317 4.23682 14.5982 4.16408 14.6854 4.07295C15.4524 3.27122 16.3138 2.60217 17.3534 2.19211C17.4778 2.14095 17.5864 2.14495 17.7259 2.19451C18.7465 2.55501 19.5785 3.18888 20.3186 3.96264C20.4248 4.07375 20.5072 4.20644 20.7117 4.15129C21.9455 3.81796 23.1127 3.36074 24.0184 2.40313C24.4217 1.97708 24.4209 1.9603 23.9241 1.69891C22.4249 0.907569 20.8321 0.3864 19.1696 0.0730591C19.0753 0.0554736 18.9818 0.0370888 18.9589 0.0322928C19.6942 -0.0580325 20.4938 0.061069 21.2862 0.176973C23.3987 0.486317 25.4012 1.13858 27.2602 2.21689C30.093 3.85873 32.3118 6.08649 33.6906 9.0968C34.0678 9.92012 34.3467 10.7826 34.5686 11.6787C34.8665 12.8817 35.0266 14.0815 34.9949 15.3045C34.9172 18.3244 33.9592 21.0549 32.1311 23.4449C29.513 26.8669 26.028 28.8733 21.8353 29.6542C20.9185 29.8253 19.9874 29.9356 19.046 29.8932C20.8139 29.5463 22.5073 28.9828 24.1111 28.1546C24.5049 27.9516 24.5319 27.8949 24.2664 27.5312C23.6745 26.7214 22.844 26.2442 21.9328 25.8997C19.4169 24.9485 16.8415 24.8358 14.2234 25.3737C14.1703 25.3849 14.1212 25.3897 14.1006 25.4489C13.8121 25.5872 13.4873 25.504 13.1877 25.6207C12.5625 25.8645 11.9254 26.0852 11.3493 26.4321C10.7836 26.7726 10.274 27.1866 9.96895 27.8197C10.1734 27.8757 10.3612 27.9284 10.5498 27.982ZM11.3192 12.526C11.3763 12.1455 11.4254 11.7642 11.4912 11.3853C11.8739 9.17194 12.5689 7.07687 13.8114 5.19123C14.0879 4.77158 14.0879 4.78676 13.6037 4.63089C12.2986 4.21284 11.0569 3.68208 10.2075 2.52223C10.0728 2.33839 9.98163 2.42951 9.85247 2.50705C8.30806 3.42549 7.00217 4.63489 5.86347 6.00655C5.14159 6.87624 4.5346 7.84903 4.05598 8.88897C3.4276 10.2526 2.9474 11.6603 2.78337 13.1638C2.58844 13.8744 2.62093 13.9432 3.26357 14.1694C4.63682 14.653 6.05603 14.9584 7.48078 15.2221C8.59095 15.4276 9.71697 15.5483 10.8366 15.7017C11.0118 15.7257 11.1996 15.7817 11.1877 15.4619C11.1481 14.4811 11.24 13.5036 11.3192 12.526ZM29.9092 22.8934C30.017 22.7607 30.1406 22.6384 30.2301 22.4937C31.2254 20.8918 31.8894 19.1581 32.2088 17.298C32.3554 16.4451 32.4489 15.581 32.368 14.6818C30.3918 15.4348 28.3553 15.7745 26.3172 16.099C25.6024 16.2125 24.8813 16.2885 24.1602 16.3484C23.9122 16.3692 23.8544 16.4611 23.8441 16.6841C23.8258 17.0814 23.7989 17.4803 23.7426 17.8735C23.3932 20.2995 22.7442 22.624 21.3947 24.6991C21.2323 24.9485 21.2798 24.9821 21.5382 25.0708C22.8995 25.5392 24.1856 26.1315 24.9622 27.4568C25.0319 27.5759 25.085 27.5719 25.2054 27.496C26.5747 26.6295 27.8077 25.6071 28.8426 24.349C28.9852 24.293 28.9979 24.1404 29.0716 24.0341C29.1984 23.9629 29.2436 23.8278 29.3133 23.7135C29.6081 23.5113 29.7959 23.2299 29.9092 22.8934ZM12.5292 9.73467C12.4215 9.83779 12.4405 9.97767 12.4254 10.1072C12.3478 10.2654 12.2978 10.4317 12.2978 10.6099C12.2868 10.6771 12.2757 10.7442 12.2646 10.8114C12.1861 10.8913 12.2067 10.9904 12.2107 11.0864C12.0284 11.7266 11.9642 12.3893 11.908 13.0471C11.6782 15.7329 11.8723 18.3811 12.6838 20.967C13.0498 22.1348 13.5396 23.2427 14.1711 24.2898C14.332 24.5568 14.4786 24.6703 14.8272 24.6104C15.565 24.4841 16.313 24.4009 17.0666 24.4113C18.1086 24.4257 19.1467 24.4777 20.1649 24.7199C20.4494 24.7878 20.6467 24.7415 20.8099 24.4681C21.4375 23.4138 21.9827 22.3331 22.3543 21.1484C22.8702 19.5074 23.1428 17.836 23.2609 16.1286C23.3433 14.9352 23.2395 13.7506 23.1269 12.5659C23.0802 12.0687 22.8884 11.5923 22.8884 11.0856C22.8892 11.0456 22.8979 11.004 22.8892 10.9665C22.2806 8.25829 21.4058 5.69801 19.1918 3.82356C18.7211 3.42469 18.233 3.09536 17.6696 2.86995C17.5761 2.83238 17.4858 2.76843 17.3431 2.84117C15.9136 3.56857 14.8383 4.66287 14.0293 6.03933C13.3502 7.19677 12.82 8.41656 12.5292 9.73467ZM23.9217 14.8057C23.9217 14.9647 23.9439 15.1286 23.9178 15.2829C23.8441 15.7129 24.0525 15.7425 24.4011 15.6993C25.6405 15.5443 26.879 15.3868 28.1072 15.1566C29.4504 14.9056 30.7729 14.5779 32.0661 14.1286C32.3046 14.0455 32.4053 13.9416 32.3474 13.669C32.2729 13.3205 32.2595 12.9592 32.1977 12.6075C31.6945 9.76744 30.4591 7.29349 28.5209 5.17524C27.5335 4.09613 26.4186 3.1713 25.1793 2.39834C24.9725 2.26964 24.8766 2.30401 24.7458 2.49905C24.4867 2.88673 24.1491 3.20247 23.772 3.47824C23.0168 4.03139 22.1745 4.39429 21.2854 4.64848C20.9858 4.73401 21.0191 4.82513 21.1657 5.03376C21.3939 5.35749 21.6079 5.69321 21.8004 6.04013C23.3147 8.76268 23.8243 11.7338 23.9217 14.8057ZM2.77862 14.6746C2.63757 14.669 2.6344 14.669 2.63123 14.9176C2.61696 16.1454 2.77545 17.3508 3.07894 18.5386C3.99655 22.1324 6.15349 24.8526 9.00934 27.0763C9.27084 27.2802 9.51332 27.3681 9.75738 26.9812C10.0268 26.5536 10.446 26.257 10.8707 25.9828C11.6608 25.4737 12.5269 25.1459 13.4239 24.9005C13.679 24.831 13.7472 24.7646 13.5831 24.5208C13.3922 24.2371 13.2289 23.9317 13.0744 23.6248C11.9682 21.4194 11.4048 19.0694 11.2535 16.6122C11.2424 16.4315 11.1964 16.3668 11.0086 16.3484C10.4064 16.2893 9.8073 16.1997 9.20507 16.1302C7.17887 15.896 5.19071 15.4819 3.25089 14.8432C3.09083 14.7905 2.93155 14.7289 2.77862 14.6746Z" fill="white"/>
</svg>
