<svg width="30" height="30" viewBox="0 0 30 30" fill="none" xmlns="http://www.w3.org/2000/svg">
<path d="M27.1875 7.45033C26.291 7.83705 25.3154 8.11537 24.3105 8.22377C25.3538 7.60395 26.1351 6.62474 26.5078 5.46986C25.5288 6.05225 24.4563 6.46063 23.3379 6.67689C22.8704 6.17716 22.3051 5.77906 21.6771 5.50738C21.049 5.23571 20.3718 5.09628 19.6875 5.09779C16.9189 5.09779 14.6924 7.34193 14.6924 10.0958C14.6924 10.4826 14.7393 10.8693 14.8154 11.2413C10.6699 11.0245 6.97266 9.04408 4.51465 6.01185C4.06677 6.77684 3.83207 7.64787 3.83496 8.53431C3.83496 10.2687 4.7168 11.798 6.06152 12.6974C5.26906 12.6662 4.49514 12.4484 3.80273 12.0617V12.1232C3.80273 14.5519 5.51953 16.5646 7.80762 17.0275C7.378 17.1391 6.93606 17.1962 6.49219 17.1974C6.16699 17.1974 5.85937 17.1652 5.54883 17.1212C6.18164 19.1017 8.02441 20.5402 10.2188 20.587C8.50195 21.9318 6.35156 22.7228 4.0166 22.7228C3.59766 22.7228 3.21094 22.7081 2.80957 22.6613C5.02441 24.0822 7.65234 24.9025 10.4824 24.9025C19.6699 24.9025 24.6973 17.2911 24.6973 10.6847C24.6973 10.4679 24.6973 10.2511 24.6826 10.0343C25.6553 9.3224 26.5078 8.44056 27.1875 7.45033Z" fill="#3D4961"/>
</svg>
