<svg width="294" height="285" viewBox="0 0 294 285" fill="none" xmlns="http://www.w3.org/2000/svg">
<path d="M65.5294 224.944C65.1594 225.271 64.9043 225.71 64.802 226.195C64.8056 226.351 64.8406 226.505 64.9048 226.647C64.969 226.789 65.061 226.917 65.1755 227.022C65.2899 227.128 65.4243 227.209 65.5707 227.261C65.7171 227.312 65.8723 227.334 66.0271 227.324C66.4987 227.18 66.9111 226.886 67.203 226.486L74.2516 218.745L77.0308 221.306L70.6254 228.34C70.0625 228.989 69.405 229.548 68.6753 229.999C68.1331 230.33 67.5184 230.524 66.885 230.561C66.294 230.579 65.7095 230.432 65.1957 230.138C63.9732 229.417 62.9167 228.443 62.0962 227.281C61.756 226.79 61.5572 226.215 61.5215 225.618C61.5036 224.98 61.6411 224.348 61.9218 223.776C62.3042 223.005 62.8006 222.297 63.3941 221.676L69.8 214.642L72.5786 217.203L65.5294 224.944Z" fill="#7A8AAC"/>
<path d="M81.507 224.722L78.188 233.398L78.2205 233.422L83.4987 226.194L86.3379 228.295L77.7726 240.025L74.441 237.563L77.7065 228.821L77.6734 228.797L72.3832 236.042L69.541 233.942L78.1057 222.209L81.507 224.722Z" fill="#7A8AAC"/>
<path d="M90.8358 231L83.2828 243.414L80.0684 241.434L87.6214 229.02L90.8358 231Z" fill="#7A8AAC"/>
<path d="M89.8343 234.254L91.3324 231.407L99.6422 235.835L98.1393 238.681L95.6325 237.345L90.3657 247.361L87.0347 245.587L92.3075 235.571L89.8343 234.254Z" fill="#7A8AAC"/>
<path d="M108.177 239.434L106.988 242.292L102.558 240.428L101.604 242.722L105.752 244.469L104.61 247.215L100.462 245.468L99.3512 248.138L103.95 250.073L102.761 252.932L94.6856 249.533L100.269 236.106L108.177 239.434Z" fill="#7A8AAC"/>
<path d="M111.989 244.162L112.819 241.052L121.897 243.507L121.065 246.618L118.326 245.877L115.402 256.824L111.762 255.839L114.687 244.892L111.989 244.162Z" fill="#7A8AAC"/>
<path d="M121.771 247.374C122.034 246.574 122.457 245.837 123.015 245.207C123.497 244.688 124.122 244.325 124.811 244.166C126.454 243.877 128.147 244.162 129.608 244.973C130.207 245.349 130.681 245.896 130.969 246.545C131.293 247.322 131.454 248.158 131.444 249.001C131.412 251.332 131.026 253.643 130.302 255.857C130.039 256.658 129.616 257.396 129.058 258.025C128.581 258.542 127.954 258.895 127.267 259.036C125.624 259.283 123.945 259.001 122.471 258.229C121.866 257.871 121.388 257.331 121.105 256.686C120.781 255.909 120.619 255.072 120.629 254.229C120.661 251.899 121.046 249.587 121.771 247.374V247.374ZM124.417 253.813C124.343 254.326 124.316 254.843 124.334 255.36C124.33 255.662 124.417 255.957 124.584 256.207C124.754 256.384 124.975 256.501 125.216 256.542C125.457 256.582 125.705 256.544 125.922 256.433C126.161 256.25 126.338 255.999 126.432 255.712C126.616 255.23 126.757 254.731 126.853 254.223C126.986 253.592 127.133 252.793 127.293 251.828C127.452 250.863 127.573 250.06 127.653 249.418C127.727 248.906 127.754 248.389 127.736 247.871C127.739 247.57 127.652 247.276 127.487 247.025C127.316 246.848 127.095 246.731 126.853 246.691C126.612 246.65 126.365 246.688 126.147 246.799C125.909 246.982 125.732 247.233 125.638 247.519C125.454 248.002 125.313 248.501 125.217 249.009C125.084 249.642 124.937 250.44 124.778 251.405C124.618 252.37 124.499 253.173 124.419 253.813H124.417Z" fill="#7A8AAC"/>
<path d="M147.21 245.954L147.154 249.051L142.352 248.963L142.306 251.448L146.804 251.531L146.749 254.507L142.251 254.423L142.142 260.415L138.374 260.345L138.64 245.793L147.21 245.954Z" fill="#7A8AAC"/>
<path d="M151.874 245.646L152.619 260.182L148.855 260.378L148.11 245.842L151.874 245.646Z" fill="#7A8AAC"/>
<path d="M163.85 250.962L164.855 258.806L162.323 259.135L162.082 257.872L162.041 257.877C161.971 258.184 161.829 258.47 161.627 258.712C161.437 258.939 161.204 259.126 160.942 259.263C160.67 259.403 160.382 259.513 160.086 259.59C159.774 259.67 159.458 259.731 159.139 259.771C158.366 259.911 157.57 259.849 156.827 259.59C156.227 259.336 155.726 258.892 155.399 258.326C154.995 257.62 154.713 256.85 154.566 256.049C154.373 255.129 154.199 254.069 154.046 252.87C153.899 251.796 153.831 250.712 153.845 249.628C153.844 248.785 154.015 247.951 154.348 247.178C154.662 246.495 155.166 245.918 155.801 245.52C156.606 245.05 157.504 244.762 158.431 244.676C159.046 244.59 159.671 244.599 160.283 244.703C160.843 244.799 161.373 245.027 161.829 245.368C162.306 245.738 162.694 246.211 162.966 246.751C163.302 247.439 163.515 248.18 163.594 248.942L159.976 249.411C159.931 248.84 159.79 248.282 159.56 247.758C159.488 247.575 159.354 247.422 159.182 247.328C159.009 247.234 158.809 247.205 158.617 247.244C158.352 247.263 158.102 247.376 157.911 247.561C157.724 247.801 157.618 248.096 157.611 248.402C157.573 248.918 157.581 249.436 157.635 249.95C157.69 250.595 157.78 251.402 157.905 252.369C158.029 253.337 158.146 254.141 158.255 254.781C158.332 255.292 158.455 255.795 158.621 256.285C158.703 256.575 158.871 256.833 159.102 257.024C159.311 257.156 159.562 257.203 159.804 257.159C159.989 257.139 160.166 257.073 160.321 256.969C160.483 256.84 160.6 256.663 160.654 256.463C160.744 256.15 160.788 255.826 160.786 255.5C160.789 254.986 160.754 254.471 160.681 253.962L159.358 254.134L159.032 251.586L163.85 250.962Z" fill="#7A8AAC"/>
<path d="M167.982 243.246L169.216 248.441L171.462 247.902L170.23 242.707L173.897 241.827L177.254 255.984L173.587 256.864L172.205 251.035L169.957 251.575L171.34 257.404L167.673 258.284L164.316 244.127L167.982 243.246Z" fill="#7A8AAC"/>
<path d="M175.597 244.668L174.556 241.622L183.446 238.545L184.487 241.591L181.802 242.519L185.469 253.236L181.906 254.47L178.238 243.752L175.597 244.668Z" fill="#7A8AAC"/>
<path d="M194.986 236.113C194.855 236.02 194.699 235.966 194.538 235.96C194.377 235.953 194.217 235.994 194.079 236.077C193.854 236.179 193.675 236.361 193.577 236.589C193.495 236.879 193.502 237.187 193.596 237.473C193.735 237.971 193.917 238.456 194.142 238.921C194.411 239.508 194.768 240.236 195.212 241.106C195.657 241.976 196.037 242.692 196.354 243.254C196.6 243.709 196.885 244.141 197.207 244.544C197.383 244.788 197.628 244.973 197.91 245.074C198.151 245.127 198.403 245.086 198.616 244.962C198.8 244.876 198.951 244.729 199.042 244.547C199.126 244.332 199.14 244.096 199.084 243.872C199.007 243.511 198.892 243.159 198.742 242.822C198.565 242.402 198.32 241.884 198.006 241.267L201.252 239.591L201.743 240.551C202.158 241.299 202.423 242.12 202.525 242.97C202.591 243.603 202.502 244.242 202.268 244.833C202.044 245.367 201.695 245.838 201.25 246.206C200.791 246.59 200.292 246.921 199.761 247.194C198.99 247.623 198.149 247.909 197.278 248.041C196.585 248.128 195.883 247.979 195.284 247.617C194.586 247.169 193.988 246.582 193.526 245.891C192.865 244.938 192.274 243.937 191.758 242.897C191.208 241.854 190.747 240.766 190.381 239.644C190.109 238.848 190.006 238.003 190.081 237.165C190.161 236.464 190.453 235.806 190.917 235.277C191.485 234.662 192.164 234.159 192.917 233.797C193.563 233.442 194.266 233.203 194.994 233.09C195.556 233 196.131 233.051 196.669 233.237C197.207 233.424 197.691 233.741 198.078 234.161C198.516 234.631 198.883 235.163 199.168 235.739L199.585 236.556L196.339 238.232L195.968 237.506C195.746 236.976 195.41 236.5 194.986 236.113Z" fill="#7A8AAC"/>
<path d="M200.214 234.528C199.869 233.76 199.685 232.929 199.673 232.086C199.678 231.376 199.894 230.683 200.294 230.097C201.309 228.765 202.746 227.822 204.367 227.423C205.061 227.292 205.778 227.372 206.427 227.654C207.188 228.006 207.87 228.511 208.429 229.138C209.974 230.875 211.247 232.838 212.205 234.96C212.549 235.729 212.733 236.56 212.746 237.402C212.743 238.108 212.52 238.795 212.108 239.366C211.066 240.668 209.64 241.604 208.036 242.039C207.35 242.188 206.635 242.117 205.992 241.835C205.23 241.483 204.549 240.978 203.989 240.351C202.444 238.614 201.17 236.651 200.213 234.528H200.214ZM206.497 237.464C206.788 237.891 207.116 238.291 207.476 238.659C207.677 238.884 207.94 239.042 208.231 239.113C208.475 239.127 208.717 239.062 208.921 238.928C209.126 238.794 209.282 238.597 209.368 238.367C209.421 238.07 209.382 237.764 209.258 237.489C209.069 237.008 208.838 236.545 208.567 236.106C208.239 235.551 207.81 234.863 207.277 234.043C206.745 233.223 206.293 232.55 205.922 232.025C205.631 231.599 205.302 231.199 204.941 230.83C204.741 230.606 204.478 230.448 204.187 230.376C203.943 230.362 203.701 230.427 203.496 230.561C203.292 230.696 203.135 230.893 203.05 231.123C202.998 231.42 203.036 231.726 203.159 232.001C203.349 232.481 203.58 232.944 203.851 233.384C204.179 233.94 204.609 234.627 205.14 235.446C205.672 236.265 206.124 236.938 206.497 237.464Z" fill="#7A8AAC"/>
<path d="M209.696 223.302L217.733 230.866L217.764 230.841L212.09 221.352L215.209 218.812L221.882 232.103L218.101 235.18L206.623 225.8L209.696 223.302Z" fill="#7A8AAC"/>
<path d="M218.118 215.896L228.026 226.502L225.28 229.098L215.371 218.492L218.118 215.896Z" fill="#7A8AAC"/>
<path d="M222.909 210.852C223.471 210.155 224.221 209.635 225.069 209.355C225.762 209.172 226.492 209.194 227.173 209.42C227.929 209.677 228.634 210.066 229.257 210.569C229.946 211.108 230.641 211.698 231.342 212.337C232.043 212.977 232.693 213.616 233.292 214.256C233.848 214.832 234.3 215.501 234.627 216.234C234.915 216.894 235.007 217.623 234.892 218.335C234.697 219.21 234.254 220.011 233.618 220.64L229.941 224.715L219.231 214.929L222.909 210.852ZM230.969 219.51C231.178 219.297 231.34 219.04 231.442 218.759C231.473 218.623 231.477 218.482 231.453 218.344C231.43 218.206 231.378 218.075 231.303 217.957C231.063 217.554 230.771 217.185 230.433 216.86C230.015 216.433 229.447 215.89 228.727 215.232C228.007 214.574 227.416 214.057 226.953 213.68C226.599 213.373 226.206 213.115 225.784 212.914C225.66 212.85 225.525 212.811 225.387 212.801C225.248 212.79 225.109 212.808 224.977 212.853C224.709 212.982 224.471 213.168 224.279 213.397L223.776 213.956L230.465 220.069L230.969 219.51Z" fill="#7A8AAC"/>
<path d="M235.434 202.467L233.931 204.742L231.972 203.435C232.256 203.018 232.502 202.576 232.708 202.116C232.867 201.768 232.966 201.394 232.999 201.013C233.023 200.672 232.964 200.331 232.829 200.018C232.668 199.662 232.456 199.33 232.199 199.036L233.702 196.76L245.656 204.743L243.571 207.902L235.434 202.467Z" fill="#7A8AAC"/>
<path d="M248.008 196.025C248.142 195.989 248.266 195.922 248.371 195.83C248.475 195.738 248.557 195.622 248.609 195.493C248.672 195.371 248.708 195.236 248.716 195.099C248.723 194.962 248.701 194.824 248.652 194.696C248.51 194.359 248.246 194.09 247.913 193.943L245.892 192.861L245.873 192.897C246.106 193.245 246.21 193.664 246.165 194.081C246.128 194.602 245.977 195.109 245.723 195.565C245.507 195.99 245.223 196.375 244.882 196.707C244.563 197.01 244.172 197.226 243.747 197.334C243.25 197.448 242.733 197.444 242.238 197.323C241.55 197.157 240.889 196.896 240.273 196.548C239.524 196.168 238.835 195.679 238.229 195.097C237.761 194.644 237.402 194.089 237.181 193.475C236.987 192.899 236.942 192.283 237.05 191.684C237.179 190.999 237.416 190.338 237.753 189.727C238.085 189.07 238.516 188.467 239.029 187.941C239.472 187.494 240.032 187.181 240.643 187.038C241.34 186.897 242.059 186.917 242.747 187.099C243.704 187.349 244.625 187.722 245.488 188.208L246.883 188.954C247.757 189.414 248.601 189.931 249.408 190.501C250.042 190.936 250.581 191.496 250.993 192.146C251.346 192.733 251.507 193.417 251.451 194.1C251.351 194.979 251.07 195.827 250.628 196.592C250.284 197.286 249.839 197.923 249.305 198.482C248.932 198.871 248.47 199.163 247.96 199.333C247.521 199.466 247.056 199.487 246.608 199.393C246.148 199.296 245.705 199.133 245.292 198.909L246.948 195.778C247.266 195.971 247.637 196.058 248.008 196.025ZM243.171 193.54C243.341 193.55 243.51 193.508 243.656 193.419C243.802 193.33 243.917 193.198 243.986 193.041C244.067 192.896 244.105 192.731 244.094 192.566C244.083 192.4 244.025 192.242 243.926 192.109C243.504 191.631 242.985 191.251 242.404 190.994C241.868 190.658 241.272 190.43 240.65 190.32C240.479 190.309 240.31 190.351 240.164 190.441C240.019 190.53 239.904 190.662 239.835 190.819C239.754 190.963 239.716 191.128 239.727 191.294C239.737 191.459 239.796 191.618 239.895 191.751C240.317 192.228 240.836 192.608 241.417 192.866C241.953 193.201 242.549 193.43 243.171 193.54Z" fill="#7A8AAC"/>
<path d="M51.2855 93.0142C51.662 93.2746 52.1118 93.4059 52.5684 93.3885C52.7072 93.3502 52.8368 93.2839 52.9494 93.1937C53.0621 93.1035 53.1554 92.9913 53.2238 92.8639C53.2922 92.7365 53.3342 92.5964 53.3473 92.4522C53.3603 92.308 53.3443 92.1626 53.3 92.0248C53.0635 91.6314 52.7072 91.3253 52.284 91.1521L43.7758 86.5327L45.4344 83.4404L53.1689 87.6389C53.8763 88.0004 54.5249 88.468 55.0926 89.0256C55.5118 89.4407 55.8235 89.9528 56.0004 90.517C56.1503 91.0474 56.1519 91.609 56.0052 92.1403C55.6376 93.4081 55.0069 94.583 54.1548 95.5876C53.7935 96.0061 53.3245 96.3163 52.7992 96.4839C52.2334 96.6443 51.6372 96.6632 51.0625 96.5389C50.2874 96.3681 49.5427 96.0798 48.8538 95.6837L41.1193 91.4853L42.7785 88.393L51.2855 93.0142Z" fill="#7A8AAC"/>
<path d="M49.289 77.4688L57.3764 80.304L57.3975 80.2732L50.5857 75.5686L52.4343 72.8579L63.489 80.4921L61.3206 83.6703L53.1755 80.8883L53.1539 80.9191L59.9813 85.6364L58.1327 88.3465L47.078 80.7123L49.289 77.4688Z" fill="#7A8AAC"/>
<path d="M56.3833 67.9739L66.8002 76.4705L64.6006 79.1993L54.1861 70.7033L56.3833 67.9739Z" fill="#7A8AAC"/>
<path d="M59.6404 68.6144L57.469 66.5811L63.4061 60.1643L65.578 62.1982L63.7872 64.1335L71.4291 71.2924L69.0497 73.8651L61.4072 66.7075L59.6404 68.6144Z" fill="#7A8AAC"/>
<path d="M70.9242 53.2925L72.8274 55.4328L69.5103 58.418L71.0378 60.1356L74.144 57.3397L75.9727 59.396L72.8659 62.1919L74.6436 64.1913L78.087 61.093L79.9903 63.2333L73.9438 68.6764L65.0034 58.6225L70.9242 53.2925Z" fill="#7A8AAC"/>
<path d="M78.0125 51.4815L76.3473 49.011L83.5612 44.0911L85.2264 46.5616L83.0502 48.0458L88.9115 56.7389L86.0205 58.7112L80.1592 50.018L78.0125 51.4815Z" fill="#7A8AAC"/>
<path d="M87.0635 46.0528C86.7994 45.3173 86.6883 44.5351 86.7371 43.7546C86.7939 43.0986 87.0438 42.4745 87.4549 41.962C88.489 40.8053 89.8852 40.039 91.4117 39.7902C92.0624 39.7193 92.7194 39.8456 93.2981 40.1531C93.9762 40.534 94.5696 41.0506 95.0415 41.6711C96.3432 43.3885 97.3771 45.2955 98.1074 47.3265C98.3706 48.0622 98.4813 48.8443 98.4327 49.6246C98.379 50.2762 98.1233 50.8944 97.7016 51.3918C96.6436 52.5174 95.2592 53.2779 93.746 53.5648C93.1014 53.6515 92.446 53.533 91.8716 53.2261C91.1936 52.8451 90.6003 52.3285 90.1282 51.7081C88.8264 49.9908 87.7926 48.0837 87.0623 46.0528H87.0635ZM92.6543 49.2243C92.8922 49.6399 93.1669 50.0332 93.4749 50.3994C93.6424 50.6214 93.873 50.787 94.1362 50.8741C94.3603 50.9051 94.5884 50.8631 94.7871 50.7543C94.9858 50.6455 95.1447 50.4755 95.2405 50.2693C95.3109 49.9989 95.2979 49.7133 95.2032 49.4505C95.0626 48.9916 94.8815 48.5464 94.6622 48.1199C94.4001 47.5829 94.053 46.9162 93.621 46.1199C93.1889 45.3236 92.8192 44.669 92.5118 44.1562C92.274 43.741 92.0002 43.3478 91.6937 42.9811C91.5255 42.7598 91.2951 42.5944 91.0324 42.5063C90.8082 42.4753 90.58 42.5173 90.3811 42.6261C90.1823 42.7349 90.0234 42.9049 89.9274 43.1111C89.8582 43.3817 89.8714 43.667 89.9653 43.93C90.1059 44.3888 90.287 44.8341 90.5064 45.2605C90.7697 45.7984 91.1171 46.465 91.5488 47.2605C91.9804 48.056 92.3491 48.7106 92.6549 49.2243H92.6543Z" fill="#7A8AAC"/>
<path d="M108.73 32.2759L109.717 34.9702L105.541 36.5172L106.332 38.6806L110.244 37.2291L111.191 39.8176L107.279 41.2691L109.187 46.4817L105.91 47.6961L101.276 35.0373L108.73 32.2759Z" fill="#7A8AAC"/>
<path d="M114.051 30.7327L117.8 43.6848L114.445 44.6663L110.698 31.7148L114.051 30.7327Z" fill="#7A8AAC"/>
<path d="M126.741 34.1397L128.239 41.313L125.923 41.8017L125.607 40.6526L125.57 40.6599C125.526 40.9489 125.416 41.2236 125.247 41.4618C125.088 41.6857 124.887 41.8758 124.655 42.0212C124.413 42.1704 124.155 42.2921 123.886 42.3841C123.604 42.483 123.316 42.5638 123.024 42.626C122.32 42.8117 121.58 42.8117 120.876 42.626C120.302 42.4355 119.806 42.0621 119.462 41.5622C119.039 40.9391 118.723 40.2486 118.528 39.5198C118.283 38.6836 118.046 37.716 117.818 36.6169C117.604 35.6353 117.464 34.6391 117.397 33.6365C117.336 32.8587 117.433 32.0764 117.685 31.3383C117.924 30.6839 118.35 30.1145 118.908 29.7005C119.617 29.2064 120.426 28.8743 121.277 28.7274C121.839 28.6039 122.416 28.5668 122.989 28.6174C123.514 28.6645 124.019 28.8357 124.465 29.1169C124.933 29.4232 125.326 29.8317 125.616 30.312C125.977 30.9215 126.227 31.591 126.354 32.289L123.048 32.9869C122.965 32.4635 122.794 31.9579 122.545 31.4913C122.465 31.3268 122.33 31.1959 122.163 31.1216C121.997 31.0473 121.81 31.0343 121.635 31.0849C121.392 31.1222 121.169 31.2442 121.006 31.4296C120.85 31.6653 120.774 31.9456 120.789 32.2285C120.792 32.708 120.837 33.1862 120.924 33.6577C121.021 34.2479 121.161 34.987 121.345 35.8748C121.528 36.7626 121.693 37.4964 121.841 38.0762C121.95 38.5431 122.099 38.9994 122.288 39.4394C122.386 39.7009 122.56 39.9267 122.787 40.0871C122.991 40.1939 123.227 40.22 123.449 40.1603C123.619 40.1284 123.778 40.0551 123.913 39.9468C124.054 39.8166 124.149 39.6441 124.184 39.4551C124.245 39.1597 124.263 38.857 124.237 38.5564C124.202 38.0809 124.132 37.6085 124.029 37.143L122.816 37.3982L122.331 35.0692L126.741 34.1397Z" fill="#7A8AAC"/>
<path d="M132.011 27.2865L132.505 32.2113L134.634 31.9948L134.141 27.07L137.617 26.7192L138.962 40.14L135.487 40.4926L134.933 34.9667L132.804 35.1832L133.358 40.7091L129.882 41.0617L128.536 27.6409L132.011 27.2865Z" fill="#7A8AAC"/>
<path d="M139.961 29.5913L139.952 26.6061L148.666 26.5789L148.675 29.5641L146.046 29.5719L146.078 40.0765L142.585 40.0874L142.553 29.5828L139.961 29.5913Z" fill="#7A8AAC"/>
<path d="M161.295 30.3675C161.245 30.226 161.155 30.1021 161.037 30.0108C160.919 29.9194 160.777 29.8646 160.628 29.8528C160.404 29.8091 160.172 29.8509 159.976 29.9702C159.759 30.1449 159.6 30.3817 159.519 30.6493C159.36 31.1013 159.24 31.5669 159.163 32.0403C159.055 32.6294 158.938 33.3727 158.811 34.2702C158.685 35.1677 158.593 35.9146 158.534 36.5109C158.478 36.9869 158.464 37.467 158.493 37.9455C158.496 38.225 158.583 38.4971 158.743 38.7256C158.898 38.8944 159.11 38.9993 159.337 39.0202C159.522 39.0534 159.712 39.0236 159.878 38.9355C160.055 38.8171 160.192 38.6467 160.269 38.4474C160.403 38.1327 160.504 37.8047 160.57 37.4689C160.659 37.0552 160.748 36.5311 160.838 35.8964L164.185 36.3736L164.046 37.3649C163.961 38.1527 163.725 38.9163 163.349 39.6129C163.063 40.1266 162.657 40.5625 162.165 40.8829C161.711 41.1669 161.195 41.3357 160.662 41.3746C160.112 41.4178 159.558 41.3997 159.011 41.3208C158.199 41.2308 157.41 40.9957 156.681 40.6265C156.111 40.3195 155.659 39.83 155.397 39.2355C155.107 38.5208 154.967 37.7537 154.984 36.982C154.991 35.9048 155.076 34.8295 155.238 33.7646C155.377 32.6785 155.607 31.6062 155.926 30.5592C156.143 29.8098 156.516 29.1153 157.019 28.5211C157.453 28.0347 158.023 27.693 158.655 27.5419C159.413 27.3823 160.194 27.3673 160.957 27.4978C161.634 27.5776 162.293 27.7749 162.904 28.0808C163.384 28.3257 163.798 28.6823 164.114 29.121C164.407 29.549 164.598 30.04 164.67 30.555C164.752 31.1465 164.747 31.747 164.656 32.3373L164.536 33.1791L161.189 32.7026L161.295 31.9538C161.409 31.4314 161.409 30.89 161.295 30.3675Z" fill="#7A8AAC"/>
<path d="M167.124 32.3262C167.426 31.6063 167.87 30.9559 168.43 30.415C168.913 29.9702 169.518 29.6808 170.165 29.5841C171.705 29.4382 173.247 29.8254 174.538 30.6818C175.064 31.073 175.462 31.6137 175.68 32.2342C175.923 32.9765 176.012 33.7609 175.941 34.5391C175.743 36.6897 175.221 38.7974 174.392 40.7895C174.091 41.5099 173.646 42.1605 173.086 42.7013C172.608 43.1441 172.003 43.4248 171.358 43.5038C169.822 43.6119 168.291 43.2278 166.985 42.4067C166.452 42.0325 166.049 41.4992 165.834 40.8821C165.591 40.1399 165.502 39.3554 165.573 38.5772C165.771 36.4266 166.293 34.3188 167.122 32.3262H167.124ZM169.108 38.4696C169.004 38.9375 168.941 39.4137 168.92 39.8926C168.895 40.171 168.953 40.4505 169.089 40.6946C169.233 40.87 169.43 40.9944 169.649 41.0495C169.869 41.1045 170.1 41.0874 170.31 41.0006C170.543 40.8495 170.726 40.6306 170.833 40.3729C171.038 39.9403 171.205 39.4901 171.331 39.0278C171.499 38.4533 171.693 37.7259 171.911 36.8457C172.129 35.9656 172.297 35.2324 172.417 34.6461C172.521 34.1783 172.584 33.7021 172.605 33.2231C172.63 32.945 172.571 32.6658 172.437 32.4217C172.292 32.2465 172.096 32.1223 171.876 32.0673C171.656 32.0122 171.425 32.0292 171.216 32.1157C170.982 32.2671 170.8 32.4859 170.692 32.7435C170.487 33.176 170.32 33.6261 170.194 34.0885C170.027 34.6631 169.834 35.3902 169.615 36.27C169.396 37.1497 169.226 37.8829 169.105 38.4696H169.108Z" fill="#7A8AAC"/>
<path d="M182.232 32.9549L180.123 42.9943L180.158 43.007L184.917 33.9298L188.413 35.1999L181.139 46.8976L176.9 45.3566L178.791 31.7012L182.232 32.9549Z" fill="#7A8AAC"/>
<path d="M193.022 37.3504L187.547 49.6639L184.361 48.2287L189.837 35.9153L193.022 37.3504Z" fill="#7A8AAC"/>
<path d="M199.979 40.9166C200.727 41.2727 201.356 41.8382 201.791 42.5453C202.107 43.1329 202.248 43.8001 202.195 44.4661C202.13 45.2076 201.936 45.9319 201.623 46.6064C201.291 47.3491 200.915 48.1077 200.497 48.8822C200.079 49.6568 199.648 50.3853 199.206 51.0679C198.812 51.698 198.312 52.254 197.727 52.7105C197.199 53.1158 196.566 53.3588 195.903 53.4103C195.076 53.4255 194.262 53.1997 193.559 52.7601L189.11 50.3186L195.528 38.4751L199.979 40.9166ZM193.991 50.113C194.228 50.2556 194.493 50.3455 194.767 50.3767C194.896 50.3753 195.023 50.3479 195.141 50.2959C195.259 50.244 195.366 50.1686 195.454 50.0743C195.763 49.769 196.03 49.4231 196.247 49.0462C196.538 48.5748 196.899 47.941 197.329 47.1447C197.76 46.3484 198.094 45.6995 198.332 45.1979C198.529 44.81 198.673 44.397 198.761 43.9702C198.791 43.8444 198.796 43.7138 198.776 43.586C198.755 43.4582 198.709 43.3359 198.641 43.2263C198.465 43.0109 198.247 42.8358 197.998 42.7128L197.389 42.379L193.38 49.7767L193.991 50.113Z" fill="#7A8AAC"/>
<path d="M210.417 52.8335L208.413 51.3022L209.731 49.5574C210.098 49.845 210.489 50.1002 210.9 50.32C211.211 50.4877 211.548 50.6008 211.897 50.6545C212.208 50.6971 212.526 50.6627 212.821 50.5541C213.159 50.4256 213.475 50.2481 213.761 50.0273L215.765 51.558L207.725 62.2107L204.947 60.0855L210.417 52.8335Z" fill="#7A8AAC"/>
<path d="M214.672 65.3048C214.672 65.4345 214.702 65.5624 214.759 65.6785C214.817 65.7946 214.9 65.8957 215.003 65.9737C215.097 66.0594 215.208 66.1241 215.329 66.1633C215.449 66.2025 215.577 66.2154 215.703 66.2011C216.036 66.1545 216.338 65.9814 216.548 65.7172L217.991 64.1514L217.964 64.1254C217.599 64.2536 217.2 64.2473 216.839 64.1079C216.384 63.9504 215.969 63.6949 215.622 63.3592C215.296 63.0627 215.02 62.7141 214.806 62.3274C214.611 61.9682 214.511 61.5646 214.516 61.1553C214.532 60.6804 214.658 60.2158 214.883 59.7982C215.194 59.2177 215.583 58.6832 216.039 58.21C216.555 57.6251 217.154 57.1201 217.817 56.7114C218.331 56.3963 218.91 56.205 219.51 56.1526C220.068 56.114 220.626 56.2191 221.133 56.458C221.713 56.7368 222.245 57.1069 222.71 57.5544C223.216 58.0098 223.65 58.54 223.998 59.1269C224.291 59.6323 224.437 60.2102 224.419 60.7949C224.38 61.4556 224.19 62.0985 223.865 62.6739C223.415 63.4776 222.865 64.2199 222.228 64.8826L221.232 65.9634C220.616 66.6418 219.956 67.2788 219.257 67.8703C218.72 68.3389 218.094 68.6924 217.417 68.9093C216.81 69.0887 216.163 69.0716 215.567 68.8603C214.809 68.5608 214.12 68.1068 213.544 67.5267C213.008 67.0536 212.545 66.5012 212.173 65.8884C211.915 65.4598 211.765 64.9746 211.734 64.4744C211.719 64.0475 211.811 63.6236 212 63.2412C212.196 62.85 212.446 62.4891 212.744 62.1696L215.141 64.4073C214.894 64.6487 214.73 64.9631 214.672 65.3048ZM218.032 61.5339C217.982 61.6849 217.979 61.8476 218.024 62.0001C218.069 62.1526 218.16 62.2875 218.283 62.3867C218.393 62.4936 218.53 62.5665 218.679 62.5963C218.829 62.6261 218.984 62.6117 219.125 62.5548C219.65 62.2877 220.112 61.9098 220.479 61.4468C220.905 61.0423 221.25 60.5595 221.495 60.0244C221.545 59.8735 221.547 59.7109 221.502 59.5585C221.458 59.4061 221.367 59.2711 221.244 59.1716C221.135 59.0647 220.997 58.992 220.848 58.9621C220.699 58.9323 220.544 58.9467 220.403 59.0035C219.878 59.2706 219.416 59.6486 219.049 60.1115C218.623 60.515 218.277 60.997 218.032 61.5315V61.5339Z" fill="#7A8AAC"/>
<path d="M117.904 184.266C117.596 186.465 119.675 189.277 116.272 190.681C116.314 188.444 116.873 186.248 117.904 184.266Z" fill="#7A8AAC"/>
<path d="M115.848 193.251C116.133 194.522 116.345 195.782 115.159 196.759C115.105 195.536 114.84 194.268 115.848 193.251Z" fill="#7A8AAC"/>
<path d="M184.82 197.617C185.018 197.279 185.216 196.94 185.414 196.601C186.178 196.917 187.083 197.337 186.271 198.254C185.784 198.803 185.149 198.225 184.82 197.617Z" fill="#7A8AAC"/>
<path d="M157.097 100.937L156.4 99.1542C155.351 99.713 156.039 101.55 154.356 101.409C153.411 101.331 152.242 102.334 151.59 100.7L151.47 101.896L148.253 102.487L147.707 100.903C147.083 103.503 145.083 102.987 143.629 103.273C138.082 104.367 132.5 105.281 126.926 106.237C126.514 106.232 126.105 106.165 125.712 106.038C125.453 106.25 125.156 106.411 124.838 106.513C118.955 107.572 113.069 108.612 107.179 109.631C100.897 110.713 94.6045 111.731 88.3254 112.83C82.1605 113.908 76.01 115.067 69.8469 116.161C66.4378 116.766 63.0166 117.304 59.2245 117.936C67.9413 91.0132 84.7106 71.6642 110.404 60.7696C144.189 46.4422 181.815 55.0423 205.886 78.6858L205.01 80.528C205.668 80.5685 206.132 80.7403 206.444 80.5885C207.566 80.0532 208.14 80.7741 208.739 81.4708C211.27 84.4117 213.797 87.3566 216.318 90.3056L216.145 90.6932L157.097 100.937ZM111.129 88.643L112.845 87.0585L113.881 87.7842C114.164 87.382 114.675 86.9593 114.602 86.7077C114.199 85.3167 114.754 84.3266 116.008 83.4086L114.431 82.6828C114.114 83.3263 113.964 84.1567 113.606 84.2595C112.588 84.5528 112.638 85.3959 112.308 86.0775C112.093 86.5456 111.774 86.9579 111.376 87.2828C110.801 87.7171 110.662 88.1096 111.129 88.643ZM85.9063 110.954C87.7098 109.99 87.8174 108.035 88.8298 106.455C87.4273 106.697 87.4273 106.697 87.6623 107.967L86.2195 107.598L84.6138 106.364L84.2718 106.677C85.1356 107.963 86.5051 109.075 85.9063 110.954ZM193.585 81.7986L193.628 82.2577L194.915 83.4848L195.388 82.7863C195.519 83.6535 194.571 84.6871 195.923 85.1975C196.716 85.4999 197.565 85.6517 198.387 85.8719L198.564 85.278C198.069 85.047 197.557 84.8548 197.033 84.7028C196.187 84.5214 195.726 84.2087 196.011 83.2169C196.089 82.6373 196.097 82.0504 196.035 81.469L193.585 81.7986ZM151.84 73.3226L152.106 73.6945C152.256 73.4036 152.41 73.1139 152.557 72.8212C153.263 71.4193 153.967 70.0162 154.697 68.5617L153.549 67.8922L152.283 71.4888L152.043 71.3806L151.84 73.3226ZM143.512 98.5597L142.314 99.4892L144.026 102.318C145.086 100.639 145.086 100.639 143.512 98.5597ZM89.3041 103.359L92.1548 102.578C92.1085 101.304 91.9985 101.21 89.9155 100.804L89.3041 103.359ZM143.709 70.0827L143.341 70.2345V74.4838C144.429 74.2104 144.836 73.752 144.423 72.7789C144.292 72.3608 144.192 71.934 144.122 71.5016C144.002 71.025 143.851 70.5551 143.711 70.0827H143.709ZM167.615 92.3261C166.561 93.9766 167.043 95.2684 169.02 95.7057C168.526 94.5191 168.075 93.4335 167.615 92.3261ZM116.254 93.0138L119.36 93.3107C118.887 92.7023 118.651 92.3376 118.356 92.0322C118.167 91.8822 117.941 91.7878 117.703 91.7595C117.464 91.7312 117.222 91.7701 117.004 91.8719C116.787 91.9737 116.601 92.1343 116.468 92.3359C116.336 92.5375 116.262 92.7722 116.254 93.0138ZM90.6988 73.4526C89.9449 74.3447 89.6864 75.1889 90.6248 75.9751C90.7198 76.055 91.3156 75.778 91.4304 75.5433C91.85 74.687 91.7947 73.908 90.6988 73.4526ZM145.152 82.6199C144.833 81.8597 144.589 81.2785 144.328 80.6574L142.961 81.0457L144.109 83.013L145.152 82.6199ZM170.744 75.9673L169.301 72.7389L168.96 72.8883C168.806 73.3604 168.788 73.8669 168.909 74.3488C169.03 74.8306 169.285 75.268 169.643 75.6099C169.846 75.807 170.236 75.8119 170.741 75.9673H170.744ZM106.831 107.325L104.615 107.227V109.152L104.871 109.356L106.831 107.325ZM96.4374 103.769L96.0972 103.83C96.2174 104.829 96.3376 105.826 96.4825 107.012C97.4209 105.876 97.4209 105.876 96.4374 103.769ZM78.9641 104.469L79.4264 104.341C79.2262 103.659 79.0375 102.972 78.7958 102.303C78.7832 102.27 78.1345 102.339 78.0937 102.467C78.0177 102.656 77.98 102.858 77.9828 103.062C77.9857 103.265 78.029 103.467 78.1102 103.653C78.1914 103.84 78.3089 104.009 78.4557 104.149C78.6026 104.289 78.7758 104.399 78.9653 104.471L78.9641 104.469ZM122.393 84.1682C123.154 83.2386 123.047 82.4966 122.071 81.8125C121.735 81.6527 121.369 81.565 120.998 81.5549C120.94 81.6854 120.895 81.8208 120.862 81.9595C121.185 82.0557 121.509 82.1482 121.83 82.251C121.895 82.2827 121.956 82.3234 122.01 82.372C122.13 82.9314 122.248 83.4842 122.394 84.17L122.393 84.1682ZM125.404 93.1795C125.288 92.4954 125.138 91.8175 124.954 91.1486C124.669 91.139 124.383 91.1716 124.107 91.2454C124.132 91.9826 124.046 92.8069 125.406 93.1855L125.404 93.1795ZM117.481 100.884L117.714 101.108L118.796 100.328C118.661 99.5557 118.568 99.0211 118.465 98.4333C118.13 99.2769 117.806 100.08 117.482 100.888L117.481 100.884ZM135.767 78.5679L135.727 78.8969L137.448 80.1337L137.74 80.0127C137.65 79.6498 137.666 79.0723 137.449 78.9634C136.907 78.7612 136.342 78.6287 135.768 78.5691L135.767 78.5679ZM113.562 74.1578L113.988 73.9201V72.018C113.483 72.3864 112.939 72.6392 112.966 72.791C113.105 73.2713 113.305 73.7313 113.563 74.159L113.562 74.1578ZM89.7561 87.2006L89.6149 84.6665L88.3795 85.1606L89.7561 87.2006ZM83.3412 101.563C82.1232 104.028 82.1232 104.028 83.1747 104.475C83.2282 103.604 83.2769 102.754 83.3448 101.564L83.3412 101.563ZM86.4901 104.681L86.6752 105.07C87.7615 105.433 88.1571 104.678 88.4017 103.657L86.4901 104.681ZM158.492 93.246L158.016 93.1293C157.342 93.5 157.381 94.0631 158.165 94.8106C158.274 94.2917 158.383 93.7702 158.492 93.246Z" fill="#7A8AAC"/>
<path d="M171.692 186.642L171.997 187.825C172.203 187.733 172.429 187.699 172.453 187.61C172.814 186.279 173.904 186.188 174.992 186.006C179.613 185.228 184.228 184.419 188.846 183.622C195.094 182.543 201.343 181.463 207.591 180.382C210.693 179.843 213.792 179.285 216.894 178.745C217.366 178.663 217.848 178.635 218.375 178.576C217.495 180.359 217.667 180.801 219.609 181.055L218.713 178.46L226.569 177.082C225.859 178.706 225.349 180.101 224.659 181.398C223.694 183.208 222.567 184.929 221.561 186.72C220.698 188.254 219.994 189.885 219.069 191.377C215.721 196.699 211.775 201.617 207.31 206.032C206.997 206.234 206.621 206.313 206.254 206.252C205.532 206.192 204.825 206.033 204.056 205.905C203.6 207.021 204.549 207.376 205.267 208.056L200.384 212.417C200.214 211.886 200.108 211.554 199.958 211.086C199.714 211.419 199.373 211.67 199.391 211.893C199.526 213.639 198.078 214.171 197.05 214.934C191.221 219.249 184.89 222.832 178.198 225.605C173.1 227.772 167.787 229.383 162.349 230.41C158.342 231.176 154.287 231.656 150.214 231.846C144.93 232.12 139.634 232.024 134.364 231.559C129.396 230.952 124.482 229.967 119.663 228.611C113.246 226.842 107.08 224.258 101.313 220.921C95.1208 217.481 89.3788 213.277 84.2206 208.407C83.3159 207.546 82.2584 206.865 81.8057 205.494C81.6536 205.034 81.1487 203.74 79.867 203.977C79.5772 204.031 79.163 203.404 78.5156 202.836L171.692 186.642ZM207.105 191.114V188.418L207.361 188.397L207.902 189.313C208.623 187.79 207.56 186.772 207.099 185.623C207.06 185.526 206.619 185.456 206.582 185.514C206.047 186.216 205.605 186.984 205.266 187.801C205.086 188.362 205.365 189.071 205.416 189.516C206.055 190.121 206.575 190.612 207.105 191.114ZM179.916 211.421C180.517 211.466 181.583 211.647 181.616 211.531C181.892 210.751 181.971 209.915 181.845 209.098C181.74 208.662 180.907 208.406 180.26 207.974C180.128 209.295 180.033 210.247 179.916 211.421ZM124.303 217.251C122.525 218.448 122.162 220.214 123.386 221.197C123.684 219.917 123.982 218.633 124.303 217.251V217.251ZM201.392 207.49C201.596 207.024 201.738 206.651 201.919 206.298C202.141 205.966 202.337 205.617 202.507 205.255C202.582 204.97 202.553 204.668 202.427 204.403C202.376 204.297 201.959 204.26 201.779 204.342C201.07 204.672 200.804 206.677 201.392 207.49ZM168.645 197.038L167.323 198.109C167.709 198.628 168.054 198.911 168.152 199.264C168.249 199.86 168.289 200.464 168.272 201.068C168.622 200.9 168.946 200.682 169.234 200.419C169.276 200.308 169.29 200.188 169.275 200.069C169.26 199.951 169.216 199.838 169.147 199.741C168.509 198.996 168.505 199.015 168.637 198.199C168.663 197.812 168.666 197.424 168.645 197.036V197.038ZM135.113 212.133V214.279C136.113 214.104 136.8 213.87 136.338 213.017L135.113 212.133ZM177.654 204.532L177.936 204.264L176.143 202.361L174.935 203.51L175.168 203.767L175.613 203.483L177.654 204.532ZM184.527 215.848L184.439 215.405L182.683 214.516L182.335 214.811C182.588 215.344 182.922 215.834 183.326 216.262C183.506 216.404 184.115 216.002 184.528 215.848H184.527ZM103.61 220.276L106.056 218.618C104.029 218.386 103.817 218.527 103.612 220.276H103.61ZM94.5233 201.157L94.2263 201.036L92.6789 202.814L93.7153 203.25L94.5233 201.157ZM155.104 230.956L155.536 230.814C155.304 230.107 155.073 229.4 154.842 228.693L154.377 228.846C154.321 229.648 154.107 230.5 155.104 230.956ZM195.342 186.681L194.44 184.008C194.227 184.311 194.11 184.672 194.104 185.043C194.097 185.415 194.202 185.779 194.404 186.09C194.53 186.364 194.999 186.479 195.342 186.682V186.681ZM132.782 224.634L133.297 224.411L132.816 222.873L132.025 223.286L132.782 224.634ZM115.319 208.59C115.051 208.146 114.815 207.754 114.454 207.153L113.414 208.977L115.319 208.59Z" fill="#7A8AAC"/>
<path d="M226.371 44.742L208.858 32.2876C209.011 32.2768 209.195 32.2544 209.379 32.2514C210.244 32.238 210.838 31.949 210.725 30.9305C210.704 30.2845 210.618 29.6423 210.467 29.0139C210.342 28.6329 209.901 28.3565 209.618 28.0505C208.752 28.8101 210.589 30.7575 208.219 30.3451V32.0494L191.945 24.0886L192.83 23.5243L191.226 21.6833C191.407 22.6238 191.536 23.3023 191.701 24.1629C189.647 23.4124 187.704 22.6806 185.75 21.9912C179.576 19.8246 173.232 18.1873 166.784 17.0966C163.122 16.4707 159.396 16.2058 155.752 15.5024C154.378 15.2375 153.062 15.6439 151.754 15.321C151.215 15.157 150.687 14.9605 150.172 14.7325C149.741 14.956 149.274 15.1006 148.794 15.1595C144.044 14.9436 139.313 15.2502 134.574 15.4274C134.002 15.4486 133.409 14.9049 132.862 14.6412C132.91 14.8226 132.998 15.1553 133.163 15.7848L130.307 15.35C129.964 15.5919 129.666 15.9687 129.33 16.0068C121.923 16.8986 114.605 18.4262 107.456 20.5729C107.163 20.6588 106.769 20.3915 106.474 20.3038C105.58 22.0522 103.518 21.3041 102.253 22.2942L102.002 22.1012L103.228 18.4931C102.162 18.1187 101.816 18.2929 101.533 19.3283C101.31 20.1411 101.062 20.9461 100.824 21.7547L100.502 21.6942L100.857 22.7078C98.1321 23.863 95.4413 24.9389 92.8058 26.1388C90.0507 27.3931 87.3076 28.6898 84.6427 30.1243C83.5299 30.7237 82.8711 30.743 82.3384 29.1815C81.9603 30.2435 81.8677 31.1694 81.37 31.7318C80.7538 32.4292 79.8022 32.8271 78.9936 33.3508C76.2836 35.1047 73.5789 36.8683 70.8563 38.6028C70.4436 38.8152 70.0126 38.9895 69.5686 39.1235C69.3474 39.2118 69.0149 39.2445 68.926 39.4072C67.6702 41.7265 65.1988 42.673 63.3983 44.3773C61.2341 46.4251 58.9233 48.3169 56.6539 50.2957L55.4041 49.4025C55.3055 49.8458 55.124 50.1609 55.2129 50.3411C55.7954 51.521 54.937 52.1053 54.2781 52.7699C48.7786 58.3263 43.785 64.3673 39.3573 70.8204C33.7903 78.8949 29.2156 87.6179 25.7333 96.7989C23.845 101.788 22.3187 106.935 20.9324 112.093C19.8816 116.002 19.2985 120.038 18.538 124.024C18.4232 124.629 18.3228 125.083 17.5978 125.206C12.9839 125.993 8.37598 126.806 3.64185 127.356C4.97703 126.268 6.30319 125.174 7.64978 124.104C9.95763 122.268 10.4103 120.065 9.04327 117.427C7.96479 115.345 6.89413 113.258 5.88058 111.143C4.79849 108.885 5.58661 106.648 7.78084 105.472C9.45507 104.573 11.1281 103.672 12.7735 102.723C13.6945 102.156 14.393 101.287 14.7509 100.262C15.1088 99.2376 15.1043 98.1201 14.7381 97.0983C13.9812 94.6985 13.2255 92.2987 12.4927 89.8917C11.7256 87.3715 12.7284 85.4653 15.1769 84.6028C16.9279 83.9851 18.6644 83.3251 20.3866 82.6228C22.6764 81.6902 23.6424 80.1341 23.3725 77.6448C23.1004 75.1401 22.7529 72.6444 22.3301 70.1575C21.9009 67.6374 23.0725 65.7184 25.5577 65.1868C27.2165 64.8324 28.8817 64.5098 30.5534 64.2191C33.5706 63.6869 35.0344 61.9663 35.0621 58.848C35.0849 56.5069 35.0681 54.1652 35.1222 51.8246C35.1823 49.114 36.565 47.7599 39.2702 47.6407C41.1296 47.5591 42.9871 47.4454 44.8459 47.3535C45.8845 47.3482 46.8883 46.9763 47.6824 46.3028C48.4764 45.6293 49.0104 44.6968 49.1911 43.6679C49.5909 41.7646 49.8692 39.8354 50.2479 37.6473L52.4326 39.178C53.1293 38.7008 50.6712 37.6358 52.8143 37.1852C52.5583 37.0869 52.296 37.0061 52.0292 36.9433C51.5789 37.9714 50.9844 37.2517 50.2486 37.0902C50.5672 35.9411 50.8744 34.8326 51.2104 33.6103L52.4728 34.4528C51.5921 33.1597 52.2113 32.7485 53.0175 32.5779C53.6859 32.4214 54.3758 32.3805 55.0578 32.457C56.7549 32.688 58.4544 32.9535 60.1214 33.3412C61.8906 33.7524 65.0737 31.9931 65.7122 30.1316C66.2761 28.4866 66.843 26.8427 67.4189 25.1681C68.5863 26.2241 68.611 26.6535 67.5938 28.4944L68.6945 29.0194C68.923 27.8975 69.1346 26.9202 69.3173 25.935C69.4514 25.2092 69.541 24.5313 68.6344 24.1406C68.48 24.0277 68.3539 23.8802 68.2661 23.7097C68.1783 23.5392 68.1313 23.3504 68.1288 23.1584C68.1811 21.6168 69.7039 19.9857 71.2489 19.7111C72.3784 19.5085 72.6171 19.7474 72.6958 21.009C72.7271 21.514 72.0977 22.4653 73.1467 22.3843C73.7509 22.3377 74.3214 21.5775 74.8576 21.084C74.9893 20.963 74.9286 20.6298 74.97 20.2808C76.2066 20.6364 77.356 20.9727 78.5085 21.2975C81.2407 22.0674 83.23 21.1638 84.5201 18.6364C85.6823 16.3507 86.8716 14.0785 88.0879 11.8199C88.5741 11.0233 89.3236 10.4243 90.2048 10.1281C91.0861 9.83181 92.0429 9.85715 92.9074 10.1996C94.4584 10.8812 95.998 11.5907 97.5285 12.3212C101.021 13.9826 102.932 13.4008 105.122 10.1821C106.466 8.20567 107.939 6.31148 109.435 4.44692C109.945 3.79995 110.677 3.36702 111.487 3.23224C112.297 3.09745 113.128 3.27042 113.819 3.71755C115.322 4.68521 116.65 5.93893 118.19 6.83099C119.262 7.48057 120.472 7.8664 121.721 7.9571C122.834 7.97318 123.92 7.61092 124.803 6.92896C126.816 5.24947 128.66 3.35649 130.502 1.47984C132.385 -0.439144 134.633 -0.510507 136.555 1.37522C137.188 1.99694 137.895 2.54366 138.513 3.17929C138.892 3.62442 139.241 4.09524 139.557 4.58844C139.868 4.65332 140.165 4.77332 140.434 4.94284C142.65 6.82554 144.646 6.89026 147.029 5.15634C148.992 3.72743 150.969 2.31747 152.96 0.926462C153.352 0.619316 153.802 0.3934 154.282 0.261729C154.762 0.130057 155.263 0.0952319 155.756 0.159262C156.25 0.223293 156.726 0.384914 157.157 0.634811C157.588 0.884707 157.965 1.21794 158.268 1.61531C159.575 3.16175 160.796 4.78258 162.084 6.34595C162.761 7.24855 163.743 7.8699 164.845 8.09209C165.946 8.31428 167.091 8.12184 168.061 7.55129C170.365 6.38204 172.684 5.24 175.016 4.12518C175.843 3.67166 176.815 3.56215 177.722 3.82009C178.629 4.07803 179.399 4.68292 179.869 5.5053C180.974 7.25131 181.967 9.0693 183.022 10.848C184.417 13.2 186.17 13.8792 188.709 13.076C191.092 12.3216 193.475 11.5691 195.859 10.8183C196.341 10.6281 196.857 10.5382 197.375 10.5543C197.893 10.5704 198.402 10.692 198.872 10.9119C199.342 11.1317 199.762 11.4451 200.108 11.8332C200.454 12.2213 200.718 12.676 200.884 13.1697C201.544 14.7825 202.157 16.4154 202.721 18.0685C203.305 19.7661 204.184 21.1287 206.011 21.6821C206.3 21.8396 206.519 22.1032 206.62 22.4181C206.926 23.2996 207.285 24.1612 207.696 24.9982C208.575 23.9144 207.552 23.0387 207.354 21.9742C207.968 21.8636 208.556 21.7414 209.145 21.6549C211.465 21.3174 213.784 20.9812 216.107 20.6643C218.045 20.3994 219.578 21.7287 220.288 23.5497C221.515 26.6994 219.525 28.2634 217.529 29.7875C217.173 29.9841 216.907 30.3111 216.784 30.7004C216.662 31.0898 216.693 31.5115 216.872 31.8782C218.069 32.0125 217.335 29.8703 218.976 30.235C219.577 30.368 219.994 28.4956 221.318 28.8615C221.859 32.0615 223.953 33.7688 227.173 33.5184C228.216 33.4367 229.271 33.5051 230.331 33.5051L230.922 36.2097L231.171 36.1867L231.836 33.7712C235.269 33.0388 237.355 34.1897 237.807 37.0685L236.254 38.2659L236.325 38.555L237.828 38.3131C237.948 39.8704 238.104 41.4755 238.178 43.0843C238.304 45.8203 239.701 47.4502 242.392 47.9002C244.741 48.2927 247.093 48.6719 249.442 49.0674C251.995 49.498 253.147 50.8485 252.997 53.4062C252.877 55.4346 252.627 57.4582 252.423 59.4788C252.269 60.5326 252.492 61.6074 253.053 62.5108C253.614 63.4142 254.476 64.0873 255.485 64.4096C258.076 65.3053 260.674 66.1805 263.265 67.0749C265.148 67.7251 266.097 69.7541 265.532 71.8527C264.986 73.8806 264.4 75.8994 263.934 77.9459C263.757 78.6427 263.754 79.373 263.927 80.071C264.1 80.769 264.443 81.4127 264.924 81.9442C262.965 82.9258 262.494 82.7909 261.498 81.0219C261.083 80.2859 260.678 79.545 260.217 78.714C260.051 78.9828 259.905 79.2638 259.781 79.5547C259.328 80.9499 258.372 81.6013 256.943 81.3823C256.434 81.3189 255.967 81.065 255.635 80.6711C253.095 76.7219 250.58 72.7545 248.128 68.7478C245.478 64.4157 242 60.7543 238.618 57.0482C235.211 53.3154 231.428 49.9305 227.845 46.3568C227.53 45.898 227.283 45.3956 227.111 44.8654C226.976 44.6306 226.826 44.404 226.664 44.1868L226.371 44.742ZM12.919 120.23C12.8469 119.643 12.7224 119.065 12.5468 118.501C12.4867 118.347 11.9577 118.377 11.6451 118.323L11.511 118.641L12.946 120.214C13.0727 120.712 13.301 121.178 13.6165 121.583C13.9319 121.987 14.3276 122.321 14.7783 122.563C14.4627 121.525 14.0978 120.531 12.919 120.23ZM72.4848 35.9224L75.0097 34.789C74.5256 34.0825 73.9971 33.4078 73.4275 32.7691C72.652 31.9961 72.0448 32.2441 71.6985 33.2783C71.3048 34.4449 71.5837 35.3261 72.4848 35.9218V35.9224ZM56.1934 34.3929C56.4783 35.1577 56.7191 35.9384 56.9148 36.731C57.1426 37.9248 57.5761 38.2393 58.9341 38.0011C58.7447 36.7455 56.7609 34.2296 56.194 34.3923L56.1934 34.3929ZM115.865 16.0147L116.06 15.6627L112.494 12.5111L112.161 12.7047C112.136 13.1429 112.111 13.5812 112.086 14.0195L112.391 13.789L115.865 16.0147ZM202.38 23.7559C202.184 24.0583 201.874 24.3232 201.914 24.5131C202.129 25.5413 202.05 26.7678 203.569 27.1173C203.203 26.0795 202.832 25.0369 202.38 23.7608V23.7559ZM235.798 34.8574L235.416 34.5314C235.074 34.8519 234.412 35.2281 234.454 35.4821C234.647 36.0735 234.933 36.6298 235.301 37.1296L235.589 36.9681L235.798 34.8574ZM218.703 26.296C218.883 25.1143 218.56 24.4466 217.403 24.1188C217.37 25.1469 217.511 25.918 218.703 26.296ZM228.554 37.5221L228.313 37.5444L227.408 40.3585L228.791 39.8747L228.554 37.5221ZM249.238 55.3427L249.503 55.4999C249.697 55.1685 250.124 54.7439 250.038 54.5238C249.764 54.0036 249.425 53.5208 249.029 53.0874L248.81 53.2084C248.952 53.918 249.095 54.6286 249.238 55.3403V55.3427ZM135.284 10.8304C135.022 11.8428 134.853 12.4942 134.654 13.2647L136.111 13.174L135.284 10.8304ZM216.14 32.0832C216.055 32.2526 215.756 32.5749 215.817 32.7999C215.87 32.9647 215.96 33.115 216.08 33.2395C216.2 33.3639 216.346 33.4591 216.508 33.5178C216.832 33.5837 217.218 33.346 217.464 33.2759L216.14 32.0832ZM243.982 59.9088L244.309 60.1169C244.544 59.8374 245.03 59.4558 244.965 59.2974C244.733 58.9061 244.437 58.557 244.089 58.265L243.758 58.5263C243.832 58.9843 243.907 59.4437 243.982 59.9046V59.9088ZM212.311 33.444L213.8 33.9599C213.92 33.4555 214.023 33.0158 214.127 32.5767L213.829 32.3263L212.311 33.444ZM207.932 28.1146C207.574 27.2776 207.358 26.7726 207.03 26.0112L206.276 27.5497L207.932 28.1146ZM208.321 27.0804L208.657 27.2455C208.864 26.9558 209.27 26.6305 209.227 26.3837C209.17 26.0559 208.764 25.7892 208.506 25.4959L208.155 25.7166L208.321 27.0804Z" fill="#7A8AAC"/>
<path d="M201.513 257.553C201.203 260.061 203.578 259.379 204.59 260.496C204.949 259.794 205.135 259.015 205.133 258.226C205.13 257.436 204.938 256.659 204.573 255.96C205.274 255.567 205.99 255.204 206.666 254.777C207.393 254.318 207.735 254.679 207.877 255.335C208.013 255.96 208.037 256.61 208.129 257.416C209.363 256.592 210.53 255.833 211.676 255.04C213.071 254.073 214.437 253.063 215.84 252.108C216.187 251.933 216.555 251.801 216.934 251.717C216.814 251.427 216.633 251.028 216.492 250.615C216.137 249.576 216.228 248.8 217.286 248.067C226.402 241.718 234.637 234.177 241.776 225.641C244.103 222.89 246.288 220.021 248.323 217.045C251.192 212.822 254.191 208.627 256.494 204.091C259.49 198.187 261.853 191.959 264.506 185.879C264.723 185.487 264.978 185.119 265.268 184.778C265.607 185.138 265.92 185.522 266.204 185.927C266.391 186.318 266.538 186.727 266.645 187.147C267.066 185.938 266.551 184.949 265.119 184.071C265.225 183.711 265.325 183.325 265.454 182.949C265.583 182.572 265.743 182.197 265.932 181.711C266.086 181.933 266.195 182.091 266.305 182.249H266.584C266.584 181.852 266.752 181.293 266.555 181.086C265.704 180.192 266.605 180.128 267.129 179.797C266.683 179.244 266.307 178.658 267.295 178.267C267.347 178.239 267.392 178.198 267.425 178.148C267.458 178.098 267.478 178.04 267.484 177.98C267.097 175.633 269.268 174.291 269.696 172.264C269.833 171.926 269.926 171.571 269.973 171.209C269.863 169.731 270.71 169.29 271.967 169.118C274.006 168.841 276.036 168.488 278.237 168.14C279.274 170.272 280.485 172.388 281.346 174.64C282.188 176.839 281.155 178.534 278.71 179.818C277.137 180.645 275.594 181.528 274.081 182.466C273.208 182.991 272.544 183.806 272.201 184.769C271.859 185.733 271.86 186.786 272.204 187.749C272.993 190.307 273.799 192.859 274.581 195.419C274.877 196.359 274.8 197.378 274.367 198.264C273.935 199.149 273.179 199.832 272.258 200.171C270.412 200.883 268.586 201.658 266.712 202.287C265.627 202.683 264.718 203.455 264.147 204.464C263.576 205.473 263.381 206.653 263.597 207.794C264.061 210.146 264.403 212.522 264.619 214.91C264.709 215.596 264.696 216.291 264.579 216.972C264.519 217.305 264.092 217.571 263.68 217.765C263.575 219.119 262.707 219.519 261.5 219.729C259.473 220.078 257.462 220.526 255.455 220.984C254.468 221.241 253.592 221.814 252.959 222.618C252.326 223.421 251.97 224.41 251.947 225.435C251.881 228.081 251.859 230.729 251.822 233.377C251.788 235.767 250.396 237.2 247.998 237.341C245.821 237.468 243.64 237.558 241.472 237.781C240.564 237.891 239.715 238.289 239.046 238.917C238.378 239.545 237.926 240.371 237.756 241.275C237.308 243.794 236.877 246.317 236.48 248.844C236.033 251.681 234.436 252.93 231.575 252.608C229.888 252.418 228.194 252.263 226.516 252.006C225.354 251.798 224.156 252.026 223.15 252.648C222.144 253.269 221.399 254.24 221.058 255.377C220.336 257.902 219.426 260.376 218.512 262.84C217.73 264.948 215.976 265.752 213.848 265.168C211.823 264.613 209.788 264.092 207.751 263.588C206.765 263.336 205.724 263.431 204.8 263.857C203.875 264.283 203.124 265.014 202.669 265.928C201.448 268.308 200.315 270.744 198.935 273.027C197.709 275.053 196.09 275.869 193.094 274.438C191.634 273.741 190.141 273.108 188.692 272.391C186.287 271.198 183.999 271.96 182.926 273.54C181.964 274.955 180.401 274.877 179.053 275.682C178.972 276.273 178.93 276.869 178.925 277.465C179.003 279.288 178.003 280.458 176.592 281.304C175.18 282.151 173.813 281.861 172.504 280.935C171.514 280.234 170.476 279.604 169.46 278.939C168.684 278.355 167.862 277.835 167.003 277.384C165.966 277.028 164.904 276.749 163.826 276.551C161.376 278.876 158.712 281.413 156.038 283.939C155.373 284.577 154.502 284.952 153.585 284.996C152.668 285.039 151.766 284.749 151.044 284.177C149.531 282.9 148.049 281.577 146.67 280.154C146.25 279.718 146.209 278.905 145.964 278.175C144.409 278.49 142.537 278.577 140.924 279.277C139.292 279.987 137.93 281.317 136.429 282.345C135.338 283.173 134.183 283.911 132.975 284.553C132.275 284.9 131.476 284.989 130.718 284.804C129.96 284.619 129.291 284.172 128.827 283.541C127.51 282.004 126.274 280.396 125.012 278.813C123.389 276.776 121.108 276.315 118.75 277.51C116.441 278.68 114.137 279.864 111.782 280.936C109.75 281.86 107.885 281.031 106.796 279.069C105.697 276.955 104.447 274.923 103.056 272.99C101.98 271.58 100.255 271.312 98.5186 271.841C96.0088 272.609 93.505 273.396 90.9999 274.181C88.8766 274.847 87.0203 274.06 86.1462 271.967C85.2252 269.762 84.4341 267.502 83.5708 265.226C84.9403 263.593 85.0605 261.152 84.0048 259.799C83.3103 260.152 82.6371 260.545 81.9886 260.977C81.8238 261.098 81.6854 261.251 81.582 261.428C81.4786 261.605 81.4123 261.801 81.3874 262.005C81.4815 262.54 81.655 263.057 81.902 263.539C80.8391 263.462 80.1304 263.221 80.1538 262.003C80.1616 261.592 79.8082 261.175 79.5352 260.574C79.4335 260.739 79.3491 260.915 79.2833 261.098C79.0363 263.212 79.0351 263.191 76.9154 263.472C74.9917 263.727 73.0782 264.043 71.1581 264.318C68.8959 264.641 67.2355 263.562 66.7095 261.363C66.258 259.467 65.8925 257.553 65.4879 255.643C64.9162 252.945 63.1897 251.515 60.4556 251.492C58.0666 251.471 55.6776 251.472 53.2886 251.454C50.7637 251.435 49.2843 250.056 49.1238 247.548C49.0067 245.721 48.911 243.893 48.8364 242.063C48.7018 238.628 46.6554 237.407 43.9941 237.003C41.6387 236.646 39.2908 236.243 36.9503 235.794C36.4769 235.725 36.0221 235.561 35.6124 235.313C35.2027 235.064 34.8464 234.736 34.5643 234.348C34.2823 233.959 34.0803 233.517 33.97 233.049C33.8597 232.581 33.8435 232.095 33.9222 231.621C34.1152 229.637 34.2745 227.646 34.5709 225.677C34.8474 223.841 33.9253 222.439 32.9904 221.108C32.6598 220.637 31.6823 220.629 31.0066 220.398C30.3177 220.164 29.6348 219.914 28.9116 219.658L28.9801 218.797C28.8112 218.788 28.6916 218.751 28.6651 218.785C28.1842 219.409 27.6251 219.292 26.9891 219.046C25.9719 218.652 24.9229 218.345 23.8967 217.974C22.0013 217.288 21.5239 216.506 21.6424 214.395C21.6484 214.281 21.468 214.17 21.4265 214.04C21.2215 213.395 21.2714 212.809 22.0584 212.67C26.4697 211.888 30.8828 211.116 35.3055 210.401C35.5248 210.4 35.7415 210.449 35.9393 210.544C36.1372 210.639 36.311 210.778 36.4477 210.951C38.1815 213.445 39.8765 215.966 41.5329 218.514C42.1341 219.434 42.0902 220.837 43.5348 221.089C47.7189 225.861 51.7665 230.765 56.1387 235.357C58.8301 238.183 62.0301 240.519 64.9721 243.106C65.4465 243.588 65.8821 244.107 66.2749 244.658C66.7543 244.818 67.2188 245.021 67.6629 245.263C72.1548 248.209 76.5463 251.322 81.1337 254.108C88.0869 258.24 95.454 261.622 103.113 264.197C104.332 264.621 105.58 264.966 106.786 265.425C107.397 265.721 107.984 266.067 108.541 266.458C109.548 265.498 110.676 266.706 111.857 266.881C113.376 267.086 114.87 267.456 116.31 267.985C118.058 268.661 119.942 268.453 121.669 269.064C122.6 269.393 123.485 269.853 124.442 270.277L124.555 269.65C128.47 269.892 132.25 270.898 136.272 270.803L135.936 271.751L139.046 272.1C139.115 270.798 140.188 271.011 141.205 271.026C142.986 271.058 144.778 270.921 146.547 271.077C149.021 271.295 151.449 270.729 154.001 270.844C154.316 271.662 154.702 272.642 155.869 272.074C156.246 271.893 156.396 271.236 156.808 270.524C164.496 269.741 172.101 268.283 179.536 266.165C187.105 263.967 194.46 261.084 201.513 257.553ZM42.4978 226.147L42.404 227.01C42.7845 227.01 43.1044 227.017 43.426 227.01C44.3409 226.988 44.4137 226.242 44.3668 225.653C44.2652 225.006 44.0606 224.381 43.7608 223.8C43.6352 223.558 43.4227 223.372 43.1663 223.282C43.0581 223.269 42.9485 223.285 42.8481 223.327C42.7476 223.37 42.6597 223.437 42.5928 223.524C42.172 224.472 41.8113 225.445 41.4259 226.409L41.688 226.556L42.4978 226.147ZM41.7097 234.478L44.7756 233.847C44.8447 233.274 45.6172 232.22 43.9081 232.663L44.0644 231.742H42.6162L41.7097 234.478ZM127.655 275.746C129.11 276.011 129.225 275.832 129.639 272.687C128.857 272.911 127.794 272.221 127.348 273.562C129.237 274.093 127.86 274.998 127.655 275.746ZM266.303 192.22C267.261 191.098 267.355 189.993 266.674 189.448C266.542 189.34 266.389 189.26 266.225 189.215C266.06 189.17 265.888 189.16 265.72 189.186C265.592 189.284 265.492 189.412 265.429 189.56C265.366 189.708 265.342 189.869 265.359 190.029C265.631 190.777 265.946 191.509 266.303 192.22ZM111.625 272.686L113.825 270.259C113.426 269.95 112.984 269.703 112.514 269.524C112.255 269.475 111.68 269.786 111.665 269.97C111.582 271.007 111.625 272.054 111.625 272.686ZM116.654 270.267L116.258 270.497C116.589 271.269 116.871 272.062 117.1 272.871C117.477 274.568 117.435 274.578 118.381 274.821L116.654 270.267ZM172.34 271.702L172.712 271.837C173.056 271.306 173.313 270.723 173.472 270.109C173.503 269.817 172.866 269.453 172.34 268.932V271.702ZM73.8801 257.989L73.9312 258.302L75.5387 258.006L75.1071 256.323L73.8801 257.989ZM130.357 274.85L130.79 276.938C131.823 276.039 131.898 275.317 130.357 274.852V274.85ZM138.321 276.094L139.991 278.409C140.068 277.865 140.321 277.293 140.144 277.07C139.726 276.547 139.306 275.767 138.321 276.095V276.094ZM132.336 280.117L132.649 280.094C132.794 279.381 132.938 278.668 133.114 277.796L131.474 278.516L132.336 280.117ZM71.9925 252.59L72.4632 252.689C72.6583 252.079 72.8228 251.46 72.9561 250.833C72.9766 250.719 72.6225 250.47 72.4073 250.41C72.3129 250.385 72.0261 250.68 72.0117 250.846C71.9612 251.426 71.9925 252.009 71.9925 252.59ZM168.706 277.447V275.232C167.394 276.201 167.431 276.845 168.706 277.445V277.447ZM99.3074 266.017L99.6326 266.494L101.234 265.654L100.742 264.794L99.3074 266.017ZM223.631 247.631L223.723 247.032C222.311 247.655 222.881 246.253 222.242 245.894C222.152 246.548 222.074 247.112 221.961 247.946L223.631 247.631ZM225.175 249.956C226.669 249.029 226.798 248.596 226.157 247.637C226.027 247.981 225.897 248.354 225.746 248.718C225.611 249.039 225.452 249.355 225.175 249.954V249.956ZM233.41 243.068C233.761 243.511 234.055 244.047 234.181 244.01C234.587 243.833 234.965 243.596 235.302 243.308L235.159 243.066L233.41 243.068ZM113.37 279.151C113.189 278.462 113.046 277.916 112.889 277.309C111.897 278.525 111.947 278.708 113.37 279.151Z" fill="#7A8AAC"/>
<path d="M108.322 191.445C109.914 190.192 111.725 189.765 113.733 189.523C117.173 189.11 120.563 188.291 123.98 187.675C128.391 186.878 132.808 186.112 137.223 185.335C142.714 184.367 148.204 183.403 153.695 182.442C157.475 181.782 161.258 181.131 165.042 180.489C165.229 180.457 165.423 180.46 165.666 180.443C165.739 181.011 165.805 181.519 165.873 182.045C166.004 181.996 166.129 181.981 166.136 181.944C166.5 180.055 166.513 180.154 168.51 179.846C172.342 179.255 176.155 178.545 179.976 177.876C184.471 177.09 188.955 176.233 193.462 175.521C196.583 175.027 199.679 174.401 202.79 173.863C203.469 173.793 204.155 173.87 204.802 174.09C205.26 173.848 205.384 172.875 206.482 173.552C206.853 173.78 207.741 173.018 208.425 172.896C213.069 172.06 217.722 171.274 222.222 170.498C222.258 171.045 222.375 171.585 222.57 172.098C222.668 172.274 223.291 172.155 223.674 172.17C223.643 171.577 223.614 170.984 223.577 170.325C225.501 169.573 226.634 169.654 227.244 170.889C227.393 169.229 228.623 169.317 229.621 169.142C236.655 167.905 243.681 166.636 250.735 165.541C252.269 165.303 253.75 164.854 255.293 164.674C257.017 164.474 258.72 164.11 260.433 163.805C262.103 163.508 263.764 163.151 265.441 162.909C266.202 162.799 266.997 162.95 267.768 162.886C268.112 162.789 268.435 162.63 268.724 162.418C269.768 164.862 269.505 165.797 267.829 166.075L267.05 165.055L266.689 165.101C266.888 166.229 266.296 166.351 265.473 166.48C260.454 167.266 255.44 168.087 250.438 168.977C244.21 170.084 238.002 171.313 231.773 172.413C223.976 173.79 216.163 175.074 208.362 176.428C202.24 177.492 196.13 178.633 190.007 179.694C186.099 180.369 182.174 180.909 178.273 181.598C172.91 182.545 167.568 183.606 162.207 184.561C155.884 185.69 149.55 186.752 143.223 187.859C135.464 189.215 127.707 190.579 119.95 191.951C115.141 192.793 110.325 193.601 105.522 194.466C104.614 194.63 104.326 194.243 104.324 193.462C104.353 193.084 104.411 192.709 104.5 192.341C103.647 192.091 103.077 192.117 103.057 193.242C102.993 193.794 102.869 194.336 102.687 194.861L94.2318 196.442L93.9372 195.378C93.5326 195.533 93.0571 195.567 92.8431 195.822C91.5337 197.384 90.4384 197.408 89.1694 195.836C89.1279 195.784 89.0221 195.785 88.5953 195.654L88.8868 197.348C87.6358 197.583 86.1852 197.88 84.7262 198.128C81.9609 198.599 79.1829 199.02 76.4182 199.504C70.6903 200.506 64.9697 201.547 59.2425 202.552C52.1668 203.793 45.0858 205.006 38.0101 206.249C32.8005 207.163 27.5962 208.113 22.3878 209.031C18.889 209.649 15.3855 210.234 11.8873 210.857C11.2519 210.97 10.8611 210.84 10.7782 210.144C10.6778 209.303 10.569 208.463 10.4482 207.495C13.3157 206.996 16.087 206.512 18.859 206.032C24.7876 205.004 30.7186 203.994 36.6443 202.948C42.9679 201.834 49.2831 200.673 55.6085 199.57C63.4836 198.195 71.3628 196.842 79.246 195.51C86.0872 194.339 92.932 193.188 99.7714 192.007C102.05 191.614 104.311 191.115 106.594 190.753C107.163 190.763 107.726 190.866 108.261 191.06L108.322 191.445ZM222.02 172.789L222.04 172.378C221.693 172.143 221.307 171.971 220.901 171.868C220.655 171.849 220.377 172.225 220.114 172.424C220.449 172.715 220.823 172.959 221.223 173.15C221.424 173.218 221.749 172.921 222.02 172.789Z" fill="#7A8AAC"/>
<path d="M73.8116 203.476C74.3111 203.692 74.9598 203.775 75.288 204.145C80.5313 210.064 86.4818 215.308 93.0042 219.758C99.5206 224.21 106.583 227.794 114.014 230.421C119.618 232.386 125.397 233.804 131.27 234.655C136.716 235.441 142.218 235.751 147.716 235.581C153.372 235.379 158.997 234.646 164.518 233.392C171.185 231.932 177.663 229.705 183.824 226.756C190.475 223.598 196.722 219.642 202.428 214.975C214.143 205.448 223.358 193.178 229.267 179.239C229.483 178.849 229.66 178.438 229.795 178.013C229.867 177.549 230.088 177.121 230.426 176.796C230.763 176.471 231.197 176.267 231.662 176.215C231.365 177.081 231.14 177.872 230.827 178.625C228.245 184.848 225.032 190.787 221.237 196.345C220.049 198.085 218.748 199.746 217.468 201.42C217.251 201.647 216.972 201.803 216.666 201.868C216.28 201.914 215.927 202.108 215.68 202.41C215.434 202.712 215.313 203.098 215.343 203.488C215.303 203.881 215.133 204.249 214.862 204.535C208.416 212.116 200.728 218.532 192.131 223.505C187.624 226.036 182.993 228.338 178.255 230.399C175.478 231.626 172.452 232.303 169.511 233.129C166.613 233.943 163.71 234.809 160.754 235.345C151.427 237.044 141.893 237.273 132.496 236.023C115.595 233.796 99.6209 226.967 86.2964 216.274C81.6623 212.618 77.4184 208.487 73.633 203.948L73.8116 203.476Z" fill="#7A8AAC"/>
<path d="M68.9698 44.344C68.1354 45.1399 67.3467 45.9963 66.4594 46.7232C59.1634 52.7042 52.5641 59.4971 46.7876 66.9721C40.2265 75.4337 34.7931 84.7218 30.6255 94.6005C27.4112 102.228 24.9592 110.159 23.3057 118.275C22.9529 119.983 22.6956 121.712 22.4316 123.437C22.318 124.184 22.0631 124.686 21.0267 124.544C21.4476 122.163 21.7944 119.775 22.297 117.422C23.6825 110.829 25.5855 104.358 27.9882 98.0684C30.1731 92.1212 32.8977 86.3891 36.1273 80.9444C39.3272 75.7372 42.7046 70.6177 46.3422 65.7135C49.0474 62.0636 52.2888 58.8129 55.3151 55.4061C55.5117 55.1848 55.9126 55.1467 56.2168 55.0245C56.3551 54.9695 56.5931 54.9459 56.6184 54.8594C57.2929 52.5038 59.4258 51.4121 61.0069 49.8935C63.2438 47.7429 65.7308 45.8554 68.1282 43.8408L68.9969 44.3688L68.9698 44.344Z" fill="#7A8AAC"/>
<path d="M266.346 170.32C260.394 196.028 247.897 217.775 228.607 235.618L228.17 234.62C230.554 232.163 233.099 229.847 235.282 227.226C239.292 222.411 243.324 217.582 246.9 212.445C249.887 208.01 252.596 203.392 255.012 198.618C258.3 192.331 260.922 185.713 262.833 178.873C263.547 176.333 264.228 173.788 264.953 171.253C265.12 170.671 265.331 170.022 266.346 170.32Z" fill="#7A8AAC"/>
<path d="M209.362 248.668C209.427 249.134 209.491 249.599 209.588 250.291L208.536 249.788L208.717 250.068C208.086 250.661 207.414 251.206 206.705 251.701C199.367 256.057 191.575 259.59 183.47 262.236C177.276 264.344 170.905 265.888 164.436 266.848C160.481 267.412 156.514 268.039 152.533 268.234C147.644 268.475 142.734 268.29 137.731 268.29L137.563 267.24C137.727 267.214 137.893 267.2 138.06 267.198C146.574 267.735 155.03 267.09 163.454 265.888C165.051 265.66 166.628 265.283 168.214 264.98C169.133 264.804 170.056 265.01 171.002 264.503C171.964 263.985 173.175 263.946 174.271 263.669C175.326 263.401 176.371 263.093 177.423 262.81C183.481 261.24 189.376 259.09 195.028 256.391C199.845 254.038 204.523 251.395 209.259 248.874C209.316 248.845 209.332 248.738 209.367 248.667L209.362 248.668Z" fill="#7A8AAC"/>
<path d="M197.738 67.5373C193.404 64.9616 189.163 62.2086 184.713 59.8566C178.917 56.7972 172.733 54.549 166.332 53.1743C162.273 52.2967 158.181 51.5014 154.063 51.0007C150.705 50.5924 147.287 50.6741 143.896 50.5429C143.576 50.5775 143.253 50.5723 142.934 50.5271C142.626 50.3852 142.338 50.2022 142.078 49.9828C142.359 49.7748 142.642 49.3829 142.92 49.3865C146.074 49.43 149.245 49.3575 152.377 49.6665C156.186 50.0421 159.989 50.6124 163.747 51.3496C170.495 52.6297 177.044 54.8111 183.218 57.836C187.727 60.0737 192.013 62.7632 196.443 65.1623C197.509 65.7387 197.345 66.7433 197.72 67.567L197.738 67.5373Z" fill="#7A8AAC"/>
<path d="M206.789 35.6975C204.097 34.2224 201.491 32.5478 198.693 31.3152C193.697 29.1132 188.594 27.1573 183.517 25.1464C182.057 24.5682 180.481 24.2701 179.054 23.6296C176.317 22.4013 173.343 22.1606 170.486 21.577C165.19 20.4944 159.8 19.866 154.435 19.1542C152.517 18.8996 150.559 18.9347 148.619 18.8681C147.887 18.8427 147.553 18.5972 147.904 17.6301C150.79 17.8116 153.726 17.9833 156.658 18.1811C157.343 18.2354 158.024 18.3272 158.698 18.4563C158.948 18.501 159.334 18.6129 159.388 18.7823C159.738 19.8709 160.294 19.4566 160.92 19.0895C161.198 18.9108 161.527 18.8285 161.856 18.8554C165.883 19.6041 169.932 20.2755 173.926 21.1863C180.681 22.7519 187.277 24.9458 193.629 27.7397C195.345 28.4866 196.958 29.4688 198.637 30.3046C199.142 30.4512 199.64 30.6232 200.128 30.8199C200.445 31.0237 201.37 31.0013 200.83 31.8662C200.822 31.8789 201.202 32.2248 201.277 32.1843C201.465 32.0809 201.583 31.8468 201.794 31.5844C203.515 32.881 206.142 33.0498 206.762 35.732L206.789 35.6975Z" fill="#7A8AAC"/>
<path d="M82.7021 73.4797C82.4959 73.9732 82.4177 74.604 82.063 74.9391C76.6348 80.0346 71.8132 85.7471 67.6953 91.962C63.1659 98.7818 59.5859 106.193 57.0548 113.99C56.634 115.301 56.2991 116.641 55.823 117.93C55.6998 118.14 55.5313 118.319 55.3301 118.454C55.1288 118.589 54.9 118.677 54.6604 118.712C59.3356 100.724 68.6355 85.6577 82.2302 73.2542L82.7021 73.4797Z" fill="#7A8AAC"/>
<path d="M58.7964 232.841C60.0384 233.884 61.3123 234.892 62.5176 235.975C71.4269 243.994 81.4755 250.631 92.3315 255.667C96.0587 257.399 99.8875 258.908 103.703 260.533C103.157 261.208 102.441 261.233 101.573 260.896C91.3252 256.965 81.5419 252.107 72.7127 245.53C67.8655 241.919 63.3238 237.892 58.6527 234.042C58.4592 233.84 58.2906 233.614 58.1508 233.37L58.7964 232.841Z" fill="#7A8AAC"/>
<path d="M126.147 52.2815C124.394 52.6988 122.629 53.0726 120.891 53.5461C119.179 54.013 117.524 54.7557 115.789 55.0581C114.035 55.3605 112.572 56.2622 110.975 56.8785C109.321 57.5159 107.693 58.2259 106.085 58.9741C104.437 59.7401 102.811 60.5534 101.207 61.4138C99.6412 62.2516 98.0982 63.1344 96.5781 64.0621C95.0259 65.0074 93.4905 65.9853 91.9972 67.0207C90.537 68.0331 89.1183 69.1103 87.7182 70.2068C86.2886 71.3268 84.9035 72.5049 83.4259 73.7175L82.6774 73.019C82.7462 72.8971 82.829 72.7836 82.9239 72.6809C85.9399 70.3041 88.8754 67.8148 92.0152 65.6122C93.44 64.5388 94.935 63.5633 96.4903 62.6923C98.1399 61.8395 99.7119 60.8368 101.356 59.9708C103.037 59.0878 104.742 58.2542 106.474 57.47C111.982 54.9383 117.743 53.0049 123.658 51.7027C124.163 51.5414 124.685 51.4425 125.213 51.4082C125.556 51.4221 125.886 51.7584 126.221 51.9525L126.147 52.2815Z" fill="#7A8AAC"/>
<path d="M285.312 159.458C286.128 160.486 285.384 162.15 287.092 162.697L270.413 165.625C269.586 163.655 270.413 162.034 272.393 161.69C276.725 160.939 281.058 160.192 285.312 159.458Z" fill="#7A8AAC"/>
<path d="M97.8742 116.119C99.4661 114.865 101.277 114.439 103.285 114.197C106.724 113.783 110.115 112.965 113.531 112.348C117.943 111.552 122.36 110.785 126.775 110.009C132.266 109.041 137.756 108.077 143.247 107.116C147.028 106.457 150.811 105.805 154.594 105.16C154.782 105.128 154.976 105.131 155.219 105.114C155.292 105.682 155.357 106.191 155.425 106.716C155.557 106.667 155.681 106.652 155.688 106.615C156.052 104.726 156.066 104.825 158.062 104.517C161.894 103.926 165.708 103.217 169.528 102.547C174.023 101.761 178.508 100.904 183.015 100.192C186.136 99.6985 189.231 99.0732 192.343 98.5349C193.022 98.4641 193.708 98.5415 194.355 98.7617C194.813 98.5198 194.936 97.5467 196.035 98.2229C196.406 98.4515 197.293 97.69 197.978 97.5667C202.621 96.7308 207.274 95.9452 211.775 95.1693C211.81 95.717 211.928 96.2562 212.122 96.7689C212.221 96.9455 212.844 96.8258 213.227 96.8409C213.195 96.2482 213.166 95.6562 213.13 94.9957C215.053 94.244 216.187 94.3262 216.797 95.5612C216.946 93.9005 218.176 93.9887 219.174 93.8128C226.207 92.5772 233.234 91.3077 240.288 90.2125C241.821 89.9742 243.303 89.5248 244.846 89.3458C246.569 89.1456 248.272 88.7815 249.985 88.4767C251.655 88.1792 253.316 87.823 254.994 87.5804C255.754 87.471 256.55 87.6216 257.321 87.5581C257.665 87.4603 257.988 87.3016 258.276 87.0894C259.321 89.5327 259.058 90.4689 257.381 90.7465L256.603 89.7262L256.242 89.7722C256.44 90.9007 255.848 91.0217 255.025 91.1511C250.006 91.9373 244.992 92.758 239.99 93.6482C233.762 94.7556 227.554 95.9839 221.325 97.084C213.528 98.4611 205.715 99.7451 197.915 101.099C191.792 102.164 185.682 103.304 179.559 104.365C175.654 105.041 171.726 105.58 167.825 106.269C162.462 107.216 157.12 108.277 151.759 109.232C145.436 110.362 139.102 111.424 132.775 112.53C125.016 113.887 117.258 115.251 109.502 116.622C104.693 117.465 99.8773 118.272 95.074 119.138C94.1663 119.301 93.8783 118.915 93.8759 118.133C93.9045 117.755 93.9632 117.381 94.0515 117.012C93.199 116.763 92.6285 116.788 92.6087 117.913C92.5444 118.465 92.4205 119.008 92.2389 119.532L83.7836 121.113L83.4891 120.05C83.0845 120.205 82.609 120.238 82.395 120.494C81.0856 122.056 79.9903 122.08 78.7213 120.507C78.6798 120.455 78.574 120.457 78.1472 120.325L78.4387 122.019C77.1877 122.255 75.7371 122.551 74.2781 122.8C71.5128 123.271 68.7348 123.692 65.9701 124.175C60.2422 125.178 54.5216 126.218 48.7943 127.223C41.7187 128.465 34.6376 129.678 27.562 130.92C22.3523 131.835 17.1487 132.784 11.9396 133.702C8.44088 134.32 4.93733 134.906 1.43978 135.528C0.804354 135.642 0.412999 135.512 0.330039 134.815C0.229645 133.974 0.120833 133.135 0 132.166C2.86753 131.668 5.63888 131.184 8.41143 130.704C14.3395 129.676 20.2705 128.665 26.1961 127.62C32.5197 126.507 38.8349 125.344 45.1603 124.241C53.0359 122.867 60.9151 121.514 68.7979 120.181C75.6391 119.012 82.4839 117.86 89.3233 116.68C91.6023 116.286 93.8633 115.788 96.1459 115.425C96.7147 115.434 97.2781 115.538 97.8135 115.731L97.8742 116.119ZM211.57 97.4626L211.591 97.0514C211.243 96.8168 210.858 96.6446 210.452 96.5422C210.206 96.5228 209.928 96.8984 209.665 97.0973C210 97.3886 210.373 97.6327 210.774 97.8231C210.977 97.892 211.301 97.5945 211.57 97.4626Z" fill="#7A8AAC"/>
<path d="M274.862 84.1309C275.679 85.159 274.934 86.8234 276.642 87.3701L259.962 90.2991C259.135 88.3287 259.962 86.7072 261.941 86.3643C266.276 85.6126 270.61 84.8657 274.862 84.1309Z" fill="#7A8AAC"/>
<path d="M238.984 76.6906C236.905 78.2213 235.999 79.9848 236.261 82.5691C234.14 81.3426 232.15 80.7898 229.769 82.1397C230.373 79.6177 230.31 77.5591 228.278 75.5965C230.93 75.4931 232.797 74.6458 234.021 72.2097C234.853 74.7232 236.355 76.1759 238.984 76.6906Z" fill="#7A8AAC"/>
<path d="M62.1791 207.42C61.7036 209.658 61.9344 211.654 63.7121 213.534C61.2173 213.781 59.2166 214.372 58.1249 216.704C57.1913 214.473 55.8249 212.947 53.098 212.55C55.1299 210.917 56.2499 209.175 55.8477 206.623C57.0284 207.134 57.944 207.768 58.9226 207.888C59.9013 208.009 60.9443 207.622 62.1791 207.42Z" fill="#7A8AAC"/>
<path d="M46.3278 105.049L45.3154 106.512L44.8561 106.397L47.2818 110.802C45.0064 111.03 42.9132 111.511 41.6952 114.185C40.9252 111.519 39.5864 109.966 36.8781 109.449C39.0309 107.923 40.0535 106.145 39.8461 103.49C41.9062 105.041 43.9201 105.395 46.1228 104.544L46.3278 105.049Z" fill="#7A8AAC"/>
<path d="M247.892 173.374C248.629 175.952 249.989 177.479 252.48 177.974C251.556 178.961 250.644 179.612 250.201 180.5C249.75 181.402 249.761 182.539 249.524 183.82C247.627 182.532 245.677 181.873 243.326 183.094C243.529 181.737 243.945 180.728 243.743 179.867C243.482 178.761 244.948 178.476 244.5 177.412L243.013 177.835L242.245 176.608C244.615 176.519 246.569 175.808 247.892 173.374Z" fill="#7A8AAC"/>
<path d="M254.533 83.9035L253.651 84.2059C251.01 80.0734 248.504 76.0123 245.859 72.0443C241.7 65.9517 236.972 60.2726 231.74 55.0843C231.505 54.8051 231.247 54.5468 230.967 54.3126C230.519 54.0502 230.17 53.6459 229.974 53.1627C229.778 52.6795 229.747 52.1447 229.885 51.6418C239.776 60.9884 248.1 71.883 254.533 83.9035Z" fill="#7A8AAC"/>
<path d="M102.614 24.8665C114.495 20.5992 126.954 18.1852 139.56 17.7083C139.889 18.5235 139.706 18.9396 138.931 18.9178C137.512 18.8809 136.093 18.7412 134.675 18.7545C134.151 18.7594 133.641 19.1779 133.105 19.2384C125.358 20.1093 117.686 21.3648 110.214 23.6732C108.327 24.2563 106.446 24.8695 104.534 25.3667C103.913 25.4271 103.286 25.3926 102.675 25.2644L102.614 24.8665Z" fill="#7A8AAC"/>
<path d="M266.959 89.1206C267.271 87.9757 267.583 86.8309 267.94 85.5221L274.473 84.373L275.122 87.8379C273.129 88.1923 271.172 88.5557 269.21 88.8817C268.466 89.0027 267.707 89.0408 266.958 89.117L266.959 89.1206Z" fill="#7A8AAC"/>
<path d="M221.171 89.7061C220.273 90.2184 219.816 89.7708 219.311 89.1618C216.185 85.3946 213.054 81.6334 209.863 77.9231C209.318 77.2887 209.164 76.794 209.648 76.012C213.928 80.1837 217.788 84.7707 221.171 89.7061Z" fill="#7A8AAC"/>
<path d="M68.9974 44.3679C68.9692 43.2188 69.6347 42.5608 70.5605 42.0352C71.5343 41.483 72.4962 40.9 73.413 40.2583C74.4115 39.5592 75.3277 38.7397 76.3262 38.04C77.3482 37.3233 78.4224 36.6774 79.4847 36.0182C80.5469 35.359 81.6224 34.7239 82.7538 34.0405C83.1975 34.6453 83.4211 35.1291 82.5915 35.5035C81.81 35.8555 81.0086 36.1651 80.2536 36.5667C79.9434 36.7312 79.7726 37.1382 79.4721 37.3469C76.1344 39.6854 72.788 42.011 69.4327 44.3237C69.3257 44.3981 69.1321 44.3425 68.9728 44.3455L68.9974 44.3679Z" fill="#7A8AAC"/>
<path d="M104.682 262.115C104.834 261.079 105.216 260.932 105.977 261.151C109.688 262.219 113.414 263.232 117.137 264.258C117.721 264.368 118.296 264.519 118.859 264.71C119.202 264.934 119.506 265.212 119.761 265.535L119.452 266.103L104.682 262.115Z" fill="#7A8AAC"/>
<path d="M126.746 51.1313C131.583 50.0424 136.518 49.4577 141.474 49.3865L141.582 50.3705L126.854 51.8697L126.746 51.1313Z" fill="#7A8AAC"/>
<path d="M206.762 35.7308C207.833 34.8635 208.685 35.4423 209.61 36.0822C212.824 38.3126 216.07 40.4971 219.3 42.7016C219.497 42.8584 219.683 43.0287 219.857 43.2114C219.54 43.4414 219.152 43.5495 218.763 43.5162C218.374 43.4829 218.01 43.3104 217.737 43.03C216.228 41.8809 214.628 40.8527 213.105 39.7248C212.672 39.3306 212.28 38.8926 211.936 38.4179C211.471 38.3557 211.016 38.2298 210.584 38.0435C209.295 37.3045 208.054 36.4814 206.791 35.6933L206.762 35.7308Z" fill="#7A8AAC"/>
<path d="M47.3672 220.08L46.338 220.707L46.5688 219.696C45.194 219.855 44.9836 218.627 44.4588 217.921C42.5314 215.331 40.7165 212.657 38.791 209.916C39.5154 209.59 39.9152 209.347 40.4226 210.098C42.6908 213.443 45.0335 216.739 47.3672 220.08Z" fill="#7A8AAC"/>
<path d="M219.938 242.998L218.986 242.258L227.547 235.147L227.89 235.394C227.561 236.105 227.137 236.768 226.628 237.363C224.454 239.288 222.193 241.116 219.938 242.998Z" fill="#7A8AAC"/>
<path d="M121.927 265.464L132.747 266.819L132.863 267.213C132.51 267.424 132.131 267.849 131.806 267.811C128.45 267.419 125.103 266.952 121.666 266.495C121.802 265.953 121.884 265.629 121.927 265.464Z" fill="#7A8AAC"/>
<path d="M221.383 44.2031C224.047 46.8509 227.515 48.6931 229.389 52.1077L229.111 52.3956L220.411 44.9234L221.383 44.2031Z" fill="#7A8AAC"/>
<path d="M58.7964 232.841L58.1507 233.374C56.6256 231.885 55.0848 230.414 53.5819 228.901C52.706 228.019 51.8987 227.07 51.0607 226.154L51.6769 225.216C53.9709 227.574 56.2635 229.934 58.5547 232.297C58.665 232.463 58.7467 232.647 58.7964 232.841Z" fill="#7A8AAC"/>
<path d="M200.78 68.2339C202.223 69.4882 203.663 70.748 205.113 71.9938C205.658 72.4855 206.23 72.9453 206.828 73.3709C207.859 74.0695 208.571 74.9168 208.412 76.3773C207.162 75.2464 205.955 74.1221 204.713 73.0395C203.588 72.0598 202.39 71.1617 201.292 70.1523C200.899 69.6954 200.562 69.1922 200.29 68.6536L200.78 68.2339Z" fill="#7A8AAC"/>
<path d="M141.205 17.5203C141.909 17.7705 142.633 17.9611 143.369 18.09C143.91 18.0426 144.44 17.908 144.938 17.6914L145.471 18.6101C143.111 19.1665 141.397 18.8931 141.205 17.5203Z" fill="#7A8AAC"/>
<path d="M218.623 242.334C219.084 243.775 218.467 244.489 216.155 245.512C215.78 243.485 217.837 243.538 218.623 242.334Z" fill="#7A8AAC"/>
<path d="M133.96 266.842L136.635 267.153V268.271L134.212 268.037L133.96 266.842Z" fill="#7A8AAC"/>
<path d="M48.6218 221.62C49.8422 222.562 50.4956 223.603 50.1944 225.274C49.8674 224.706 49.6264 224.275 49.3727 223.852C49.1394 223.462 48.8917 223.081 48.6513 222.696L48.2689 222.839L48.6218 221.62Z" fill="#7A8AAC"/>
<path d="M197.718 67.5636L198.413 66.3159L200.172 68.7568L199.84 69.0471C199.143 68.5403 198.444 68.0353 197.743 67.5321C197.738 67.5376 197.718 67.5636 197.718 67.5636Z" fill="#7A8AAC"/>
<path d="M209.365 248.667L211.757 247.375C211.374 248.72 210.672 249.099 209.362 248.668L209.365 248.667Z" fill="#7A8AAC"/>
<path d="M111.129 88.6428C110.662 88.1094 110.801 87.7169 111.377 87.2814C111.775 86.9565 112.094 86.5442 112.309 86.0761C112.639 85.3945 112.589 84.5514 113.607 84.2581C113.968 84.1553 114.115 83.3249 114.432 82.6814L116.009 83.4071C114.755 84.3252 114.2 85.3134 114.603 86.7063C114.675 86.9579 114.164 87.3806 113.882 87.7828L112.846 87.057L111.129 88.6428Z" fill="#7A8AAC"/>
<path d="M85.9063 110.954C86.5075 109.075 85.1362 107.963 84.2742 106.676L84.6162 106.362L86.2219 107.597L87.6647 107.966C87.4296 106.696 87.4296 106.696 88.8321 106.454C87.8174 108.036 87.708 109.99 85.9063 110.954Z" fill="#7A8AAC"/>
<path d="M193.585 81.7986L196.033 81.469C196.096 82.0504 196.088 82.6373 196.01 83.2168C195.727 84.2087 196.19 84.5208 197.032 84.7028C197.556 84.8547 198.068 85.047 198.562 85.2779L198.386 85.8719C197.562 85.6517 196.714 85.4975 195.922 85.1975C194.57 84.6871 195.518 83.6535 195.386 82.7862L194.914 83.4848L193.627 82.2576L193.585 81.7986Z" fill="#7A8AAC"/>
<path d="M151.84 73.3225L152.04 71.3805L152.281 71.4887L153.546 67.8921L154.695 68.5616C153.964 70.0131 153.261 71.4192 152.555 72.8211C152.408 73.1138 152.254 73.4035 152.104 73.6944L151.84 73.3225Z" fill="#7A8AAC"/>
<path d="M143.512 98.5596C145.086 100.639 145.086 100.639 144.026 102.316L142.314 99.4891L143.512 98.5596Z" fill="#7A8AAC"/>
<path d="M89.304 103.359L89.9154 100.804C91.9984 101.21 92.1085 101.303 92.1547 102.578L89.304 103.359Z" fill="#7A8AAC"/>
<path d="M143.711 70.083C143.851 70.5553 144.002 71.0253 144.127 71.5018C144.197 71.9342 144.297 72.3611 144.427 72.7791C144.839 73.7522 144.433 74.2107 143.345 74.484V70.2348L143.711 70.083Z" fill="#7A8AAC"/>
<path d="M167.615 92.3257C168.075 93.4331 168.526 94.5186 169.02 95.7052C167.043 95.268 166.561 93.9762 167.615 92.3257Z" fill="#7A8AAC"/>
<path d="M116.254 93.0136C116.261 92.7717 116.336 92.5365 116.468 92.3345C116.601 92.1324 116.787 91.9715 117.005 91.8696C117.223 91.7678 117.466 91.729 117.704 91.7577C117.943 91.7864 118.17 91.8814 118.358 92.0321C118.654 92.3345 118.89 92.7022 119.363 93.3106L116.254 93.0136Z" fill="#7A8AAC"/>
<path d="M90.6987 73.4526C91.7946 73.908 91.8499 74.687 91.4303 75.5434C91.3155 75.778 90.7198 76.055 90.6248 75.9752C89.6864 75.189 89.9449 74.3447 90.6987 73.4526Z" fill="#7A8AAC"/>
<path d="M145.152 82.6195L144.112 83.0126L142.961 81.0453L144.328 80.657C144.59 81.2781 144.831 81.8593 145.152 82.6195Z" fill="#7A8AAC"/>
<path d="M170.741 75.9673C170.233 75.8119 169.843 75.8071 169.637 75.6087C169.278 75.2668 169.024 74.8295 168.903 74.3476C168.782 73.8658 168.8 73.3593 168.954 72.8872L169.295 72.7378L170.741 75.9673Z" fill="#7A8AAC"/>
<path d="M106.831 107.325L104.87 109.353L104.615 109.149V107.227L106.831 107.325Z" fill="#7A8AAC"/>
<path d="M96.4374 103.769C97.4197 105.874 97.4197 105.874 96.4825 107.014C96.3394 105.829 96.2186 104.831 96.0971 103.832L96.4374 103.769Z" fill="#7A8AAC"/>
<path d="M78.9653 104.471C78.7761 104.398 78.6032 104.289 78.4566 104.149C78.31 104.008 78.1928 103.84 78.1117 103.654C78.0306 103.467 77.9874 103.266 77.9845 103.063C77.9816 102.859 78.0191 102.657 78.0948 102.468C78.1381 102.341 78.7843 102.272 78.797 102.305C79.0374 102.973 79.2274 103.66 79.4276 104.343L78.9653 104.471Z" fill="#7A8AAC"/>
<path d="M122.394 84.1698C122.248 83.484 122.13 82.9312 122.012 82.373C121.958 82.3244 121.897 82.2837 121.832 82.252C121.511 82.1492 121.187 82.0567 120.864 81.9605C120.897 81.8218 120.942 81.6864 121 81.5559C121.371 81.566 121.737 81.6537 122.073 81.8135C123.048 82.4982 123.155 83.2402 122.394 84.1698Z" fill="#7A8AAC"/>
<path d="M125.405 93.1851C124.046 92.8089 124.132 91.9846 124.108 91.2498C124.384 91.176 124.67 91.1434 124.955 91.153C125.139 91.8223 125.289 92.5005 125.405 93.1851Z" fill="#7A8AAC"/>
<path d="M117.482 100.888C117.806 100.082 118.13 99.2766 118.467 98.4365C118.57 99.0244 118.663 99.559 118.799 100.331L117.717 101.111L117.482 100.888Z" fill="#7A8AAC"/>
<path d="M135.768 78.5691C136.343 78.6285 136.909 78.761 137.451 78.9634C137.667 79.0723 137.652 79.6486 137.742 80.0127L137.45 80.1337L135.729 78.8969L135.768 78.5691Z" fill="#7A8AAC"/>
<path d="M113.563 74.159C113.306 73.7316 113.105 73.2721 112.967 72.7922C112.94 72.6404 113.484 72.3876 113.989 72.0193V73.9213L113.563 74.159Z" fill="#7A8AAC"/>
<path d="M89.7597 87.2018L88.383 85.1618L89.6184 84.6677L89.7597 87.2018Z" fill="#7A8AAC"/>
<path d="M83.3447 101.564C83.2768 102.754 83.2281 103.604 83.1782 104.476C82.1297 104.029 82.1298 104.029 83.3447 101.564Z" fill="#7A8AAC"/>
<path d="M86.4936 104.681L88.4053 103.658C88.1606 104.679 87.765 105.434 86.6787 105.071L86.4936 104.681Z" fill="#7A8AAC"/>
<path d="M158.492 93.2461C158.383 93.7683 158.274 94.2898 158.165 94.8107C157.383 94.0632 157.342 93.5001 158.016 93.1294L158.492 93.2461Z" fill="#7A8AAC"/>
<path d="M207.105 191.114C206.575 190.612 206.055 190.12 205.414 189.515C205.363 189.068 205.086 188.36 205.263 187.799C205.602 186.983 206.044 186.214 206.579 185.512C206.617 185.452 207.06 185.524 207.097 185.622C207.558 186.771 208.622 187.79 207.9 189.311L207.359 188.395L207.103 188.417L207.105 191.114Z" fill="#7A8AAC"/>
<path d="M179.916 211.421C180.033 210.246 180.128 209.294 180.26 207.973C180.907 208.405 181.74 208.661 181.845 209.096C181.971 209.914 181.892 210.75 181.616 211.53C181.583 211.647 180.518 211.466 179.916 211.421Z" fill="#7A8AAC"/>
<path d="M124.303 217.251C123.982 218.633 123.684 219.917 123.386 221.198C122.162 220.215 122.528 218.448 124.303 217.251Z" fill="#7A8AAC"/>
<path d="M201.392 207.49C200.804 206.679 201.07 204.673 201.779 204.345C201.959 204.261 202.376 204.297 202.427 204.405C202.553 204.671 202.582 204.973 202.507 205.258C202.338 205.62 202.141 205.969 201.919 206.301C201.738 206.649 201.596 207.022 201.392 207.49Z" fill="#7A8AAC"/>
<path d="M168.645 197.036C168.667 197.423 168.665 197.811 168.638 198.197C168.507 199.012 168.511 198.995 169.149 199.739C169.218 199.836 169.262 199.949 169.277 200.068C169.292 200.186 169.278 200.306 169.235 200.418C168.948 200.68 168.624 200.899 168.274 201.066C168.291 200.462 168.25 199.859 168.153 199.263C168.055 198.909 167.711 198.626 167.324 198.107L168.645 197.036Z" fill="#7A8AAC"/>
<path d="M135.113 212.131L136.338 213.015C136.8 213.868 136.113 214.103 135.113 214.277V212.131Z" fill="#7A8AAC"/>
<path d="M177.654 204.532L175.61 203.486L175.165 203.77L174.932 203.513L176.14 202.364L177.933 204.267L177.654 204.532Z" fill="#7A8AAC"/>
<path d="M184.528 215.848C184.115 216.002 183.506 216.404 183.326 216.261C182.922 215.832 182.588 215.342 182.335 214.809L182.683 214.514L184.439 215.404L184.528 215.848Z" fill="#7A8AAC"/>
<path d="M103.612 220.276C103.817 218.527 104.029 218.386 106.057 218.619L103.612 220.276Z" fill="#7A8AAC"/>
<path d="M94.5251 201.157L93.7172 203.253L92.6808 202.817L94.2282 201.039L94.5251 201.157Z" fill="#7A8AAC"/>
<path d="M155.104 230.955C154.107 230.498 154.322 229.646 154.377 228.845L154.842 228.693C155.074 229.4 155.305 230.107 155.536 230.814L155.104 230.955Z" fill="#7A8AAC"/>
<path d="M195.342 186.682C194.999 186.478 194.53 186.364 194.405 186.091C194.203 185.78 194.098 185.416 194.105 185.044C194.111 184.673 194.229 184.312 194.442 184.009L195.342 186.682Z" fill="#7A8AAC"/>
<path d="M132.782 224.634L132.028 223.286L132.818 222.873L133.299 224.41L132.782 224.634Z" fill="#7A8AAC"/>
<path d="M115.319 208.589L113.414 208.977L114.454 207.152C114.815 207.754 115.051 208.145 115.319 208.589Z" fill="#7A8AAC"/>
<path d="M72.4848 35.922C71.5831 35.3263 71.3047 34.4452 71.6973 33.2779C72.0448 32.2437 72.6507 31.9958 73.4262 32.7687C73.9958 33.4074 74.5243 34.0821 75.0085 34.7887L72.4848 35.922Z" fill="#7A8AAC"/>
<path d="M56.194 34.3923C56.7621 34.2296 58.7453 36.7455 58.9371 38.0011C57.5779 38.2387 57.1456 37.9242 56.9178 36.731C56.7213 35.9381 56.4797 35.1572 56.194 34.3923Z" fill="#7A8AAC"/>
<path d="M115.864 16.0145L112.391 13.7889L112.086 14.0193C112.111 13.5815 112.136 13.1432 112.161 12.7045L112.494 12.511L116.06 15.6625L115.864 16.0145Z" fill="#7A8AAC"/>
<path d="M202.38 23.761C202.832 25.0371 203.2 26.0797 203.569 27.1224C202.05 26.7728 202.127 25.5463 201.914 24.5182C201.874 24.3283 202.181 24.0646 202.38 23.761Z" fill="#7A8AAC"/>
<path d="M235.798 34.8619L235.59 36.9726L235.302 37.134C234.934 36.6343 234.648 36.078 234.455 35.4866C234.412 35.2326 235.074 34.8564 235.417 34.5359L235.798 34.8619Z" fill="#7A8AAC"/>
<path d="M218.703 26.2959C217.51 25.9203 217.37 25.1516 217.403 24.1187C218.56 24.444 218.886 25.1117 218.703 26.2959Z" fill="#7A8AAC"/>
<path d="M228.554 37.5198L228.794 39.8718L227.411 40.3556L228.316 37.5415L228.554 37.5198Z" fill="#7A8AAC"/>
<path d="M249.238 55.3404C249.095 54.6284 248.953 53.9166 248.81 53.2049L249.029 53.084C249.425 53.5174 249.764 54.0001 250.038 54.5204C250.124 54.7405 249.697 55.1651 249.503 55.4965L249.238 55.3404Z" fill="#7A8AAC"/>
<path d="M135.284 10.8259L136.114 13.1719L134.657 13.2626C134.852 12.4897 135.022 11.8383 135.284 10.8259Z" fill="#7A8AAC"/>
<path d="M12.9183 120.23C14.0978 120.532 14.4627 121.525 14.7765 122.561C14.3258 122.318 13.9301 121.984 13.6146 121.58C13.2992 121.175 13.0709 120.709 12.9442 120.211L12.9183 120.23Z" fill="#7A8AAC"/>
<path d="M216.14 32.0793L217.462 33.2696C217.216 33.3421 216.83 33.5798 216.506 33.5115C216.344 33.4528 216.198 33.3576 216.078 33.2332C215.958 33.1087 215.868 32.9584 215.815 32.7936C215.756 32.571 216.055 32.2487 216.14 32.0793Z" fill="#7A8AAC"/>
<path d="M12.9442 120.211L11.5092 118.638L11.6433 118.32C11.9577 118.374 12.4849 118.344 12.545 118.498C12.7206 119.062 12.8451 119.64 12.9171 120.227L12.9442 120.211Z" fill="#7A8AAC"/>
<path d="M243.982 59.9046C243.907 59.4437 243.833 58.9829 243.758 58.522L244.089 58.2607C244.437 58.5527 244.733 58.9018 244.965 59.2931C245.025 59.4516 244.545 59.8332 244.309 60.1126L243.982 59.9046Z" fill="#7A8AAC"/>
<path d="M212.311 33.4441L213.829 32.3264L214.127 32.5768C214.023 33.0159 213.92 33.4556 213.8 33.9599L212.311 33.4441Z" fill="#7A8AAC"/>
<path d="M207.932 28.1147L206.278 27.5498L207.033 26.0112C207.358 26.7727 207.574 27.2777 207.932 28.1147Z" fill="#7A8AAC"/>
<path d="M208.321 27.0823L208.158 25.7186L208.509 25.4978C208.764 25.7911 209.17 26.0578 209.23 26.3856C209.273 26.6324 208.869 26.9578 208.66 27.2475L208.321 27.0823Z" fill="#7A8AAC"/>
<path d="M42.4978 226.147L41.6862 226.554L41.4241 226.408C41.8071 225.44 42.1714 224.472 42.591 223.522C42.6579 223.436 42.7458 223.368 42.8463 223.326C42.9467 223.283 43.0563 223.268 43.1645 223.28C43.4209 223.371 43.6334 223.556 43.759 223.799C44.0588 224.379 44.2634 225.005 44.365 225.651C44.4119 226.241 44.3392 226.986 43.4242 227.009C43.1044 227.017 42.7846 227.009 42.4022 227.009L42.4978 226.147Z" fill="#7A8AAC"/>
<path d="M41.7097 234.479L42.6162 231.742H44.0644C44.0085 232.069 43.9574 232.364 43.9051 232.661C45.6166 232.218 44.8429 233.272 44.7738 233.845L41.7097 234.479Z" fill="#7A8AAC"/>
<path d="M127.655 275.746C127.86 274.998 129.237 274.093 127.347 273.562C127.793 272.221 128.853 272.911 129.638 272.688C129.225 275.831 129.11 276.012 127.655 275.746Z" fill="#7A8AAC"/>
<path d="M266.303 192.22C265.946 191.509 265.631 190.777 265.358 190.029C265.341 189.869 265.365 189.708 265.428 189.56C265.492 189.412 265.592 189.284 265.719 189.187C265.887 189.16 266.059 189.17 266.224 189.215C266.388 189.26 266.541 189.34 266.673 189.448C267.355 189.993 267.261 191.1 266.303 192.22Z" fill="#7A8AAC"/>
<path d="M111.625 272.686C111.625 272.052 111.582 271.006 111.665 269.97C111.68 269.788 112.255 269.475 112.514 269.525C112.984 269.703 113.426 269.95 113.825 270.259L111.625 272.686Z" fill="#7A8AAC"/>
<path d="M116.654 270.267L118.382 274.821C117.436 274.579 117.48 274.568 117.101 272.871C116.872 272.062 116.591 271.269 116.259 270.497L116.654 270.267Z" fill="#7A8AAC"/>
<path d="M172.34 271.705V268.936C172.866 269.457 173.503 269.821 173.472 270.113C173.313 270.726 173.056 271.31 172.712 271.841L172.34 271.705Z" fill="#7A8AAC"/>
<path d="M73.8801 257.99L75.1071 256.323L75.5387 258.007L73.9312 258.302L73.8801 257.99Z" fill="#7A8AAC"/>
<path d="M130.357 274.852C131.898 275.317 131.823 276.039 130.79 276.94L130.357 274.852Z" fill="#7A8AAC"/>
<path d="M138.321 276.096C139.306 275.767 139.726 276.547 140.144 277.072C140.321 277.295 140.068 277.864 139.991 278.411L138.321 276.096Z" fill="#7A8AAC"/>
<path d="M132.336 280.119L131.474 278.518L133.114 277.798C132.938 278.67 132.794 279.383 132.649 280.096L132.336 280.119Z" fill="#7A8AAC"/>
<path d="M71.9925 252.591C71.9925 252.009 71.9612 251.426 72.0117 250.849C72.0261 250.683 72.3123 250.388 72.4073 250.413C72.6225 250.468 72.9766 250.719 72.9561 250.836C72.8228 251.463 72.6583 252.082 72.4632 252.692L71.9925 252.591Z" fill="#7A8AAC"/>
<path d="M168.706 277.445C167.431 276.846 167.394 276.201 168.706 275.232V277.445Z" fill="#7A8AAC"/>
<path d="M99.3073 266.013L100.742 264.791L101.234 265.651L99.6326 266.491L99.3073 266.013Z" fill="#7A8AAC"/>
<path d="M223.631 247.63L221.961 247.945C222.074 247.11 222.152 246.546 222.241 245.893C222.883 246.252 222.311 247.654 223.723 247.03L223.631 247.63Z" fill="#7A8AAC"/>
<path d="M225.174 249.954C225.452 249.355 225.611 249.04 225.746 248.716C225.897 248.353 226.027 247.979 226.157 247.635C226.798 248.595 226.669 249.028 225.174 249.954Z" fill="#7A8AAC"/>
<path d="M233.413 243.066H235.162L235.305 243.308C234.967 243.597 234.59 243.833 234.184 244.01C234.057 244.046 233.763 243.509 233.413 243.066Z" fill="#7A8AAC"/>
<path d="M113.37 279.151C111.945 278.708 111.897 278.526 112.889 277.309C113.046 277.916 113.189 278.462 113.37 279.151Z" fill="#7A8AAC"/>
<path d="M262.478 109.242C263.975 107.889 265.188 107.725 266.325 108.521C267.407 109.278 267.693 110.275 267.187 111.657C265.664 110.888 264.966 108.654 262.478 109.242Z" fill="#7A8AAC"/>
<path d="M270.453 134.34L273.019 135.846L272.751 137.54L270.203 134.553L270.453 134.34Z" fill="#7A8AAC"/>
<path d="M255.384 146.803C255.552 145.893 255.653 145.352 255.827 144.406L257.221 146.151L255.384 146.803Z" fill="#7A8AAC"/>
<path d="M252.006 148.262C251.878 147.261 251.788 146.549 251.686 145.748C252.679 146.123 252.768 146.755 252.006 148.262Z" fill="#7A8AAC"/>
<path d="M118.003 165.12C118.5 164.98 119.009 164.883 119.522 164.83C119.622 164.825 119.746 165.38 119.943 165.905L118.789 165.572C118.602 166.257 118.419 166.923 118.237 167.589L117.898 167.51C117.932 166.767 117.964 166.024 118.003 165.12Z" fill="#7A8AAC"/>
<path d="M116.77 173.178C116.885 172.622 117.053 172.078 117.272 171.555C117.397 171.313 117.836 171.24 118.132 171.091C118.252 171.445 118.578 171.938 118.452 172.127C118.064 172.614 117.624 173.057 117.138 173.446L116.77 173.178Z" fill="#7A8AAC"/>
<path d="M119.917 158.389C121.146 158.373 121.503 158.823 121.48 159.562C121.475 159.725 121.116 159.877 120.921 160.033L119.917 158.389Z" fill="#7A8AAC"/>
<path d="M194.547 157.228L195.004 159.519C193.941 158.986 193.786 158.395 194.547 157.228Z" fill="#7A8AAC"/>
<path d="M201.474 117.588V120.026L200.421 119.201L201.474 117.588Z" fill="#7A8AAC"/>
<path d="M26.6355 154.989L26.1348 156.45L25.1387 155.837L25.8498 154.551L26.6482 153.108L27.2818 155.14C27.9455 155.04 28.6139 154.975 29.2843 154.946C29.3606 155.327 29.4126 155.712 29.44 156.1L27.3028 155.438C28.9542 161.145 30.5124 166.527 32.1295 172.115L27.5499 172.798C27.2403 166.769 26.9391 160.897 26.6355 154.989Z" fill="#7A8AAC"/>
<path d="M26.1811 172.117C25.2529 173.489 24.9277 173.512 24.065 172.277C23.3064 171.191 22.5273 170.113 21.881 168.962C21.8253 168.745 21.8201 168.518 21.8659 168.298C21.9117 168.079 22.0072 167.873 22.1449 167.697C22.3673 167.415 22.8952 167.377 23.2871 167.231C23.4484 167.564 23.5501 167.922 23.5877 168.29C23.4116 170.353 23.9051 171.13 26.1811 172.117Z" fill="#7A8AAC"/>
<path d="M30.183 149.202L33.3175 147.022C33.7185 147.775 32.4518 148.782 30.183 149.202Z" fill="#7A8AAC"/>
<path d="M36.5511 162.49L36.8324 159.602L37.4847 159.723L36.8637 162.576L36.5511 162.49Z" fill="#7A8AAC"/>
<path d="M91.8945 164.527C92.4439 164.789 92.8623 164.863 93.0565 165.112C93.2812 165.471 93.429 165.874 93.4906 166.294C93.508 166.368 93.1166 166.632 93.0896 166.607C92.7646 166.344 92.4755 166.039 92.2299 165.7C92.0709 165.324 91.9583 164.93 91.8945 164.527Z" fill="#7A8AAC"/>
<path d="M90.6897 118.875C90.329 119.037 89.8523 119.424 89.6383 119.31C89.2495 119.03 88.9486 118.645 88.7714 118.199C88.7269 118.111 89.2199 117.572 89.3395 117.613C89.7253 117.792 90.0867 118.02 90.415 118.291L90.6897 118.875Z" fill="#7A8AAC"/>
<path d="M222.02 172.789C221.75 172.921 221.426 173.218 221.223 173.152C220.823 172.961 220.449 172.717 220.114 172.426C220.377 172.227 220.655 171.851 220.901 171.87C221.307 171.973 221.693 172.145 222.04 172.38L222.02 172.789Z" fill="#7A8AAC"/>
<path d="M129.821 33.0925L131.136 32.4272C131.261 33.531 131.376 34.5355 131.49 35.5401L131.24 35.661L129.821 33.0925Z" fill="#7A8AAC"/>
<path d="M8.00684 153.628L9.92214 165.198L10.0063 165.184L13.8826 152.643L22.1924 151.252L16.8192 165.692L28.109 181.246L19.2119 182.738L12.8961 172.989L11.6793 175.799L13.0019 183.782L5.19402 185.092L0.201385 154.942L8.00684 153.628Z" fill="#7A8AAC"/>
<path d="M36.0455 148.929C37.3313 148.681 38.6506 148.666 39.9416 148.884C40.9713 149.065 41.9435 149.489 42.7779 150.123C43.5633 150.741 44.1964 151.533 44.6283 152.438C45.1021 153.43 45.4294 154.486 45.5997 155.573C45.9641 157.277 45.8228 159.051 45.1934 160.674C44.8518 161.391 44.3597 162.024 43.7511 162.531C43.1425 163.038 42.4318 163.406 41.6682 163.609L41.682 163.694C43.5853 163.549 44.9822 163.994 45.8727 165.031C46.8877 166.368 47.523 167.956 47.711 169.627L48.1372 172.203C48.2028 172.598 48.2713 173.005 48.3404 173.427C48.4096 173.849 48.4907 174.249 48.5809 174.624C48.6607 174.967 48.7599 175.306 48.8779 175.638C48.9557 175.879 49.0661 176.109 49.2061 176.32C49.3468 176.471 49.4844 176.614 49.6215 176.75C49.801 176.91 50.0126 177.03 50.2419 177.101L50.311 177.525L42.0018 178.916C41.7167 178.51 41.4904 178.065 41.3297 177.595C41.1435 177.081 40.9848 176.558 40.8542 176.027C40.7231 175.499 40.6099 174.989 40.5145 174.499C40.4184 174.009 40.3462 173.609 40.2951 173.3L39.9597 171.272C39.8513 170.565 39.6922 169.867 39.4836 169.182C39.3537 168.722 39.1284 168.294 38.8223 167.927C38.5842 167.653 38.2653 167.462 37.9121 167.382C37.5059 167.311 37.09 167.314 36.6851 167.393L34.6292 167.739L36.6286 179.815L28.8208 181.123L23.8281 150.975L36.0455 148.929ZM35.3025 162.16C35.7697 162.12 36.2216 161.973 36.6227 161.729C37.0238 161.484 37.3633 161.15 37.6145 160.752C38.0501 159.913 38.1801 158.947 37.9819 158.022C37.7722 156.754 37.3643 155.897 36.7579 155.449C36.3597 155.21 35.9182 155.054 35.4592 154.99C35.0003 154.925 34.5331 154.953 34.0851 155.073L32.5756 155.325L33.7503 162.419L35.3025 162.16Z" fill="#7A8AAC"/>
<path d="M62.6559 144.471L74.9526 173.396L66.641 174.787L64.9697 169.642L58.7586 170.683L58.8337 176.095L50.6495 177.467L52.8341 146.116L62.6559 144.471ZM58.7231 151.466L58.7021 164.619L63.0671 163.888L58.8049 151.449L58.7231 151.466Z" fill="#7A8AAC"/>
<path d="M79.9903 141.563L88.106 159.297L88.1889 159.284L85.1122 140.705L92.4157 139.48L97.4053 169.629L88.843 171.065L80.5548 153.316L80.4712 153.329L83.5546 171.951L76.2505 173.176L71.2609 143.026L79.9903 141.563Z" fill="#7A8AAC"/>
<path d="M95.365 145.842L94.2612 139.171L113.739 135.905L114.843 142.577L108.967 143.561L112.855 167.039L105.047 168.348L101.159 144.869L95.365 145.842Z" fill="#7A8AAC"/>
<path d="M123.009 134.352L128.001 164.501L120.194 165.809L115.204 135.66L123.009 134.352Z" fill="#7A8AAC"/>
<path d="M133.924 132.523L138.914 162.672L131.106 163.981L126.117 133.832L133.924 132.523Z" fill="#7A8AAC"/>
<path d="M160.631 133.862C160.427 133.59 160.15 133.384 159.832 133.268C159.514 133.151 159.169 133.13 158.84 133.207C158.325 133.266 157.851 133.516 157.51 133.908C157.162 134.434 156.979 135.055 156.986 135.688C156.947 136.773 157.004 137.86 157.158 138.935C157.323 140.283 157.574 141.969 157.91 143.995C158.245 146.021 158.552 147.699 158.829 149.027C159.03 150.094 159.325 151.141 159.713 152.155C159.91 152.756 160.283 153.283 160.784 153.667C161.233 153.926 161.761 154.008 162.267 153.896C162.69 153.842 163.084 153.646 163.383 153.34C163.686 152.963 163.866 152.501 163.897 152.017C163.971 151.246 163.965 150.468 163.879 149.698C163.792 148.744 163.63 147.548 163.393 146.112L170.948 144.846L171.318 147.083C171.67 148.843 171.677 150.655 171.34 152.418C171.071 153.726 170.488 154.948 169.644 155.979C168.856 156.903 167.857 157.621 166.733 158.072C165.571 158.544 164.362 158.885 163.126 159.089C161.311 159.451 159.447 159.485 157.621 159.187C156.18 158.914 154.871 158.164 153.904 157.055C152.792 155.71 151.968 154.149 151.483 152.47C150.768 150.137 150.222 147.755 149.849 145.343C149.412 142.903 149.183 140.43 149.165 137.951C149.127 136.182 149.461 134.426 150.144 132.796C150.751 131.448 151.753 130.318 153.016 129.559C154.544 128.694 156.221 128.125 157.958 127.884C159.477 127.591 161.035 127.565 162.562 127.807C163.764 128.008 164.902 128.494 165.88 129.225C166.804 129.949 167.549 130.879 168.055 131.941C168.634 133.163 169.031 134.464 169.234 135.802L169.549 137.702L161.994 138.968L161.714 137.279C161.43 135.564 161.07 134.425 160.631 133.862Z" fill="#7A8AAC"/>
<path d="M185.507 123.877L197.803 152.802L189.492 154.193L187.821 149.048L181.609 150.089L181.685 155.502L173.501 156.873L175.685 125.522L185.507 123.877ZM181.575 130.872L181.553 144.026L185.919 143.294L181.658 130.858L181.575 130.872Z" fill="#7A8AAC"/>
<path d="M206.326 120.388C207.612 120.14 208.931 120.125 210.223 120.342C211.252 120.523 212.224 120.948 213.058 121.58C213.844 122.199 214.477 122.991 214.908 123.895C215.382 124.887 215.71 125.944 215.881 127.031C216.245 128.735 216.104 130.509 215.474 132.133C215.132 132.85 214.64 133.483 214.031 133.99C213.422 134.496 212.712 134.864 211.948 135.068L211.962 135.152C213.865 135.007 215.262 135.453 216.154 136.49C217.169 137.826 217.804 139.415 217.992 141.086L218.419 143.661C218.484 144.056 218.552 144.464 218.621 144.885C218.69 145.307 218.772 145.706 218.862 146.083C218.942 146.426 219.041 146.764 219.159 147.095C219.237 147.337 219.348 147.566 219.488 147.778C219.627 147.928 219.766 148.072 219.904 148.208C220.082 148.369 220.294 148.489 220.523 148.56L220.592 148.983L212.282 150.374C211.998 149.968 211.772 149.524 211.611 149.055C211.425 148.539 211.266 148.014 211.134 147.482C211.005 146.955 210.892 146.446 210.795 145.955C210.699 145.464 210.626 145.064 210.577 144.755L210.241 142.728C210.132 142.021 209.973 141.322 209.765 140.638C209.635 140.177 209.41 139.749 209.104 139.382C208.866 139.108 208.547 138.917 208.194 138.838C207.787 138.765 207.371 138.769 206.965 138.849L204.91 139.193L206.91 151.27L199.102 152.579L194.113 122.429L206.326 120.388ZM205.582 133.618C206.05 133.579 206.502 133.431 206.903 133.187C207.304 132.943 207.644 132.608 207.895 132.21C208.331 131.371 208.461 130.405 208.263 129.479C208.053 128.213 207.645 127.356 207.039 126.908C206.641 126.669 206.199 126.513 205.74 126.449C205.282 126.384 204.815 126.412 204.367 126.531L202.856 126.784L204.03 133.878L205.582 133.618Z" fill="#7A8AAC"/>
<path d="M229.276 138.891C229.519 140.354 229.89 141.297 230.391 141.719C230.652 141.916 230.95 142.057 231.267 142.135C231.583 142.212 231.913 142.224 232.234 142.171C232.556 142.117 232.863 141.998 233.138 141.821C233.413 141.645 233.649 141.414 233.833 141.143C234.172 140.579 234.22 139.565 233.977 138.103L230.376 116.356L238.182 115.048L241.454 134.81C241.793 136.586 241.862 138.404 241.657 140.201C241.501 141.532 241.022 142.803 240.264 143.905C239.529 144.912 238.532 145.694 237.383 146.168C234.615 147.268 231.646 147.766 228.673 147.628C227.427 147.559 226.223 147.145 225.196 146.431C224.124 145.636 223.262 144.589 222.686 143.381C221.912 141.748 221.391 140.006 221.14 138.215L217.867 118.453L225.675 117.145L229.276 138.891Z" fill="#7A8AAC"/>
<path d="M250.269 113.022L258.385 130.757L258.469 130.743L255.392 112.164L262.695 110.939L267.684 141.088L259.123 142.524L250.834 124.775L250.75 124.789L253.834 143.41L246.53 144.634L241.541 114.485L250.269 113.022Z" fill="#7A8AAC"/>
<path d="M281.12 107.851L293.416 136.775L285.105 138.166L283.434 133.021L277.222 134.062L277.297 139.475L269.113 140.847L271.297 109.495L281.12 107.851ZM277.188 114.846L277.165 127.999L281.531 127.267L277.272 114.831L277.188 114.846Z" fill="#7A8AAC"/>
<path d="M140.768 123.81L147.603 167.043" stroke="#7A8AAC" stroke-width="0.5" stroke-miterlimit="10"/>
</svg>
