<svg width="518" height="215" viewBox="0 0 518 215" fill="none" xmlns="http://www.w3.org/2000/svg">
<path d="M0 179V95.8789C0 69.9888 21.1389 49 47.2143 49H58.7857C84.8611 49 106 69.9888 106 95.8789V179H0Z" fill="#C1BFBD"/>
<path d="M106 177.499C106 191.031 82.2711 202 52.999 202C23.7289 202 0 191.031 0 177.499C0 163.969 23.7289 153 52.999 153C82.2711 153 106 163.969 106 177.499Z" fill="#C1BFBD"/>
<path d="M96 176.5C96 187.27 76.7491 196 52.999 196C29.251 196 10 187.27 10 176.5C10 165.73 29.251 157 52.999 157C76.7491 157 96 165.73 96 176.5Z" fill="#999A99"/>
<path d="M87 65C87 73.8368 72.001 81 53.499 81C34.999 81 20 73.8368 20 65C20 56.1632 34.999 49 53.499 49C72.001 49 87 56.1632 87 65Z" fill="#999A99"/>
<path d="M87 52.0011C87 60.8373 72.001 68 53.499 68C34.999 68 20 60.8373 20 52.0011C20 43.1648 34.999 36 53.499 36C72.001 36 87 43.1648 87 52.0011Z" fill="#999A99"/>
<path d="M87 65H20V52H87V65Z" fill="#999A99"/>
<path d="M92 44H15V50H92V44Z" fill="#ED1D24"/>
<path d="M92 50.4989C92 60.7161 74.7631 69 53.499 69C32.237 69 15 60.7161 15 50.4989C15 40.2817 32.237 32 53.499 32C74.7631 32 92 40.2817 92 50.4989Z" fill="#0077EF"/>
<path d="M92 43.501C92 53.1659 74.7631 61 53.499 61C32.237 61 15 53.1659 15 43.501C15 33.836 32.237 26 53.499 26C74.7631 26 92 33.836 92 43.501Z" fill="#379FFF"/>
<path d="M43 95.9111L47.1116 93L49 94.2159L44.1336 98L43 95.9111Z" fill="#E6A811"/>
<path d="M58.5834 127L62.5073 124.363L63 121L57 125.187L58.5834 127Z" fill="#E6A811"/>
<path d="M61.4363 120.079L60.7943 118.963L65.9852 116.09C65.9958 115.849 66 115.604 66 115.356C66 114.705 65.9641 114.046 65.9008 113.38L61.8228 115.641L61.1808 114.525L65.7255 112.012C65.5903 111.168 65.4108 110.321 65.1869 109.48L60.2558 112.212L59.6138 111.098L64.8195 108.219C64.566 107.424 64.2767 106.64 63.9536 105.867L58.6909 108.783L58.0489 107.669L63.432 104.69C63.0793 103.94 62.695 103.206 62.2832 102.495L57.1261 105.354L56.482 104.24L61.6137 101.401C61.2547 100.843 60.8809 100.299 60.4902 99.7774L55.9899 102.272L55.3479 101.158L59.6835 98.7604C59.2442 98.2347 58.7923 97.7373 58.3256 97.2683L53.0755 100.178L52.4336 99.0616L57.3457 96.3463C56.7966 95.8651 56.2328 95.4243 55.6562 95.0321L49.7283 98.3176L49.0863 97.2035L54.3954 94.2658C53.5972 93.8331 52.8179 93.5157 52.0661 93.3074L46.381 96.4575L45.739 95.3434L49.9733 93.0001C45.8721 92.9779 43 96.5889 43 102.642C43 110.75 48.1486 120.17 54.501 123.68C58.4607 125.867 61.9516 125.243 64.0212 122.499L59.7278 124.877L59.0859 123.763L65.1595 120.402C65.4784 119.577 65.7127 118.651 65.8521 117.63L61.4363 120.079Z" fill="#E6A811"/>
<path d="M47.6088 97L53 93.3556C52.3111 93.1216 51.6482 93.0047 51.0153 93L47 95.7111L47.6088 97Z" fill="#FABD09"/>
<path d="M49.5863 98L55 94.7565C54.6528 94.501 54.3018 94.2655 53.945 94.0539C53.9122 94.0339 53.8814 94.018 53.8486 94L49 96.9002L49.5863 98Z" fill="#FABD09"/>
<path d="M53.5448 101L58 97.9625C57.7276 97.6269 57.4498 97.304 57.1685 97L53 99.8348L53.5448 101Z" fill="#FABD09"/>
<path d="M55.6242 102L60 99.8687C59.7454 99.5699 59.4825 99.2815 59.2156 99L55 101.048L55.6242 102Z" fill="#FABD09"/>
<path d="M57.6662 105L63 102.83C62.7772 102.549 62.5457 102.272 62.3076 102L57 104.154L57.6662 105Z" fill="#FABD09"/>
<path d="M58.6524 109L64 105.438C63.8305 104.954 63.6545 104.474 63.47 104L58 107.639L58.6524 109Z" fill="#FABD09"/>
<path d="M60.5759 113L65 109.58C64.8977 109.051 64.7897 108.524 64.6703 108L60 111.605L60.5759 113Z" fill="#FABD09"/>
<path d="M62.4081 115L65 113.131C64.9718 112.755 64.9342 112.378 64.8886 112L62 114.077L62.4081 115Z" fill="#FABD09"/>
<path d="M60.7421 120L65.8462 117.545C65.9219 117.052 65.9756 116.537 66 116L60 118.881L60.7421 120Z" fill="#FABD09"/>
<path d="M59.6342 125L63.8755 122.343C64.3199 121.674 64.6975 120.888 65 120L59 123.755L59.6342 125Z" fill="#FABD09"/>
<path d="M62 117.658C62 125.512 57.0752 129.121 50.999 125.719C44.9248 122.319 40 113.196 40 105.343C40 97.489 44.9248 93.8795 50.999 97.2795C57.0752 100.681 62 109.804 62 117.658Z" fill="#FBE790"/>
<path d="M60 116.864C60 123.703 55.9691 126.847 50.999 123.885C46.0289 120.924 42 112.978 42 106.136C42 99.297 46.0289 96.1529 50.999 99.1145C55.9691 102.076 60 110.022 60 116.864Z" fill="#FABD09"/>
<path d="M51.8896 108.954C51.3856 108.121 50.9558 107.604 50.3705 107.321C49.6968 106.995 49.3298 107.16 49.3275 107.968C49.3229 109.673 53.0139 111.318 53 114.745C52.9953 116.468 52.252 117.436 50.8095 117.132L50.8025 119L49.4483 118.343L49.4553 116.547C48.6307 116.024 47.655 115.082 47 113.992L47.9012 112.649C48.612 113.676 49.223 114.334 49.8943 114.66C50.6771 115.038 51.0301 114.794 51.0324 113.968C51.0394 112.12 47.3484 110.368 47.3601 107.139C47.367 105.379 48.18 104.552 49.4971 104.848L49.504 103L50.8582 103.657L50.8513 105.47C51.7433 106.063 52.3867 106.949 52.9279 107.95L51.8896 108.954Z" fill="white"/>
<path d="M55 175H20V179H55V175Z" fill="#E6A811"/>
<path d="M55 179C55 177.944 54.6347 176.937 54 176V182C54.6347 181.065 55 180.056 55 179Z" fill="#E6A811"/>
<path d="M54 175.976C51.3663 173.057 45.0456 171 37.6569 171C27.9051 171 20 174.581 20 179C20 180.137 20.5308 181.217 21.4728 182.196V175.976H22.5903V183.157C23.2761 183.666 24.0734 184.14 24.9843 184.565V177.853H26.1018V185.04C26.8475 185.334 27.649 185.596 28.4959 185.829V179.681H29.6134V186.117C30.3818 186.295 31.1812 186.449 32.0095 186.575V179.681H33.127V186.724C33.9057 186.818 34.703 186.892 35.521 186.936V179.681H36.6385V186.978C36.9773 186.986 37.314 187 37.6569 187C38.1216 187 38.5761 186.986 39.0326 186.97V179.681H40.1501V186.912C40.966 186.86 41.7674 186.784 42.5441 186.682V179.681H43.6616V186.517C44.4879 186.381 45.2934 186.227 46.0557 186.039V179.681H47.1732V185.732C48.0263 185.484 48.8236 185.202 49.5672 184.895V177.853H50.6847V184.387C51.6019 183.932 52.4116 183.432 53.0787 182.891V175.976H54Z" fill="#E6A811"/>
<path d="M21 176V182.93C21.2883 183.301 21.6285 183.657 22 184V176H21Z" fill="#FABD09"/>
<path d="M25 178V184.537C25.3198 184.698 25.6544 184.852 26 185V178H25Z" fill="#FABD09"/>
<path d="M29 180V185.732C29.3272 185.827 29.6599 185.916 30 186V180H29Z" fill="#FABD09"/>
<path d="M32 180V186.851C32.3272 186.907 32.6617 186.954 33 187V180H32Z" fill="#FABD09"/>
<path d="M36 180V186.96C36.329 186.979 36.6636 186.99 37 187V180H36Z" fill="#FABD09"/>
<path d="M40 180V187C40.3364 186.987 40.6691 186.967 41 186.944V180H40Z" fill="#FABD09"/>
<path d="M42 180V187C42.3401 186.952 42.671 186.894 43 186.834V180H42Z" fill="#FABD09"/>
<path d="M46 180V186C46.3438 185.911 46.6728 185.811 47 185.71V180H46Z" fill="#FABD09"/>
<path d="M49 178V185C49.6987 184.839 50.3642 184.67 51 184.496V178H49Z" fill="#FABD09"/>
<path d="M54 182.715V176.282C53.9409 176.189 53.8891 176.092 53.8244 176H53V184C53.39 183.591 53.719 183.159 54 182.715Z" fill="#FABD09"/>
<path d="M55 174.5C55 178.642 47.1635 182 37.499 182C27.8344 182 20 178.642 20 174.5C20 170.358 27.8344 167 37.499 167C47.1635 167 55 170.358 55 174.5Z" fill="#FBE790"/>
<path d="M52 174.5C52 178.09 45.731 181 37.999 181C30.2669 181 24 178.09 24 174.5C24 170.91 30.2669 168 37.999 168C45.731 168 52 170.91 52 174.5Z" fill="#FABD09"/>
<path d="M41.7586 173.836C42.0095 173.223 42.0156 172.789 41.5886 172.391C41.107 171.941 40.4838 171.85 39.642 172.223C37.8632 173.011 40.6861 175.437 37.1085 177.021C35.3095 177.814 33.3851 177.925 31.9281 177.135L29.9794 178L29 177.084L30.8738 176.257C30.4084 175.639 30.1838 174.763 30.5157 173.962L33.0188 173.747C32.8205 174.542 32.8934 175.124 33.379 175.579C33.9456 176.105 34.6296 176.152 35.4916 175.772C37.4221 174.917 34.7105 172.442 38.0818 170.951C39.9172 170.14 41.7809 170.124 43.0901 170.853L45.0206 170L46 170.916L44.1079 171.752C44.5875 172.431 44.456 173.132 44.0817 173.838L41.7586 173.836Z" fill="white"/>
<path d="M88 163H54V168H88V163Z" fill="#E6A811"/>
<path d="M88 167.501C88 166.619 87.6358 165.78 87 165V170C87.6358 169.22 88 168.381 88 167.501Z" fill="#E6A811"/>
<path d="M87 164.288C84.4438 161.188 78.3089 159 71.1375 159C61.6726 159 54 162.807 54 167.501C54 168.706 54.5153 169.854 55.4295 170.894V164.288H56.5141V171.915C57.1797 172.456 57.9536 172.959 58.8378 173.411V166.283H59.9224V173.916C60.6461 174.228 61.424 174.508 62.246 174.756V168.223H63.3306V175.06C64.0764 175.249 64.8523 175.412 65.6543 175.546V168.223H66.7389V175.705C67.4967 175.805 68.2706 175.883 69.0645 175.93V168.223H70.1492V175.975C70.4779 175.983 70.8027 176 71.1375 176C71.5886 176 72.0297 175.983 72.4728 175.966V168.223H73.5574V175.905C74.3493 175.849 75.1272 175.769 75.8811 175.663V168.223H76.9657V175.484C77.7676 175.34 78.5495 175.177 79.2893 174.977V168.223H80.3739V174.652C81.2019 174.389 81.9758 174.09 82.6976 173.761V166.283H83.7822V173.222C84.6723 172.738 85.4583 172.21 86.1058 171.633V164.288H87Z" fill="#E6A811"/>
<path d="M55 165V171.929C55.5767 172.301 56.2569 172.657 57 173V165H55Z" fill="#FABD09"/>
<path d="M59 167V173.537C59.3198 173.698 59.6543 173.852 60 174V167H59Z" fill="#FABD09"/>
<path d="M63 169V174.734C63.3272 174.827 63.658 174.918 64 175V169H63Z" fill="#FABD09"/>
<path d="M65 169V175.851C65.329 175.909 65.6636 175.956 66 176V169H65Z" fill="#FABD09"/>
<path d="M69 169V175.96C69.329 175.979 69.6636 175.99 70 176V169H69Z" fill="#FABD09"/>
<path d="M73 169V176C73.3364 175.987 73.6691 175.967 74 175.944V169H73Z" fill="#FABD09"/>
<path d="M76 169V176C76.3383 175.95 76.671 175.892 77 175.832V169H76Z" fill="#FABD09"/>
<path d="M80 169V175C80.3438 174.911 80.6728 174.811 81 174.712V169H80Z" fill="#FABD09"/>
<path d="M84 167V174C84.3494 173.839 84.6821 173.672 85 173.495V167H84Z" fill="#FABD09"/>
<path d="M87 170.036V165.211C86.9408 165.14 86.8891 165.069 86.8244 165H86V171C86.39 170.693 86.719 170.371 87 170.036Z" fill="#FABD09"/>
<path d="M88 163.5C88 167.642 80.3889 171 71 171C61.611 171 54 167.642 54 163.5C54 159.358 61.611 156 71 156C80.3889 156 88 159.358 88 163.5Z" fill="#FBE790"/>
<path d="M85 163C85 166.314 78.9564 169 71.5 169C64.0435 169 58 166.314 58 163C58 159.686 64.0435 157 71.5 157C78.9564 157 85 159.686 85 163Z" fill="#FABD09"/>
<path d="M75.7586 162.838C76.0095 162.223 76.0156 161.789 75.5886 161.391C75.107 160.941 74.4837 160.85 73.6419 161.223C71.8612 162.011 74.6861 164.437 71.1064 166.021C69.3095 166.816 67.383 166.925 65.9281 166.138L63.9794 167L63 166.084L64.8738 165.257C64.4084 164.639 64.1818 163.763 64.5157 162.962L67.0188 162.75C66.8205 163.542 66.8933 164.124 67.379 164.579C67.9456 165.105 68.6295 165.152 69.4916 164.772C71.4221 163.917 68.7105 161.442 72.0818 159.951C73.9171 159.14 75.7808 159.123 77.0881 159.853L79.0186 159L80 159.916L78.1059 160.752C78.5875 161.431 78.456 162.132 78.0817 162.84L75.7586 162.838Z" fill="white"/>
<path d="M66 160H31V165H66V160Z" fill="#E6A811"/>
<path d="M66 165.5C66 164.618 65.6347 163.779 65 163V168C65.6347 167.219 66 166.38 66 165.5Z" fill="#E6A811"/>
<path d="M65 162.287C62.3663 159.186 56.0455 157 48.6569 157C38.9051 157 31 160.805 31 165.5C31 166.708 31.5308 167.854 32.4728 168.894V162.287H33.5903V169.914C34.2761 170.456 35.0734 170.959 35.9843 171.411V164.282H37.1018V171.918C37.8475 172.228 38.6489 172.508 39.4979 172.756V166.224H40.6154V173.06C41.3818 173.251 42.1811 173.412 43.0094 173.548V166.224H44.127V173.707C44.9057 173.805 45.703 173.883 46.521 173.932V166.224H47.6385V173.975C47.9773 173.983 48.314 174 48.6569 174C49.1216 174 49.5781 173.983 50.0325 173.966V166.224H51.1501V173.905C51.966 173.849 52.7674 173.771 53.5441 173.663V166.224H54.6616V173.484C55.4878 173.34 56.2934 173.177 57.0556 172.977V166.224H58.1731V172.652C59.0262 172.389 59.8235 172.09 60.5672 171.761V164.282H61.6847V171.222C62.6018 170.74 63.4115 170.21 64.0787 169.634V162.287H65Z" fill="#E6A811"/>
<path d="M33 163V169.063C33.5767 169.388 34.257 169.7 35 170V163H33Z" fill="#FABD09"/>
<path d="M40 167V172.734C40.3253 172.827 40.6581 172.918 41 173V167H40Z" fill="#FABD09"/>
<path d="M43 167V172.872C43.3272 172.92 43.6617 172.961 44 173V167H43Z" fill="#FABD09"/>
<path d="M47 167V173.962C47.329 173.981 47.6636 173.99 48 174V167H47Z" fill="#FABD09"/>
<path d="M51 167V174C51.3364 173.987 51.6691 173.967 52 173.944V167H51Z" fill="#FABD09"/>
<path d="M54 167V173C54.3401 172.957 54.671 172.908 55 172.856V167H54Z" fill="#FABD09"/>
<path d="M60 164V171C60.6987 170.839 61.3642 170.672 62 170.496V164H60Z" fill="#FABD09"/>
<path d="M65 168.036V163.211C64.9409 163.14 64.8891 163.069 64.8244 163H64V169C64.3919 168.693 64.719 168.369 65 168.036Z" fill="#FABD09"/>
<path d="M66 161C66 165.419 58.1635 169 48.499 169C38.8344 169 31 165.419 31 161C31 156.582 38.8344 153 48.499 153C58.1635 153 66 156.582 66 161Z" fill="#FBE790"/>
<path d="M63 160.5C63 164.09 56.9548 167 49.499 167C42.0431 167 36 164.09 36 160.5C36 156.91 42.0431 154 49.499 154C56.9548 154 63 156.91 63 160.5Z" fill="#FABD09"/>
<path d="M53.7586 160.358C54.0095 159.82 54.0156 159.443 53.5887 159.094C53.1071 158.699 52.4838 158.619 51.642 158.945C49.8632 159.634 52.6861 161.757 49.1064 163.144C47.3095 163.839 45.3851 163.937 43.9281 163.246L41.9794 164L41 163.199L42.8738 162.475C42.4084 161.934 42.1838 161.168 42.5157 160.466L45.0188 160.281C44.8205 160.974 44.8934 161.484 45.379 161.881C45.9456 162.342 46.6296 162.383 47.4916 162.051C49.4221 161.304 46.7105 159.137 50.0818 157.832C51.9172 157.122 53.7809 157.108 55.0901 157.746L57.0206 157L58 157.801L56.106 158.533C56.5876 159.127 56.456 159.74 56.0817 160.36L53.7586 160.358Z" fill="white"/>
<path d="M74 151H38V156H74V151Z" fill="#E6A811"/>
<path d="M74 155.5C74 154.618 73.6358 153.779 73 153V158C73.6358 157.219 74 156.38 74 155.5Z" fill="#E6A811"/>
<path d="M73 152.287C70.2889 149.186 63.7822 147 56.1762 147C46.1376 147 38 150.805 38 155.5C38 156.708 38.5443 157.854 39.5161 158.894V152.287H40.6664V159.914C41.3724 160.456 42.1932 160.959 43.1309 161.411V154.282H44.2812V161.918C45.0489 162.228 45.8739 162.508 46.7457 162.756V156.224H47.8961V163.06C48.6871 163.249 49.51 163.412 50.3606 163.548V156.224H51.5109V163.707C52.3147 163.805 53.1355 163.883 53.9754 163.932V156.224H55.1257V163.975C55.4766 163.983 55.8211 164 56.1762 164C56.6546 164 57.1224 163.983 57.5923 163.966V156.224H58.7427V163.905C59.5826 163.849 60.4077 163.771 61.2072 163.663V156.224H62.3575V163.484C63.2059 163.34 64.0352 163.177 64.822 162.977V156.224H65.9723V162.652C66.8505 162.389 67.6713 162.09 68.4368 161.761V154.282H69.5872V161.222C70.5313 160.74 71.3648 160.209 72.0516 159.634V152.287H73Z" fill="#E6A811"/>
<path d="M40 153V159.063C40.2884 159.388 40.6285 159.7 41 160V153H40Z" fill="#FABD09"/>
<path d="M43 154V161.469C43.3179 161.655 43.6543 161.829 44 162V154H43Z" fill="#FABD09"/>
<path d="M47 157V162.734C47.3272 162.827 47.658 162.918 48 163V157H47Z" fill="#FABD09"/>
<path d="M51 157V163.851C51.329 163.907 51.6636 163.954 52 164V157H51Z" fill="#FABD09"/>
<path d="M54 157V163.962C54.3309 163.981 54.6654 163.99 55 164V157H54Z" fill="#FABD09"/>
<path d="M57 157V164C57.3364 163.987 57.6691 163.967 58 163.944V157H57Z" fill="#FABD09"/>
<path d="M60 157V164C60.6765 163.95 61.3383 163.892 62 163.832V157H60Z" fill="#FABD09"/>
<path d="M64 157V163C64.3438 162.911 64.6728 162.811 65 162.711V157H64Z" fill="#FABD09"/>
<path d="M68 154V162C68.3475 161.816 68.6821 161.625 69 161.423V154H68Z" fill="#FABD09"/>
<path d="M73 158.036V153.211C72.8817 153.14 72.7782 153.069 72.6488 153H71V159C71.78 158.692 72.4381 158.369 73 158.036Z" fill="#FABD09"/>
<path d="M74 151C74 155.418 65.9413 159 56 159C46.0587 159 38 155.418 38 151C38 146.582 46.0587 143 56 143C65.9413 143 74 146.582 74 151Z" fill="#FBE790"/>
<path d="M69 151C69 154.314 62.9565 157 55.5 157C48.0436 157 42 154.314 42 151C42 147.686 48.0436 145 55.5 145C62.9565 145 69 147.686 69 151Z" fill="#FABD09"/>
<path d="M59.7591 150.358C60.01 149.82 60.0161 149.441 59.5891 149.094C59.1076 148.699 58.4844 148.619 57.6427 148.945C55.8622 149.634 58.6868 151.757 55.1075 153.144C53.3108 153.839 51.3845 153.937 49.9298 153.246L47.9813 154L47 153.199L48.8756 152.475C48.4103 151.934 48.1836 151.168 48.5155 150.466L51.0203 150.281C50.822 150.974 50.8949 151.484 51.3785 151.881C51.947 152.342 52.6309 152.383 53.4908 152.051C55.4211 151.304 52.7118 149.137 56.0827 147.832C57.9179 147.122 59.7813 147.108 61.0884 147.746L63.0187 147L64 147.801L62.1061 148.533C62.5877 149.127 62.4562 149.74 62.0819 150.36L59.7591 150.358Z" fill="white"/>
<path d="M0 97V139.137H0.040845C0.024503 139.384 0 139.628 0 139.875C0 153.199 23.4875 164 52.4598 164C52.9766 164 53.4873 163.99 54 163.982V139.137V121.107C53.4873 121.115 52.9766 121.125 52.4598 121.125C23.4875 121.125 0 110.324 0 97Z" fill="#EDECEC"/>
<path d="M38 131.856C16.0201 128.907 0 119.792 0 109V115.146C0 125.936 16.0201 135.051 38 138V131.856Z" fill="#343434"/>
<path d="M38 145.856C16.0201 142.907 0 133.792 0 123V129.146C0 139.936 16.0201 149.051 38 152V145.856Z" fill="#343434"/>
<path d="M263.265 154.99C263.265 154.99 265.242 156.969 267.883 159.339C270.328 161.532 271.085 162.162 273.354 164.2C274.677 165.39 273.586 166.484 271.062 166.394C268.842 166.316 263.817 165.322 261.004 164.392C259.007 163.732 255.346 161.868 253.475 160.78C251.606 159.69 251.24 158.178 251.24 158.178V154.519L263.265 154.99Z" fill="#3D4961"/>
<path d="M247.066 163.672C247.066 163.672 249.042 165.831 251.683 168.416C254.128 170.808 254.884 171.498 257.153 173.721C258.478 175.018 257.387 176.211 254.862 176.115C252.643 176.028 247.618 174.944 244.805 173.93C242.807 173.209 239.146 171.177 237.275 169.989C235.404 168.801 235.04 167.152 235.04 167.152V163.16L247.066 163.672Z" fill="#3D4961"/>
<path d="M228.636 88.2739C227.698 73.9506 235.759 66.421 235.759 66.421C235.117 61.5951 260.359 69.6414 260.359 69.6414C260.359 69.6414 261.869 100.833 262.472 114.633C263.152 130.223 265.28 153.527 265.28 153.527C265.28 153.527 263.186 156.678 257.282 156.678C253.895 156.678 250.392 151.947 250.392 151.947L248.216 113.866L246.068 93.0479C246.068 93.0479 245.514 111.053 245.514 119.798C245.514 127.89 249.003 161.865 249.003 161.865C249.003 161.865 246.428 166.399 240.559 166.399C234.26 166.399 232.116 162.39 232.116 162.39C232.116 162.39 232.499 140.061 231.458 123.815C230.689 111.827 229.067 94.8535 228.636 88.2739Z" fill="#343434"/>
<path d="M252.179 23.8396C252.179 23.8396 256.756 23.7683 260.085 30.0141C263.415 36.2583 265.28 41.0195 265.28 41.0195C265.28 41.0195 264.905 44.4308 255.968 47.5996C248.755 41.0908 246.733 26.8817 252.179 23.8396Z" fill="#0077EF"/>
<path d="M252.004 25.8204C252.004 25.8204 255.503 29.2029 258.37 39.8842C260.113 46.3813 259.868 77.9366 259.868 77.9366C259.868 77.9366 253.826 85.3994 242.456 85.3994C234.529 85.3994 230.709 83.4404 229.284 80.3144C230.258 69.0537 225.901 44.307 226.448 40.0497C226.993 35.7941 236.786 27.6106 236.786 27.6106C236.786 27.6106 245.178 23.0304 252.004 25.8204Z" fill="#0486FF"/>
<path d="M246.59 26.9648L248 34.5136C248 34.5136 243.816 38.8276 239.72 35.6036C235.626 32.3781 235.04 30.8945 235.04 30.8945L237.056 20.5998L246.59 26.9648Z" fill="#F68C83"/>
<path d="M240.934 9.3637C244.229 6.86963 252.036 6.0691 254.885 14.0824C257.873 22.4858 250.219 32.9822 246.14 31.1994C243.856 30.1999 239.053 26.653 237.702 22.2289C236.178 17.2501 238.375 11.3001 240.934 9.3637Z" fill="#FABAAC"/>
<path d="M255.589 16.1174C254.213 17.5159 252.207 19.0688 248.067 18.3878C244.679 17.8326 242.253 16.2558 242.253 16.2558L241.558 20.7776C241.558 20.7776 240.88 20.6551 240.369 20.34C240.299 18.5501 239.657 17.9948 238.67 18.5278C237.555 19.1308 237.508 21.6797 237.508 21.6797C237.508 21.6797 234.137 18.4356 235.275 13.3347C235.984 10.1574 240.289 3.87755 246.295 4.43441C252.301 4.99127 255.792 8.94661 256.536 12.3705C256.908 14.0857 256.21 15.4858 255.589 16.1174Z" fill="#343434"/>
<path d="M229.302 35.7551C226.239 36.2817 224.193 38.9529 222.685 46.4432C221.55 52.0752 222.106 55.7265 223.57 59.8789C226.541 61.8453 234.748 58.9259 234.748 58.9259C234.748 58.9259 235.181 51.9336 234.993 47.9626C234.691 41.6639 232.642 35.1808 229.302 35.7551Z" fill="#0077EF"/>
<path d="M264.65 41.1196C264.65 41.1196 267.8 49.3774 269.474 51.9082C271.149 54.4374 270.591 58.579 270.591 60.0896C270.591 61.6001 267.666 74.5996 267.666 74.5996L262.039 70.2001V58.2909L259.175 52.8457L258.8 46.1462L264.65 41.1196Z" fill="#FABAAC"/>
<path d="M276.08 59.4795L261.329 67.6004L255.56 86.4795L270.309 78.3404L276.08 59.4795Z" fill="#999A99"/>
<path d="M278.24 60.561L276.017 59.4799L273.92 62.0534L276.017 64.8799L278.24 60.561Z" fill="#999A99"/>
<path d="M255.56 87.4022L257.42 88.6396L259.88 85.2862L257.72 83.2396L255.56 87.4022Z" fill="#999A99"/>
<path d="M278.24 60.5597L263.49 69.0055L257.72 88.6396L272.469 80.175L278.24 60.5597Z" fill="#C1BFBD"/>
<path d="M235.078 56.7645C235.078 56.7645 234.251 66.0794 234.083 67.3637C233.917 68.6495 240.004 69.6395 244.526 71.696C247.492 73.0452 252.061 77.28 254.902 78.8862C254.902 78.8862 259.375 77.5791 260.695 77.1435C262.017 76.7078 264.898 75.7763 265.687 76.5924C266.476 77.4085 267.274 83.0429 263.682 84.2784C260.09 85.5139 257.929 85.8212 254.104 84.7287C248.833 83.2218 237.279 79.0813 233.619 78.1855C228.487 76.9305 227.741 75.5959 226.855 73.598C225.088 69.607 223.307 63.2979 223.16 56.2394C229.361 57.7155 235.078 56.7645 235.078 56.7645Z" fill="#FABAAC"/>
<path d="M204.787 206.36L204.8 159.818L167 138.32V184.809L204.787 206.36Z" fill="#D9A14E"/>
<path d="M204.8 206.36L204.813 159.818L242.6 138.32V184.809L204.8 206.36Z" fill="#E6AF64"/>
<path d="M242.6 137.778L204.799 158.84L167 137.778L204.786 116.72L242.6 137.778Z" fill="#FDDDB7"/>
<path d="M181.04 159.438L188.6 164.24V150.689L181.04 145.88V159.438Z" fill="#464648"/>
<path d="M181.04 145.436L218.987 124.28L227.48 129.012L189.514 150.2L181.04 145.436Z" fill="#656769"/>
<path d="M211.28 167.229V179.36L236.12 164.506V152.36L211.28 167.229Z" fill="white"/>
<path d="M204.787 155.6L204.8 129.754L167 108.08V133.871L204.787 155.6Z" fill="#D9A14E"/>
<path d="M204.8 155.6L204.813 129.754L242.6 108.08V133.871L204.8 155.6Z" fill="#E6AF64"/>
<path d="M242.6 108.077L204.8 129.68L167 108.077L204.787 86.4797L242.6 108.077Z" fill="#FDDDB7"/>
<path d="M181.04 129.479L188.6 134V121.244L181.04 116.72V129.479Z" fill="#464648"/>
<path d="M181.04 116.077L218.989 94.04L227.48 98.9688L189.515 121.04L181.04 116.077Z" fill="#656769"/>
<path d="M210.2 133.15V143.72L236.12 128.384V117.8L210.2 133.15Z" fill="white"/>
<path d="M204.792 123.2L204.8 108.065L179.96 94.0402V109.185L204.792 123.2Z" fill="#D9A14E"/>
<path d="M204.8 123.2L204.807 108.155L231.8 91.8802V106.924L204.8 123.2Z" fill="#E6AF64"/>
<path d="M231.8 91.7897L203.875 108.08L179.96 94.1257L207.868 77.8401L231.8 91.7897Z" fill="#FDDDB7"/>
<path d="M206.96 108.501V116.72L228.56 104.434V96.1997L206.96 108.501Z" fill="white"/>
<path d="M186.44 105.33L194 110.24V102.194L186.44 97.2802V105.33Z" fill="#464648"/>
<path d="M186.44 96.8809L213.918 81.0796L222.08 85.7661L194.579 101.6L186.44 96.8809Z" fill="#656769"/>
<path d="M205.872 99.4395L205.88 87.5956L188.6 77.8395V89.6913L205.872 99.4395Z" fill="#D9A14E"/>
<path d="M205.88 99.4395L205.888 87.8546L225.32 76.7595V88.3459L205.88 99.4395Z" fill="#E6AF64"/>
<path d="M225.32 76.5328L205.615 87.5596L188.6 78.0757L208.342 67.0396L225.32 76.5328Z" fill="#FDDDB7"/>
<path d="M194 81.0797L198.32 83.5739V89.7197L194 87.2271V81.0797Z" fill="#464648"/>
<path d="M194 80.861L213.418 70.2802L217.76 72.6323L198.319 83.2402L194 80.861Z" fill="#656769"/>
<path d="M360.409 85.7296C360.409 85.7296 359.652 93.0364 359.756 96.2844C359.861 99.5324 359.876 100.97 359.387 104.996C358.928 108.792 358.677 123.95 358.884 128.947C359.09 133.943 362.212 138.439 363.379 140.187C364.545 141.936 361.236 144.934 358.502 142.435C355.77 139.938 355.474 139.437 353.961 138.688C352.448 137.938 351.192 134.442 352.176 130.446C353.16 126.448 352.233 118.704 350.681 111.959C349.128 105.214 350.531 96.4718 349.712 94.4738C348.89 92.4744 360.409 85.7296 360.409 85.7296Z" fill="#F68C83"/>
<path d="M363.485 139.864C363.485 139.864 366.878 142.35 368.034 143.587C369.187 144.824 365.905 146.878 362.64 145.943C359.374 145.008 356.587 142.191 353.928 140.099C351.32 138.046 350.6 137.303 350.6 134.809C350.6 133.582 351.834 132.23 351.834 132.23C351.834 132.23 352.884 137.239 356.65 139.181C360.246 141.034 361.7 141.275 363.485 139.864Z" fill="#3D4961"/>
<path d="M350.063 92.2927C350.063 92.2927 350.013 99.4749 350.121 102.668C350.23 105.86 349.774 106.903 349.004 110.586C348.236 114.27 348.268 129.861 348.482 134.773C348.696 139.684 351.931 144.104 353.141 145.821C354.348 147.541 350.92 150.487 348.087 148.031C345.256 145.577 344.949 145.085 343.382 144.348C341.814 143.611 340.512 140.174 341.532 136.245C342.551 132.317 341.591 124.705 339.982 118.075C338.374 111.445 340.095 102.797 339.525 100.733C338.124 95.6621 334.97 87.9008 337.773 86.0312C340.712 84.0732 350.063 92.2927 350.063 92.2927Z" fill="#FABAAC"/>
<path d="M353.255 145.953C353.255 145.953 356.648 148.604 357.804 149.924C358.957 151.243 355.675 153.434 352.41 152.437C349.144 151.439 346.357 148.435 343.698 146.203C341.09 144.014 340.37 143.221 340.37 140.561C340.37 139.252 341.604 137.809 341.604 137.809C341.604 137.809 342.654 143.152 346.42 145.224C350.016 147.201 351.47 147.458 353.255 145.953Z" fill="#3D4961"/>
<path d="M361.512 61.263C361.512 61.263 362.048 66.3821 362.494 73.0077C363.042 81.1457 362.267 90.9212 362.267 90.9212C362.267 90.9212 350.82 100.878 346.522 99.5594C339.57 97.4262 335.912 92.1329 335.912 92.1329C335.912 92.1329 334.867 73.5615 337.65 61.263C340.433 48.9644 360.945 54.944 361.512 61.263Z" fill="#FBE790"/>
<path d="M355.97 9.47019C355.97 9.47019 356.448 11.9351 355.961 15.6156C355.718 17.4535 354.698 19.7002 354.698 19.7002L346.88 16.3855L355.97 9.47019Z" fill="#343434"/>
<path d="M348.74 19.9949C350.491 19.6014 352.844 19.515 354.27 20.2802C357.322 21.9145 363.019 28.1166 366.41 31.9046C364.611 32.9639 362.248 35.1293 361.567 38.2998C356.585 34.0934 352.227 30.5424 351.235 29.2417C349.954 27.5592 350.131 21.3688 348.74 19.9949Z" fill="#0077EF"/>
<path d="M331.291 33.1283C331.812 30.607 339.429 25.0109 339.429 25.0109C339.429 25.0109 343.999 28.1982 345.609 29.3011C347.15 30.3572 349.772 33.1283 349.995 33.3649C350.007 33.362 350.019 33.3606 350.031 33.3576C349.975 32.8843 349.488 29.0907 347.744 25.1014C347.195 23.8466 347.744 20.0735 347.744 20.0735C347.744 20.0735 348.353 19.8953 349.237 19.6995C350.649 21.0712 353.471 24.7596 354.979 26.2715C356.433 27.7308 362.022 32.2358 360.765 37.2272C360.391 38.7098 359.902 40.0041 359.192 41.8534C358.397 43.9277 358.647 47.7973 358.866 49.8934C359.12 52.3008 361.76 58.5557 361.76 58.5557C361.76 58.5557 356.357 65.2446 350.205 65.2694C343.023 65.2986 337.696 60.6417 337.696 60.6417C337.696 60.6417 338.885 50.0702 338.437 45.7478C338.437 45.7478 329.571 41.4546 331.291 33.1283Z" fill="#0486FF"/>
<path d="M347.81 37.0834C347.81 37.0834 345.976 32.6563 341.84 30.095C337.704 27.5351 336.423 27.1398 336.423 27.1398L334.79 28.454C334.79 28.454 337.834 29.8673 340.03 31.377C342.228 32.8881 345.435 38.2998 345.435 38.2998L347.81 37.0834Z" fill="#FBE790"/>
<path d="M358.04 32.0667C358.04 32.0667 356.066 27.0683 352.097 24.3964C348.13 21.723 346.604 21.5597 346.604 21.5597L345.02 22.9591C345.02 22.9591 348.628 24.1762 350.829 25.6281C354.074 27.7694 355.977 32.7197 355.977 32.7197L358.04 32.0667Z" fill="#FBE790"/>
<path d="M348.152 20.2089C348.152 20.2089 348.314 24.5352 349.241 26.8052C349.967 27.7715 350.814 30.8884 350.551 33.6504C349.011 32.9168 346.424 30.5806 344.951 29.3771C343.169 27.9203 338.51 25.0758 338.51 25.0758L338.667 12.2604L348.152 20.2089Z" fill="#F68C83"/>
<path d="M342.656 4.51191C345.493 2.26641 352.215 1.54605 354.669 8.76076C357.241 16.3249 350.651 25.7744 347.139 24.1696C345.172 23.2699 341.036 20.0771 339.871 16.0935C338.561 11.6101 340.451 6.25619 342.656 4.51191Z" fill="#FABAAC"/>
<path d="M336.953 6.86276C338.136 4.68657 340.914 1.70891 342.957 0.870432C347.051 -0.81245 349.866 0.63345 353.725 4.17402C356.044 6.30429 357.11 8.81824 357.11 12.8003C357.11 12.8003 351.15 17.0445 347.566 17.7852C345.904 18.1289 343.605 17.1408 342.259 16.4816C342.098 18.3096 341.94 20.3821 341.94 21.3672C341.94 23.3405 342.579 26.21 342.579 26.21C342.579 26.21 337.208 25.1922 335.63 22.8768C334.053 20.5628 334.81 10.8033 336.953 6.86276Z" fill="#343434"/>
<path d="M357.576 31.7902L345.647 38.7263C345.647 38.7263 347.732 46.3425 347.894 49.5259C348.054 52.7093 347.483 59.6289 344.979 60.7614C342.478 61.8924 338.14 59.175 338.14 59.175L337.58 61.7921C337.58 61.7921 340.635 70.3116 353.976 68.8135C357.585 68.4075 361.76 64.2624 361.76 64.2624C361.76 64.2624 361.462 39.1967 357.576 31.7902Z" fill="#FBE790"/>
<path d="M332.47 31.9573C333.045 31.1276 337.065 33.4203 339.769 38.0356C343.428 44.2846 344.09 48.0958 344.09 48.0958C344.09 48.0958 340.843 46.7666 337.515 52.25C334.652 48.1755 332.763 46.3567 331.364 42.7206C329.63 38.2135 329.518 36.2097 332.47 31.9573Z" fill="#0077EF"/>
<path d="M415.7 162.92L412.91 161.232V98.7499L415.7 100.438V162.92Z" fill="#343434"/>
<path d="M415.7 162.92L418.49 161.232V98.7499L415.7 100.438V162.92Z" fill="#464648"/>
<path d="M323.63 215L320.84 213.312V150.83L323.63 152.518V215Z" fill="#343434"/>
<path d="M323.63 215L327.35 213.312V150.83L323.63 152.518V215Z" fill="#464648"/>
<path d="M380.36 142.46L377.57 140.772V78.29L380.36 79.9776V142.46Z" fill="#343434"/>
<path d="M380.36 142.46L383.15 140.772V78.29L380.36 79.9776V142.46Z" fill="#464648"/>
<path d="M288.29 194.54L285.5 192.852V130.37L288.29 132.058V194.54Z" fill="#343434"/>
<path d="M288.29 194.54L291.08 192.852V130.37L288.29 132.058V194.54Z" fill="#464648"/>
<path d="M323.63 138.825L418.49 83.8698V99.5932L323.63 154.55V138.825Z" fill="#BF3B22"/>
<path d="M323.63 154.55V138.836L285.5 117.35V132.173L323.63 154.55Z" fill="#A12D20"/>
<path d="M323.63 142.46L421.28 85.7158V81.08L323.63 137.824V142.46Z" fill="#D5482B"/>
<path d="M323.63 137.853L283.64 114.56V119.167L323.63 142.46V137.853Z" fill="#BF3B22"/>
<path d="M421.28 81.228L380.945 57.8296L283.64 114.439L323.988 137.81L421.28 81.228Z" fill="#EA5E46"/>
<path d="M398.958 67.1302V83.3814L398.96 83.3829C398.96 88.2749 391.048 92.2402 381.29 92.2402C371.53 92.2402 363.62 88.2749 363.62 83.3829V67.1302H398.958Z" fill="#C1BFBD"/>
<path d="M381.29 64.0433C373.444 64.0433 366.803 66.5091 364.496 69.9199C363.933 69.0883 363.62 68.2014 363.62 67.2796C363.62 62.5734 371.53 58.7599 381.29 58.7599C391.048 58.7599 398.96 62.5734 398.96 67.2796C398.96 68.2014 398.645 69.0883 398.083 69.9199C395.776 66.5091 389.134 64.0433 381.29 64.0433Z" fill="#707273"/>
<path d="M381.291 76.4297C373.47 76.4297 366.849 73.8921 364.55 70.384C366.849 66.8758 373.47 64.3397 381.291 64.3397C389.11 64.3397 395.73 66.8758 398.03 70.384C395.73 73.8921 389.11 76.4297 381.291 76.4297Z" fill="#FBE790"/>
<path d="M391.701 47.5173C391.701 47.5173 387.898 50.4787 386.597 54.2945C385.297 58.1119 383.576 69.9199 383.576 69.9199L382.22 69.3763C382.22 69.3763 383.426 56.0966 384.976 52.536C386.658 48.6766 387.571 47.5548 390.019 46.1943C391.701 45.2602 393.502 45.7978 391.701 47.5173Z" fill="#464648"/>
<path d="M366.436 31.7894C366.436 31.7894 372.006 37.9743 373.122 39.0712C374.238 40.168 381.432 47.4351 385.453 51.5505C387.127 53.2631 388.385 55.8898 387.517 57.4926C386.648 59.0955 386.671 60.0008 384.09 59.5913C381.01 59.1043 381.269 54.5955 380.988 54.0499C379.134 50.4537 369.184 44.1475 369.184 44.1475L360.83 37.7301C360.83 37.7301 361.858 33.7082 366.436 31.7894Z" fill="#F68C83"/>
<path d="M374.765 55.0395C374.77 55.1342 374.78 55.2249 374.78 55.3196C374.78 59.2751 371.449 62.4795 367.34 62.4795C363.232 62.4795 359.9 59.2751 359.9 55.3196C359.9 55.2249 359.911 55.1342 359.914 55.0395H374.765Z" fill="#C1BFBD"/>
<path d="M367.34 52.8314C363.888 52.8314 360.993 53.7698 360.154 55.04C359.993 54.7989 359.9 54.5454 359.9 54.2844C359.9 52.6475 363.232 51.32 367.34 51.32C371.449 51.32 374.78 52.6475 374.78 54.2844C374.78 54.5454 374.686 54.7989 374.527 55.04C373.687 53.7698 370.793 52.8314 367.34 52.8314Z" fill="#707273"/>
<path d="M367.339 57.8301C363.765 57.8301 360.768 56.6447 359.9 55.0401C360.768 53.4355 363.765 52.2501 367.339 52.2501C370.914 52.2501 373.91 53.4355 374.78 55.0401C373.91 56.6447 370.914 57.8301 367.339 57.8301Z" fill="#FBE790"/>
<path d="M356.164 84.7999C356.169 84.905 356.18 85.0085 356.18 85.115C356.18 89.5634 352.641 93.1699 348.275 93.1699C343.91 93.1699 340.37 89.5634 340.37 85.115C340.37 85.0085 340.382 84.905 340.385 84.7999H356.164Z" fill="#C1BFBD"/>
<path d="M348.275 82.9671C344.607 82.9671 341.531 84.1401 340.64 85.7295C340.469 85.4265 340.37 85.1112 340.37 84.7849C340.37 82.7372 343.91 81.0795 348.275 81.0795C352.641 81.0795 356.18 82.7372 356.18 84.7849C356.18 85.1112 356.08 85.4265 355.911 85.7295C355.018 84.1401 351.944 82.9671 348.275 82.9671Z" fill="#707273"/>
<path d="M348.274 88.5195C344.924 88.5195 342.114 87.3345 341.3 85.7303C342.114 84.1246 344.924 82.9395 348.274 82.9395C351.626 82.9395 354.434 84.1246 355.25 85.7303C354.434 87.3345 351.626 88.5195 348.274 88.5195Z" fill="#FBE790"/>
<path d="M367.325 91.3097C367.328 91.4147 367.34 91.5183 367.34 91.6248C367.34 96.0732 364.008 99.6797 359.9 99.6797C355.79 99.6797 352.46 96.0732 352.46 91.6248C352.46 91.5183 352.47 91.4147 352.474 91.3097H367.325Z" fill="#C1BFBD"/>
<path d="M359.9 89.4794C356.447 89.4794 353.553 90.6524 352.713 92.2402C352.553 91.9388 352.46 91.6235 352.46 91.2972C352.46 89.2495 355.79 87.5902 359.9 87.5902C364.008 87.5902 367.34 89.2495 367.34 91.2972C367.34 91.6235 367.246 91.9388 367.086 92.2402C366.247 90.6524 363.352 89.4794 359.9 89.4794Z" fill="#707273"/>
<path d="M359.435 95.0303C356.084 95.0303 353.275 93.8452 352.46 92.2395C353.275 90.6353 356.084 89.4503 359.435 89.4503C362.786 89.4503 365.596 90.6353 366.41 92.2395C365.596 93.8452 362.786 95.0303 359.435 95.0303Z" fill="#FBE790"/>
<path d="M378.485 97.8195C378.49 97.926 378.5 98.028 378.5 98.1346C378.5 102.583 375.169 106.189 371.06 106.189C366.952 106.189 363.62 102.583 363.62 98.1346C363.62 98.028 363.632 97.926 363.635 97.8195H378.485Z" fill="#C1BFBD"/>
<path d="M371.06 95.9892C367.608 95.9892 364.713 97.1622 363.874 98.75C363.714 98.447 363.62 98.1316 363.62 97.8054C363.62 95.7593 366.951 94.1 371.06 94.1C375.169 94.1 378.5 95.7593 378.5 97.8054C378.5 98.1316 378.406 98.447 378.247 98.75C377.407 97.1622 374.513 95.9892 371.06 95.9892Z" fill="#707273"/>
<path d="M371.059 101.54C367.486 101.54 364.488 100.355 363.62 98.75C364.488 97.1454 367.486 95.96 371.059 95.96C374.634 95.96 377.63 97.1454 378.5 98.75C377.63 100.355 374.634 101.54 371.059 101.54Z" fill="#FBE790"/>
<path d="M344.075 91.3097C344.08 91.4147 344.09 91.5182 344.09 91.6248C344.09 96.0732 340.759 99.6797 336.65 99.6797C332.542 99.6797 329.21 96.0732 329.21 91.6248C329.21 91.5182 329.222 91.4147 329.226 91.3097H344.075Z" fill="#C1BFBD"/>
<path d="M336.65 89.4794C333.198 89.4794 330.303 90.6524 329.464 92.2402C329.303 91.9388 329.21 91.6234 329.21 91.2956C329.21 89.2495 332.542 87.5902 336.65 87.5902C340.759 87.5902 344.09 89.2495 344.09 91.2956C344.09 91.6234 343.996 91.9388 343.837 92.2402C342.997 90.6524 340.103 89.4794 336.65 89.4794Z" fill="#707273"/>
<path d="M336.649 95.0303C333.075 95.0303 330.078 93.8436 329.21 92.2395C330.078 90.6353 333.075 89.4503 336.649 89.4503C340.224 89.4503 343.22 90.6353 344.09 92.2395C343.22 93.8436 340.224 95.0303 336.649 95.0303Z" fill="#FBE790"/>
<path d="M355.235 97.8195C355.238 97.9245 355.25 98.028 355.25 98.1346C355.25 102.583 351.918 106.189 347.81 106.189C343.701 106.189 340.37 102.583 340.37 98.1346C340.37 98.028 340.38 97.9245 340.385 97.8195H355.235Z" fill="#C1BFBD"/>
<path d="M347.81 95.9892C344.357 95.9892 341.463 97.1622 340.623 98.75C340.464 98.4486 340.37 98.1332 340.37 97.8054C340.37 95.7593 343.701 94.1 347.81 94.1C351.918 94.1 355.25 95.7593 355.25 97.8054C355.25 98.1332 355.156 98.4486 354.996 98.75C354.157 97.1622 351.262 95.9892 347.81 95.9892Z" fill="#707273"/>
<path d="M347.811 101.54C344.236 101.54 341.24 100.355 340.37 98.75C341.24 97.1454 344.236 95.96 347.811 95.96C351.384 95.96 354.382 97.1454 355.25 98.75C354.382 100.355 351.384 101.54 347.811 101.54Z" fill="#FBE790"/>
<path d="M366.395 104.33C366.399 104.435 366.41 104.539 366.41 104.645C366.41 109.094 363.079 112.7 358.97 112.7C354.862 112.7 351.53 109.094 351.53 104.645C351.53 104.539 351.541 104.435 351.544 104.33H366.395Z" fill="#C1BFBD"/>
<path d="M358.97 102.498C355.518 102.498 352.623 103.671 351.784 105.26C351.623 104.957 351.53 104.642 351.53 104.315C351.53 102.268 354.862 100.61 358.97 100.61C363.079 100.61 366.41 102.268 366.41 104.315C366.41 104.642 366.316 104.957 366.157 105.26C365.317 103.671 362.423 102.498 358.97 102.498Z" fill="#707273"/>
<path d="M359.434 108.05C356.084 108.05 353.274 106.865 352.46 105.261C353.274 103.655 356.084 102.47 359.434 102.47C362.786 102.47 365.594 103.655 366.41 105.261C365.594 106.865 362.786 108.05 359.434 108.05Z" fill="#FBE790"/>
<path d="M343.574 47.7457C343.574 47.7457 346.999 53.8447 348.26 55.5505C349.6 57.3673 362.334 61.3033 364.835 60.4723C369.419 58.9476 376.396 56.5495 375.655 58.9476C375.125 60.6666 374.811 63.1421 369.7 64.4886C364.59 65.8352 361.156 65.1385 357.5 64.6274C354.311 64.1819 348.85 63.7482 345.638 63.1056C343.773 62.7317 336.65 52.0015 336.65 52.0015C336.65 52.0015 338.865 46.6576 343.574 47.7457Z" fill="#FABAAC"/>
<path d="M336.648 102.47V118.12L336.65 118.121C336.65 122.832 328.738 126.65 318.98 126.65C309.22 126.65 301.31 122.832 301.31 118.121V102.47H336.648Z" fill="#C1BFBD"/>
<path d="M318.98 98.8926C311.134 98.8926 304.493 101.566 302.186 105.26C301.623 104.359 301.31 103.398 301.31 102.399C301.31 97.3016 309.22 93.1698 318.98 93.1698C328.738 93.1698 336.65 97.3016 336.65 102.399C336.65 103.398 336.336 104.359 335.772 105.26C333.466 101.566 326.824 98.8926 318.98 98.8926Z" fill="#707273"/>
<path d="M318.98 110.84C311.16 110.84 304.539 108.302 302.24 104.794C304.539 101.287 311.16 98.7498 318.98 98.7498C326.8 98.7498 333.42 101.287 335.72 104.794C333.42 108.302 326.8 110.84 318.98 110.84Z" fill="#BF3B22"/>
<path d="M481.057 148.557C481.057 148.557 479.11 150.725 476.511 153.323C474.106 155.726 473.361 156.418 471.128 158.65C469.824 159.954 470.898 161.154 473.383 161.055C475.567 160.969 480.514 159.88 483.28 158.86C485.246 158.137 488.849 156.095 490.69 154.902C492.531 153.708 492.89 152.052 492.89 152.052V148.041L481.057 148.557Z" fill="#3D4961"/>
<path d="M495.935 157.819C495.935 157.819 493.99 159.832 491.39 162.244C488.985 164.476 488.24 165.119 486.007 167.192C484.704 168.404 485.778 169.516 488.262 169.426C490.447 169.344 495.392 168.333 498.16 167.388C500.126 166.715 503.729 164.82 505.569 163.711C507.41 162.603 507.77 161.064 507.77 161.064V157.341L495.935 157.819Z" fill="#3D4961"/>
<path d="M515.135 84.4819C516.06 70.4421 508.099 63.0616 508.099 63.0616C508.733 58.3312 483.799 66.2183 483.799 66.2183C483.799 66.2183 482.308 96.792 481.714 110.319C481.04 125.6 478.94 148.443 478.94 148.443C478.94 148.443 481.007 151.532 486.84 151.532C490.185 151.533 493.644 146.894 493.644 146.894L495.795 109.567L497.915 89.1628C497.915 89.1628 498.463 106.81 498.463 115.381C498.463 123.315 495.018 156.616 495.018 156.616C495.018 156.616 497.561 161.061 503.358 161.061C509.578 161.061 511.698 157.13 511.698 157.13C511.698 157.13 511.319 135.243 512.347 119.32C513.107 107.569 514.709 90.9311 515.135 84.4819Z" fill="#343434"/>
<path d="M492.479 21.5606C492.479 21.5606 487.747 21.4908 484.306 27.6025C480.865 33.7127 478.94 38.3717 478.94 38.3717C478.94 38.3717 479.327 41.7097 488.56 44.8105C496.016 38.4415 498.104 24.5374 492.479 21.5606Z" fill="#0077EF"/>
<path d="M491.467 23.363C491.467 23.363 487.966 26.6397 485.101 36.9872C483.358 43.2812 483.601 73.8505 483.601 73.8505C483.601 73.8505 489.645 81.0801 501.014 81.0801C508.94 81.0801 512.759 79.1823 514.185 76.154C513.211 65.2451 517.569 41.2718 517.022 37.1476C516.475 33.0249 506.684 25.0972 506.684 25.0972C506.684 25.0972 498.291 20.6601 491.467 23.363Z" fill="#379FFF"/>
<path d="M497.824 23.4872L496.61 31.2874C496.61 31.2874 500.213 35.7466 503.739 32.4137C507.266 29.0808 507.77 27.5478 507.77 27.5478L506.034 16.9104L497.824 23.4872Z" fill="#F68C83"/>
<path d="M502.126 6.44032C498.788 4.0974 490.881 3.34538 487.994 10.8745C484.967 18.7687 492.721 28.6275 496.853 26.9527C499.168 26.0152 504.032 22.6819 505.403 18.5258C506.944 13.8488 504.721 8.2608 502.126 6.44032Z" fill="#FABAAC"/>
<path d="M487.421 13.3821C488.782 14.7369 490.769 16.2412 494.87 15.5831C498.225 15.0436 500.628 13.5161 500.628 13.5161L501.315 17.8966C501.315 17.8966 501.986 17.7779 502.493 17.4727C502.563 15.7403 503.197 15.2008 504.175 15.7171C505.28 16.3013 505.326 18.7705 505.326 18.7705C505.326 18.7705 508.664 15.6278 507.538 10.6878C506.834 7.60829 502.571 1.52468 496.625 2.06414C490.677 2.60361 487.218 6.43534 486.483 9.75226C486.115 11.4138 486.804 12.7702 487.421 13.3821Z" fill="#343434"/>
<path d="M433.907 147.416V129.301C433.907 127.351 434.954 125.55 436.653 124.575L457.942 112.363V133.627L433.907 147.416ZM457.942 79.2207V109.98L434.257 123.562C432.557 124.536 431.51 126.339 431.51 128.289V169.431H433.907V149.797L457.942 136.01V148.96H460.34V79.2207H457.942Z" fill="#999A99"/>
<path d="M433.37 164.781L427.83 167.738C426.078 168.673 425 170.4 425 172.269V177.801H427.47V173.241C427.47 171.372 428.549 169.645 430.299 168.71L433.37 167.071V164.781Z" fill="#999A99"/>
<path d="M454.76 158.27L435.23 168.941V171.29L454.76 160.621V158.27Z" fill="#999A99"/>
<path d="M471.5 144.829C471.5 153.076 466.502 162.655 460.34 166.226C457.474 167.887 454.861 167.955 452.885 166.726C450.61 165.311 449.18 162.174 449.18 157.76C449.18 149.515 454.176 139.934 460.34 136.364C466.502 132.794 471.5 136.584 471.5 144.829Z" fill="#343434"/>
<path d="M455.69 168.5L452.9 167.279L454.899 166.64L455.69 168.5Z" fill="#343434"/>
<path d="M466.85 135.021L469.64 137.128C469.64 137.128 467.725 137.795 467.691 137.81C467.655 137.826 466.85 135.021 466.85 135.021Z" fill="#343434"/>
<path d="M474.29 146.04C474.29 154.523 469.084 164.375 462.665 168.048C456.244 171.722 451.04 167.823 451.04 159.341C451.04 150.859 456.244 141.005 462.665 137.333C469.084 133.66 474.29 137.559 474.29 146.04Z" fill="#464648"/>
<path d="M464.99 151.212C464.99 153.097 463.948 155.287 462.666 156.102C461.381 156.919 460.34 156.054 460.34 154.168C460.34 152.283 461.381 150.093 462.666 149.278C463.948 148.461 464.99 149.328 464.99 151.212Z" fill="#999A99"/>
<path d="M438.95 169.826C438.95 174.066 436.451 178.993 433.37 180.83C430.289 182.665 427.79 180.717 427.79 176.475C427.79 172.235 430.289 167.308 433.37 165.471C436.451 163.636 438.95 165.585 438.95 169.826Z" fill="#343434"/>
<path d="M429.65 181.172L431.51 182.45V180.59L429.65 181.172Z" fill="#343434"/>
<path d="M437.352 164.781L438.95 166.156L438.249 166.641L437.09 165.027L437.352 164.781Z" fill="#343434"/>
<path d="M441.74 170.755C441.74 174.996 439.034 179.923 435.696 181.759C432.357 183.596 429.65 181.646 429.65 177.406C429.65 173.164 432.357 168.237 435.696 166.402C439.034 164.565 441.74 166.514 441.74 170.755Z" fill="#464648"/>
<path d="M438.02 172.603C438.02 174.488 436.98 176.677 435.696 177.494C434.412 178.309 433.37 177.443 433.37 175.558C433.37 173.673 434.412 171.485 435.696 170.668C436.98 169.852 438.02 170.718 438.02 172.603Z" fill="#999A99"/>
<path d="M433.37 120.734L437.433 122.931L457.55 112.115L453.428 109.911L433.37 120.734Z" fill="#464648"/>
<path d="M433.37 120.14V122.531L437.09 124.79V122.404L433.37 120.14Z" fill="#343434"/>
<path d="M457.55 111.77L437.09 122.495V124.79L457.55 114.037V111.77Z" fill="#292827"/>
<path d="M463.535 70.132L461.052 71.5421C459.125 72.6345 457.55 75.3189 457.55 77.5069V83.3911C457.55 83.3911 458.122 83.8701 458.993 83.8701C459.864 83.8701 460.02 83.3911 460.02 83.3911V78.5393C460.02 76.5521 461.098 74.7134 462.849 73.7206L465.92 71.9769V71.4868C465.92 70.2837 464.594 69.5296 463.535 70.132Z" fill="#464648"/>
<path d="M478.966 39.2307C478.966 39.2307 476.22 51.1457 473.725 53.4799C470.677 56.3301 467.755 63.0083 462.286 67.5737C456.257 72.607 457.701 76.4307 457.701 76.4307L462.286 75.7219C462.286 75.7219 462.339 72.3334 467.764 68.9569C472.51 66.002 477.33 61.0375 478.966 58.8991C479.955 57.6056 482.333 54.3233 483.71 51.8425C483.946 47.7736 484.52 45.9478 484.52 42.2094C482.08 41.6113 480.152 40.6752 478.966 39.2307Z" fill="#F68C83"/>
<path d="M432.44 148.97V151.478L462.2 168.5V165.962L432.44 148.97Z" fill="#343434"/>
<path d="M432.44 149.171L462.065 165.71L487.31 151.529L457.606 135.02L432.44 149.171Z" fill="#464648"/>
<path d="M444.53 201.392V203.84L457.55 196.13V193.61L444.53 201.392Z" fill="#999A99"/>
<path d="M413.84 183.38V186.006L444.53 203.84V201.181L413.84 183.38Z" fill="#707273"/>
<path d="M413.84 184.282L443.566 201.98L457.55 193.577L427.895 175.94L413.84 184.282Z" fill="#C1BFBD"/>
<path d="M425.75 177.385C425.75 177.385 423.884 179.554 421.393 182.151C419.089 184.554 418.374 185.247 416.235 187.48C414.985 188.783 416.014 189.982 418.396 189.885C420.488 189.798 425.229 188.709 427.88 187.691C429.764 186.966 433.217 184.925 434.982 183.731C436.746 182.538 437.09 180.881 437.09 180.881V176.871L425.75 177.385Z" fill="#464648"/>
<path d="M441.996 187.578C441.996 187.578 440.05 189.592 437.451 192.004C435.045 194.237 434.3 194.878 432.067 196.952C430.764 198.163 431.838 199.277 434.322 199.185C436.507 199.105 441.452 198.093 444.22 197.147C446.186 196.476 449.789 194.579 451.63 193.47C453.47 192.363 453.83 190.824 453.83 190.824V187.1L441.996 187.578Z" fill="#464648"/>
<path d="M457.007 126.65C457.007 126.65 437.295 140.679 433.474 143.267C431.49 144.613 431.268 148.092 430.749 150.771C430.23 153.449 426.859 171.292 425 177.657C427.547 179.467 433.925 185.871 436.001 184.584C438.075 183.295 438.075 183.295 438.075 183.295L443.197 154.481C443.197 154.481 455.84 147.54 457.856 146.444C454.169 149.53 450.053 152.278 447.948 154.95C446.392 156.924 446.703 159.798 446.309 162.401C445.077 170.532 441.755 187.414 441.755 187.414C441.755 187.414 446.116 191.535 449.421 192.934C452.101 194.067 456.146 193.434 456.146 193.434L460.288 163.54C460.288 163.54 473.9 154.47 479.633 152.328C486.988 149.581 485.278 134.731 485.278 134.731L457.007 126.65Z" fill="#343434"/>
<path d="M450.874 104.33C450.874 104.33 447.632 113.597 446.725 118.773C446.185 121.85 445.46 134.106 445.46 136.176C445.46 137.62 446.197 140.19 447.187 143.299C448.178 146.408 452.492 145.774 452.893 141.59C453.295 137.406 451.373 136.832 450.997 134.567C450.836 133.595 452.342 128.742 452.602 125.545C452.853 122.425 453.856 119.622 454.434 118.773C457.782 113.856 457.831 110.73 457.831 110.73C457.831 110.73 461.624 105.458 450.874 104.33Z" fill="#F68C83"/>
<path d="M463.178 89.4502C463.178 89.4502 458.76 89.3822 455.546 95.2106C452.332 101.039 451.04 104.815 451.04 104.815C451.04 104.815 456.203 105.387 461.292 109.91C468.255 103.836 468.434 92.289 463.178 89.4502Z" fill="#0BA968"/>
<path d="M463.043 91.2234C463.043 91.2234 457.146 97.1206 457.576 107.488C458.215 122.895 453.83 127.224 453.83 127.224C453.83 127.224 459.811 138.74 470.717 138.74C478.322 138.74 483.434 137.797 484.803 134.872C483.867 124.335 487.786 106.643 487.262 102.659C486.737 98.6773 477.641 92.8985 477.641 92.8985C477.641 92.8985 469.591 88.6126 463.043 91.2234Z" fill="#3DC98D"/>
<path d="M473.756 115.49C473.756 115.49 471.176 125.051 469.174 129.051C467.95 131.499 461.589 138.281 459.664 140.448C455.1 145.592 454.76 149.795 454.76 149.795C454.76 149.795 459.245 150.728 461.869 147.048C464.035 144.01 473.643 135.013 476.2 132.028C478.758 129.043 483.59 119.155 483.59 119.155L473.756 115.49Z" fill="#F68C83"/>
<path d="M467.134 91.0118L465.92 98.3786C465.92 98.3786 469.523 102.59 473.049 99.4423C476.576 96.2946 477.08 94.8467 477.08 94.8467L475.344 84.8004L467.134 91.0118Z" fill="#F68C83"/>
<path d="M472.421 72.7359C469.131 70.2156 458.78 68.9222 458.496 77.5058C458.165 87.4936 463.153 96.6027 467.225 94.8012C469.506 93.7927 474.299 90.207 475.649 85.7363C477.17 80.7052 474.977 74.6942 472.421 72.7359Z" fill="#FABAAC"/>
<path d="M457.55 79.4284L459.33 83.813L458.995 80.8692C458.995 80.8692 460.719 83.813 463.903 84.2174C468.793 84.8379 472.573 83.8735 472.573 83.8735V86.6602L473.579 85.7777C473.579 85.7777 473.144 82.6341 474.855 83.2629C476.033 83.6951 475.885 85.3258 475.885 85.3258C475.885 85.3258 477.906 80.8512 477.997 79.8672C478.088 78.8832 477.912 70.4562 469.531 69.1546C461.149 67.853 458.691 74.5559 457.55 79.4284Z" fill="#999A99"/>
<path d="M464.52 165.313V147.385C464.52 145.456 465.533 143.673 467.177 142.708L487.779 130.622V151.665L464.52 165.313ZM487.779 97.8206V128.263L464.858 141.705C463.213 142.67 462.2 144.452 462.2 146.382V187.101H464.52V167.669L487.779 154.023V166.841H490.1V97.8206H487.779Z" fill="#999A99"/>
<path d="M463.13 181.521L458.206 184.688C456.649 185.689 455.69 187.54 455.69 189.543V195.471H457.886V190.584C457.886 188.581 458.844 186.731 460.4 185.729L463.13 183.973V181.521Z" fill="#999A99"/>
<path d="M484.52 175.01L465.92 186.443V188.96L484.52 177.529V175.01Z" fill="#999A99"/>
<path d="M502.19 162.131C502.19 170.847 496.776 180.975 490.1 184.75C486.996 186.504 484.165 186.577 482.024 185.278C479.559 183.781 478.01 180.465 478.01 175.801C478.01 167.083 483.422 156.956 490.1 153.18C496.776 149.406 502.19 153.413 502.19 162.131Z" fill="#343434"/>
<path d="M484.52 186.17L482.66 184.34L483.992 183.38L484.52 186.17Z" fill="#343434"/>
<path d="M497.54 152.691L500.33 154.097C500.33 154.097 498.415 154.54 498.381 154.551C498.345 154.561 497.54 152.691 497.54 152.691Z" fill="#343434"/>
<path d="M504.05 163.711C504.05 172.192 498.844 182.046 492.425 185.719C486.004 189.391 480.8 185.493 480.8 177.01C480.8 168.529 486.004 158.676 492.425 155.003C498.844 151.33 504.05 155.229 504.05 163.711Z" fill="#464648"/>
<path d="M495.68 168.603C495.68 170.252 494.224 172.167 492.426 172.882C490.628 173.595 489.17 172.838 489.17 171.188C489.17 169.54 490.628 167.624 492.426 166.909C494.224 166.195 495.68 166.953 495.68 168.603Z" fill="#999A99"/>
<path d="M469.64 186.845C469.64 191.323 467.141 196.523 464.06 198.461C460.979 200.4 458.48 198.342 458.48 193.866C458.48 189.388 460.979 184.188 464.06 182.25C467.141 180.311 469.64 182.369 469.64 186.845Z" fill="#343434"/>
<path d="M460.34 198.842L462.2 200.12V198.26L460.34 198.842Z" fill="#343434"/>
<path d="M467.244 182.45L469.64 183.136L468.589 183.38L466.85 182.572L467.244 182.45Z" fill="#343434"/>
<path d="M471.5 188.425C471.5 192.666 469.001 197.592 465.92 199.43C462.838 201.265 460.34 199.315 460.34 195.075C460.34 190.835 462.838 185.908 465.92 184.071C469.001 182.235 471.5 184.184 471.5 188.425Z" fill="#464648"/>
<path d="M467.78 190.923C467.78 192.572 466.739 194.488 465.455 195.202C464.171 195.917 463.13 195.157 463.13 193.509C463.13 191.86 464.171 189.944 465.455 189.229C466.739 188.516 467.78 189.273 467.78 190.923Z" fill="#999A99"/>
<path d="M464.06 138.247L467.812 140.601L486.38 129.013L482.577 126.651L464.06 138.247Z" fill="#464648"/>
<path d="M464.06 138.74V140.652L467.78 142.46V140.552L464.06 138.74Z" fill="#343434"/>
<path d="M486.38 128.51L467.78 140.002V142.46L486.38 130.937V128.51Z" fill="#292827"/>
<path d="M484.929 98.1074C487.461 99.5493 488.038 103.297 486.348 110.268C485.503 113.749 484.799 116.349 483.33 119.113C480.048 119.897 473.36 115.668 473.36 115.668C473.36 115.668 475.284 110.562 476.774 107.129C479.137 101.682 482.169 96.5342 484.929 98.1074Z" fill="#0BA968"/>
<path d="M493.96 88.7178L491.201 90.0339C489.062 91.0535 487.31 93.5589 487.31 95.6011V101.093C487.31 101.093 487.946 101.54 488.914 101.54C489.881 101.54 490.055 101.093 490.055 101.093V96.5646C490.055 94.7098 491.253 92.9938 493.199 92.0672L496.61 90.4397V89.9823C496.61 88.8594 495.139 88.1556 493.96 88.7178Z" fill="#464648"/>
<path d="M503.392 51.3203C503.392 51.3203 496.767 65.7653 495.21 70.2747C492.893 76.995 489.693 84.2058 488.507 86.1503C487.321 88.0932 485.778 90.6409 486.621 93.1291C487.464 95.6173 489.855 97.8203 489.855 97.8203C489.855 97.8203 492.621 96.5276 493.786 94.5722C494.952 92.6167 495.21 91.0969 493.803 89.0709C495.928 86.7159 501.224 74.6714 502.747 71.4593C504.949 66.8104 512.42 57.5016 512.42 57.5016L503.392 51.3203Z" fill="#FABAAC"/>
<path d="M515.111 33.9278C517.643 35.3606 518.612 38.4336 517.613 45.7403C516.859 51.2346 515.236 54.3953 512.659 57.7312C509.434 58.6059 503.12 53.3914 503.12 53.3914C503.12 53.3914 504.911 46.8733 506.312 43.3068C508.533 37.6496 512.353 32.3659 515.111 33.9278Z" fill="#0077EF"/>
</svg>
