<svg width="232" height="130" viewBox="0 0 232 130" fill="none" xmlns="http://www.w3.org/2000/svg">
<g opacity="0.8">
<path d="M62.9625 94.7764C62.5944 94.7764 59.2579 94.7764 58.9178 94.7764C53.6881 94.7764 51.0174 92.1866 48.0787 89.1896C44.9583 86.0031 41.4192 82.3935 34.5148 82.3935C27.6103 82.3935 24.0712 86.0031 20.9509 89.1896C18.0121 92.1866 15.3414 94.7764 10.1117 94.7764C9.74368 94.7764 6.40721 94.7764 6.06705 94.7764C2.72154 94.7764 0 97.5538 0 100.968C0 110.849 7.75719 118.876 17.5566 119.436C21.4722 124.17 26.9129 127.798 34.5148 127.798C42.101 127.798 47.5346 124.185 51.4487 119.464C61.129 119.05 69.0295 110.947 69.0295 100.968C69.0295 97.5538 66.308 94.7764 62.9625 94.7764ZM4.0447 100.968C4.0447 99.8292 4.95125 98.904 6.06705 98.904H8.41702C9.02332 102.012 10.7892 108.621 14.3132 114.748C8.47499 112.966 4.0447 107.497 4.0447 100.968ZM28.4477 94.7695L40.5818 94.7764V98.904H28.4477V94.7695ZM40.5818 115.415H28.4477V111.287H40.5818V115.415ZM48.6712 107.159H20.3583V103.032H48.6712V107.159ZM54.7163 114.748C58.2403 108.621 60.0062 102.012 60.6125 98.904H62.9625C64.0783 98.904 64.9848 99.8292 64.9848 100.968C64.9848 107.497 60.5545 112.966 54.7163 114.748Z" fill="white"/>
<path d="M144.334 7.17764H132.612V4.78506C132.612 2.14608 130.509 0 127.923 0H113.856C111.27 0 109.167 2.14597 109.167 4.78506V7.17753H97.4451C94.859 7.17764 92.7562 9.32361 92.7562 11.9626V43.0652C92.7562 45.7042 94.859 47.8502 97.4451 47.8502H144.334C146.92 47.8502 149.023 45.7043 149.023 43.0652V11.9626C149.023 9.32361 146.92 7.17764 144.334 7.17764ZM113.856 4.78506H127.923V7.17753H113.856V4.78506ZM132.612 32.299C132.612 32.9602 132.087 33.4953 131.439 33.4953H125.578V39.4765C125.578 40.1378 125.054 40.6728 124.406 40.6728H117.373C116.725 40.6728 116.2 40.1378 116.2 39.4765V33.4953H110.339C109.692 33.4953 109.167 32.9602 109.167 32.299V25.1215C109.167 24.4602 109.692 23.9252 110.339 23.9252H116.2V17.9439C116.2 17.2827 116.725 16.7476 117.373 16.7476H124.406C125.054 16.7476 125.578 17.2827 125.578 17.9439V23.9252H131.439C132.087 23.9252 132.612 24.4602 132.612 25.1215V32.299Z" fill="white"/>
<path d="M231.845 90.4166C231.799 90.1299 231.556 89.9196 231.271 89.9196H214.348C214.028 89.9196 213.768 90.183 213.766 90.5094L213.746 94.0019C213.744 94.2024 213.843 94.3902 214.007 94.5007L227.767 103.778C227.863 103.843 227.975 103.877 228.087 103.877C228.141 103.877 228.194 103.869 228.246 103.854C228.409 103.807 228.544 103.69 228.615 103.533C230.168 100.115 231.928 96.2403 231.999 92.2003C232.008 91.7063 231.956 91.1062 231.845 90.4166Z" fill="white"/>
<path d="M212.528 86.9306C212.528 86.6242 212.299 86.3683 212 86.3401C209.565 86.1121 206.76 85.7607 204.04 85.4198C202.118 85.179 200.132 84.93 198.274 84.7251C197.993 84.6945 197.735 84.871 197.654 85.1447C197.328 86.2552 197.099 87.4253 196.898 88.4564L196.889 88.503C196.828 88.8102 196.704 89.6087 196.603 90.2539C196.518 90.7955 196.445 91.2632 196.405 91.4835C196.397 91.5264 196.393 91.5683 196.393 91.6077C196.393 91.6313 196.394 91.655 196.397 91.6786C196.418 91.8531 196.505 92.0145 196.687 92.3167C196.811 92.5232 196.952 92.7574 197.047 93.0273C197.793 95.1478 196.169 96.9623 194.735 98.5636L194.519 98.8057C193.936 99.46 193.249 100.389 193.284 101.097C193.297 101.36 193.4 101.586 193.581 101.753C193.826 101.977 194.111 102.116 194.387 102.25C194.698 102.402 194.992 102.545 195.216 102.803C195.88 103.568 195.6 104.779 195.247 105.66C195.235 105.69 195.226 105.72 195.219 105.751C195.076 106.385 195.445 106.8 195.643 107.024C195.689 107.075 195.755 107.15 195.779 107.189C195.775 107.282 195.751 107.392 195.723 107.518C195.641 107.882 195.53 108.38 195.833 108.965C195.906 109.105 196 109.201 196.069 109.272C196.086 109.289 196.103 109.306 196.119 109.325C197.14 110.539 197.067 111.417 196.966 112.633L196.957 112.744C196.836 114.208 197.698 115.236 199.519 115.801C199.984 115.945 200.586 116.053 201.224 116.166C202.669 116.424 204.737 116.914 205.348 117.622C206.002 118.379 207.074 119.779 207.074 119.779C207.186 119.921 207.354 120 207.527 120C207.579 120 207.632 119.992 207.685 119.978C209.662 119.409 211.273 118.919 212.139 118.656C212.386 118.58 212.555 118.349 212.555 118.086L212.528 86.9306Z" fill="white"/>
<path d="M227.439 118.464C226.151 116.119 225.565 114.967 225.502 114.338C225.237 111.685 226.164 109.182 227.053 107.044C227.161 106.785 227.075 106.483 226.847 106.324L214.609 97.7259C214.431 97.6008 214.2 97.5869 214.009 97.6892C213.818 97.7915 213.698 97.9935 213.698 98.2139L213.669 119.515L213.642 119.524C213.444 119.585 212.378 119.916 210.804 120.383L205.81 121.8C199.219 123.531 195.815 124.293 191.178 125.064C190.491 121.28 188.977 111.96 188.748 105.97C188.388 96.5638 189.267 87.1798 189.842 83.0505C195.492 83.2706 198.238 83.5077 200.35 83.7309C201.723 83.8928 203.119 84.0678 204.473 84.2374C207.616 84.6312 210.866 85.0387 213.518 85.2518L214.096 85.2982L214.053 85.8875C214.034 86.1425 214.016 86.4038 213.999 86.6705C213.989 86.8343 214.045 86.9951 214.155 87.1148C214.265 87.2346 214.419 87.3026 214.579 87.3026H230.288C230.289 87.3026 230.29 87.3026 230.291 87.3026C230.612 87.3026 230.838 87.0351 230.872 86.7092C230.918 86.2661 230.16 84.7147 229.838 84.1107C229.395 83.2773 228.451 82.4161 227.619 81.6564C227.188 81.2632 226.782 80.8917 226.425 80.5158C222.784 76.6767 219.742 75.0387 216.253 75.0387C215.939 75.0387 215.617 75.0527 215.295 75.0805C210.531 75.4914 203.455 77.4384 199.786 79.6504C194.362 79.1856 189.935 78.9468 187.003 78.9715C186.75 78.9736 186.532 79.1574 186.465 79.4064C186.465 79.4064 184.005 90.4943 184.766 106.128C185.137 113.739 187.367 126.729 187.671 127.804L187.977 129.114C188.04 129.384 188.277 129.569 188.542 129.569C188.571 129.569 188.6 129.567 188.63 129.563C188.727 129.547 198.471 128.027 206.851 125.726L211.114 124.517L212.385 126.124C212.55 126.332 212.831 126.402 213.071 126.295L227.465 119.843C227.616 119.776 227.731 119.647 227.783 119.489C227.835 119.33 227.819 119.157 227.74 119.011C227.639 118.826 227.536 118.639 227.439 118.464Z" fill="white"/>
<path d="M121.464 77.9406C108.702 77.9406 98.3541 88.2883 98.3541 101.05C98.3541 113.812 108.702 124.16 121.464 124.16C134.225 124.16 144.573 113.812 144.573 101.05C144.573 88.2883 134.225 77.9406 121.464 77.9406ZM121.464 120.239C110.868 120.239 102.274 111.645 102.274 101.05C102.274 90.4548 110.868 81.861 121.464 81.861C132.059 81.861 140.653 90.4548 140.653 101.05C140.653 111.645 132.059 120.239 121.464 120.239Z" fill="white"/>
<path d="M127.22 90.9758C125.673 89.6191 123.63 88.8763 121.464 88.8763C119.297 88.8763 117.254 89.6243 115.707 90.9758C114.097 92.384 113.21 94.2771 113.21 96.3044V96.6964C113.21 96.9234 113.396 97.1091 113.623 97.1091H116.099C116.326 97.1091 116.512 96.9234 116.512 96.6964V96.3044C116.512 94.0295 118.735 92.1777 121.464 92.1777C124.192 92.1777 126.416 94.0295 126.416 96.3044C126.416 97.9086 125.281 99.3788 123.522 100.055C122.428 100.472 121.5 101.205 120.834 102.164C120.159 103.144 119.808 104.32 119.808 105.512V106.621C119.808 106.848 119.993 107.034 120.22 107.034H122.696C122.923 107.034 123.109 106.848 123.109 106.621V105.45C123.112 104.949 123.265 104.461 123.55 104.049C123.834 103.637 124.236 103.32 124.703 103.139C127.747 101.968 129.712 99.2859 129.712 96.3044C129.717 94.2771 128.83 92.384 127.22 90.9758ZM119.4 112.398C119.4 112.946 119.618 113.471 120.005 113.857C120.392 114.244 120.916 114.462 121.464 114.462C122.011 114.462 122.536 114.244 122.923 113.857C123.31 113.471 123.527 112.946 123.527 112.398C123.527 111.851 123.31 111.326 122.923 110.939C122.536 110.553 122.011 110.335 121.464 110.335C120.916 110.335 120.392 110.553 120.005 110.939C119.618 111.326 119.4 111.851 119.4 112.398Z" fill="white"/>
<line x1="120.964" y1="78.0842" x2="120.964" y2="45.9319" stroke="white"/>
<line x1="144.43" y1="99.4018" x2="184.62" y2="99.4018" stroke="white"/>
<line x1="60.6039" y1="99.4018" x2="100.794" y2="99.4018" stroke="white"/>
</g>
</svg>
