<svg width="40" height="40" viewBox="0 0 40 40" fill="none" xmlns="http://www.w3.org/2000/svg">
<circle cx="20" cy="20" r="20" fill="#AEB8CC"/>
<path d="M28.1215 25.8969C27.6794 24.8496 27.0378 23.8984 26.2325 23.0961C25.4296 22.2915 24.4785 21.65 23.4317 21.207C23.4223 21.2023 23.4129 21.2 23.4036 21.1953C24.8637 20.1406 25.8129 18.4227 25.8129 16.4844C25.8129 13.2734 23.2114 10.6719 20.0004 10.6719C16.7895 10.6719 14.1879 13.2734 14.1879 16.4844C14.1879 18.4227 15.1371 20.1406 16.5973 21.1977C16.5879 21.2023 16.5786 21.2047 16.5692 21.2094C15.5192 21.6523 14.577 22.2875 13.7684 23.0984C12.9638 23.9013 12.3223 24.8524 11.8793 25.8992C11.4441 26.924 11.2094 28.0228 11.1879 29.1359C11.1873 29.161 11.1917 29.1858 11.2008 29.2091C11.21 29.2324 11.2237 29.2537 11.2412 29.2716C11.2586 29.2895 11.2795 29.3037 11.3026 29.3134C11.3256 29.3231 11.3504 29.3281 11.3754 29.3281H12.7817C12.8848 29.3281 12.9668 29.2461 12.9692 29.1453C13.016 27.3359 13.7426 25.6414 15.027 24.357C16.3559 23.0281 18.1207 22.2969 20.0004 22.2969C21.8801 22.2969 23.645 23.0281 24.9739 24.357C26.2582 25.6414 26.9848 27.3359 27.0317 29.1453C27.034 29.2484 27.1161 29.3281 27.2192 29.3281H28.6254C28.6504 29.3281 28.6752 29.3231 28.6983 29.3134C28.7213 29.3037 28.7422 29.2895 28.7597 29.2716C28.7772 29.2537 28.7909 29.2324 28.8 29.2091C28.8092 29.1858 28.8136 29.161 28.8129 29.1359C28.7895 28.0156 28.5575 26.9258 28.1215 25.8969ZM20.0004 20.5156C18.9246 20.5156 17.9121 20.0961 17.1504 19.3344C16.3887 18.5727 15.9692 17.5602 15.9692 16.4844C15.9692 15.4086 16.3887 14.3961 17.1504 13.6344C17.9121 12.8727 18.9246 12.4531 20.0004 12.4531C21.0762 12.4531 22.0887 12.8727 22.8504 13.6344C23.6121 14.3961 24.0317 15.4086 24.0317 16.4844C24.0317 17.5602 23.6121 18.5727 22.8504 19.3344C22.0887 20.0961 21.0762 20.5156 20.0004 20.5156Z" fill="white"/>
</svg>
